<svg id="Layer_1" data-name="Layer 1" xmlns="http://www.w3.org/2000/svg" viewBox="0 0 512 512"><defs><style>.cls-1{fill:#fff;}</style></defs><title>con1</title><path class="cls-1" d="M252.08,511.9q-125.93,0-251.85.1c-3.45,0-4.06-.73-4.06-4.11Q-3.68,256-3.82,4.21C-3.82,1-3.49,0,.14,0q252.11.18,504.2,0c3.16,0,3.79.76,3.79,3.84q-.12,252.09,0,504.18c0,3.71-1.13,3.93-4.24,3.93Q378,511.83,252.08,511.9Z" transform="translate(3.83)"/><path d="M252.49,353.6c0,14.17-.14,27.6.09,41,.06,3.81-1,5.9-4.49,7.74-16,8.48-31.82,17.31-47.71,26-6.87,3.76-12.71.25-12.65-7.55l.09-16c0-6.12-2.92-9.95-8.82-11.64-1.88-.54-3.19.48-4.6,1.31-5.47,3.16-10.9,6.39-16.38,9.52-6,3.42-13-.4-13-7.05q-.12-142.68-.32-285.36c0-3.83,1.05-5.86,4.49-7.7,16.71-8.91,33.24-18.16,49.85-27.27,4.56-2.5,11.06,1.41,11.06,6.73,0,6.66-.22,13.33-.27,20,0,4.87,8.15,10,12.54,7.85,5.35-2.67,10.75-5.3,15.81-8.47,3.74-2.35,7.24-2.24,11.27-1.3,3.2.75,4.16,2.1,4.12,5.38-.18,15.16-.08,30.32-.08,45.48,0,19.32.07,38.65-.07,58,0,3,.9,4.74,3.57,6.28,29.37,16.92,58.59,34.11,88,50.89,4.81,2.74,3.89,6.55,4.32,10.55s-2.37,5-4.93,5.76c-8.39,2.43-10.68,7.66-10.2,16.25.81,14.45.32,29,.09,43.47-.06,3.37.91,5.32,4,6.39,1.25.43,2.32,1.43,3.58,1.74,6.91,1.69,7,7.39,7.72,12.79.26,1.95-.92,2.64-2.25,3.4-10.84,6.15-21.73,12.21-32.47,18.54-2.63,1.55-4.33.36-6.34-.79Q283.3,371,258,356.5C256.45,355.61,254.85,354.84,252.49,353.6Z" transform="translate(3.83)"/><path class="cls-1" d="M252.79,268.39c18.28,10.47,35.41,20,52.2,30.08,4.78,2.87,8.53,3.46,12.84-.11a28.52,28.52,0,0,1,4.31-2.35v62.52c-1.89.64-3.09-.84-4.44-1.61-20.33-11.62-40.6-23.36-61-34.87-3-1.72-4-3.63-4-7C252.89,299.9,252.79,284.79,252.79,268.39Z" transform="translate(3.83)"/><path class="cls-1" d="M200.38,327.27c14.17,2.58,24.88,10.93,36.66,17.11,2.9,1.53,3.89,3.33,3.83,6.61-.25,12.64-.22,25.29-.17,37.94,0,2.54-.44,4.24-3,5.57-11.28,6-22.44,12.22-33.64,18.37-1.88,1-3.74,2.23-3.73-1.54C200.39,383.23,200.38,355.13,200.38,327.27Z" transform="translate(3.83)"/><path class="cls-1" d="M200.4,201.33c-.93-1.21-.49-2.57-.49-3.82q-.09-27.19-.09-54.39c0-2.14-.29-4.21,2.19-5.55,12.25-6.62,23.54-14.87,35.91-21.3,3.12-1.61,3.81-1.09,3.79,2.37-.12,19.63-.07,39.25,0,58.88,0,2.26,0,3.83-3.15,3.08-2.34-.55-4.39,1.1-6.39,2.3q-13.65,8.22-27.33,16.38C203.44,200.1,202.23,201.37,200.4,201.33Z" transform="translate(3.83)"/><path class="cls-1" d="M156.64,201.63c0-29.29,0-57.42-.06-85.55,0-3.11,2.14-3.81,4.11-4.91,10.64-5.94,10.65-5.93,10.69,6.18.07,23.64,0,47.28.31,70.92.05,3.93-1.13,6.16-4.62,7.72C163.79,197.46,160.73,199.4,156.64,201.63Z" transform="translate(3.83)"/><path class="cls-1" d="M253.86,249.51c4.44,3.76,9.61,3.11,13.42,1.28,4.82-2.31.55-8.47,3.05-12.89l60.53,35.29c-6.21,3.67-11.75,6.91-17.24,10.22a4.09,4.09,0,0,1-4.62-.14q-27-15.52-54-30.94C254.3,251.91,253.57,251.49,253.86,249.51Z" transform="translate(3.83)"/><path class="cls-1" d="M157.09,390.84V309.56c4.47,2.55,8.43,4.86,12.44,7.06,1.69.92,1.5,2.42,1.5,3.89q0,29.7,0,59.41c0,1.8-.39,3.13-2.13,4.07C165.17,386,161.5,388.27,157.09,390.84Z" transform="translate(3.83)"/><path class="cls-1" d="M157,287.1V224l12.69,7.17c1.56.88,1.61,2.37,1.61,3.9,0,13.78,0,27.56,0,41.35a3.94,3.94,0,0,1-2.26,4C165.24,282.37,161.54,284.54,157,287.1Z" transform="translate(3.83)"/><path class="cls-1" d="M183.74,109,205,121.42a26,26,0,0,1-9.51,6.2c-6.3,2.66-7.86,6.95-7.65,13.56.54,16.3.23,32.64.25,49,0,1.82,0,3.63,0,5.69-3.25-.4-4.75-1.73-4.76-4.83q0-40.22-.15-80.45A7.42,7.42,0,0,1,183.74,109Z" transform="translate(3.83)"/><path class="cls-1" d="M209.68,310.59V244.42c8.94,3.2,8.95,3.2,8.89,12.11q-.16,21.71-.37,43.42C218.13,307.76,218.11,307.76,209.68,310.59Z" transform="translate(3.83)"/><path class="cls-1" d="M231,282c0-7.33.09-14.66,0-22-.06-3.37.81-3.37,3.69-2.12,5.25,2.27,7.18,5.53,6.89,11.45-.64,13-.49,26-.48,39,0,3.73-.76,4.08-4.17,2.49-4.89-2.28-6.77-5.36-6.25-10.83.57-5.94.13-12,.13-18Z" transform="translate(3.83)"/><path class="cls-1" d="M182.88,324.5c2.81,1.6,5.53,1.86,5.53,5.19,0,18.07,0,36.14,0,54.56-4.06-.88-5.69-2.68-5.64-6.85C183,360.12,182.88,342.84,182.88,324.5Z" transform="translate(3.83)"/><path class="cls-1" d="M187.93,227.8,161.3,212.7c5-2.83,9.37-5.27,13.72-7.66.7-.39,1.77-1,2.26-.73a73.2,73.2,0,0,1,9.81,5.85c1.85,1.42.72,4.08.8,6.17C188,219.81,187.93,223.29,187.93,227.8Z" transform="translate(3.83)"/><path class="cls-1" d="M188,313.56l-26.69-15.32c5-2.79,9.35-5.42,13.88-7.66,3.14-1.55,12.53,4.16,12.75,7.62.2,3.14.06,6.31.06,9.46C188,309.29,188,310.92,188,313.56Z" transform="translate(3.83)"/><path class="cls-1" d="M239,226.2,218.4,214c2.32,7.43-2.91,8.46-6.79,10.56-.83.45-1.73.91-2.42-.46-1.74-3.49.47-10.83,4-12.86,9.81-5.72,9.82-5.73,17.32,3.07,3.11,3.65,6.17,7.33,9.25,11Z" transform="translate(3.83)"/><path class="cls-1" d="M253.28,333.7c2.53,1.43,5,2.78,7.39,4.17q25.27,14.5,50.54,29.06c.94.54,3.06.74,2.07,2.53-.82,1.49-2.38,1.32-3.9.44Q282.05,354,254.67,338.1C253,337.11,252.25,336,253.28,333.7Z" transform="translate(3.83)"/><path class="cls-1" d="M183.05,239.36c2.86,1,5.12,1.54,5.12,4.62,0,12.44,0,24.88,0,37.66-3.12-.78-5.17-1.75-5.14-5.19C183.1,264.33,183.05,252.2,183.05,239.36Z" transform="translate(3.83)"/><path class="cls-1" d="M240.51,329.86c-5.69-3.31-10.95-6.34-16.19-9.41-.64-.38-1.7-.74-1.16-1.77a2.27,2.27,0,0,1,1.63-.81c1.81-.2,15.3,8.05,16,9.77C240.94,328,240.69,328.58,240.51,329.86Z" transform="translate(3.83)"/><path class="cls-1" d="M240.78,244.16c-2.95-1.69-5.89-3.4-8.85-5.08-1-.55-1.71-1.43-1.19-2.38.72-1.32,1.72-.27,2.43.24,2.83,2,6.65,2.75,8.41,6.13Z" transform="translate(3.83)"/><path class="cls-1" d="M192.42,96.82l5-2.9c1,1.86,1.36,4.13.22,5C196,100.24,194.69,98,192.42,96.82Z" transform="translate(3.83)"/></svg>