<svg id="Layer_2" data-name="Layer 2" xmlns="http://www.w3.org/2000/svg" viewBox="0 0 512 512"><defs><style>.cls-1{fill:#fefefe;}.cls-2{fill:#fdfdfd;}.cls-3{fill:#f8f8f8;}.cls-4{fill:#f9f9f9;}.cls-5{fill:#ececec;}.cls-6{fill:#686868;}.cls-7{fill:#5c5c5c;}</style></defs><title>con2</title><path class="cls-1" d="M.1,252.74Q.1,127.07,0,1.39c0-3.5.41-4.73,4.44-4.73q251.59.19,503.18,0c3.59,0,4.35.72,4.35,4.33q-.18,251.6,0,503.19c0,4-1.2,4.45-4.73,4.45q-251.34-.13-502.67,0c-3.74,0-4.61-.82-4.6-4.57Q.2,378.42.1,252.74Z" transform="translate(0 3.34)"/><path d="M109.16,326c0-14.12-.1-28.26.08-42.38,0-3-.77-4.83-3.47-6.32-5.66-3.14-11.15-6.6-16.68-10-4.91-3-4.81-12.31.11-15.13Q149.48,217.63,209.72,183c9.61-5.56,14.7-15.61,21.76-23.69.7-.8.45-2.53.46-3.82,0-11,.65-22-.21-32.9-.57-7.18,3.58-9.82,8.29-13,4.51-3,8.36-2.67,12.88.46,5.57,3.86,11.75,6.85,17.66,10.23,1.62.92,3.23,1.89,5.05.5,3.49-2.67,7.48-2.17,11.48-2,9.64.43,19.3.69,29,1.19,2.69.14,4.8-.87,7-2.13,24.75-14.26,49.54-28.45,74.24-42.78,2.61-1.51,4.5-1.69,7.19-.07,15.77,9.53,31.68,18.84,47.53,28.25,4.8,2.85,4.69,11.8-.2,14.65-5.73,3.35-11.47,6.7-17.29,9.9a5.9,5.9,0,0,0-3.48,5.91q.27,42.89.24,85.77c0,2.89.94,4.51,3.45,5.85,5.13,2.74,10.08,5.79,15.11,8.71,7.8,4.53,7.92,12.28.19,16.75C437.66,258,425.25,265,412.87,272.16Q362.8,301,312.68,329.76c-2.87,1.64-4.3,3.35-3.7,6.59.63,3.43-.68,5.53-4,6.83a39.79,39.79,0,0,0-7.33,4.11c-2.36,1.54-4.64,1.82-6.68-.17-2.88-2.79-5.33-1.79-8.35-.05Q213.85,386.9,145,426.63c-3.53,2.06-6,1.87-9.37-.1-15.6-9.17-31.35-18.1-47-27.13-5-2.87-4.95-12.23.1-15.13,5.47-3.14,10.93-6.31,16.55-9.18,2.74-1.4,3.69-3.15,3.66-6.21-.16-14.29-.07-28.59-.07-42.89Z" transform="translate(0 3.34)"/><path class="cls-1" d="M123.83,393.58V288.36c4.64,2.56,8.83,4.51,12.6,7.07,3,2,5.12,1.58,8-.13Q199.17,263.46,254,231.89c1.39-.8,2.61-2,4.76-2,0,9,0,17.9,0,26.82,0,18.78-.1,37.57,0,56.36,0,2.76-.62,4.49-3.21,6q-64.81,36.7-129.53,73.6C125.43,392.91,124.8,393.14,123.83,393.58Z" transform="translate(0 3.34)"/><path class="cls-1" d="M308.83,287.22c0-3.09,0-5.68,0-8.27-.15-24.76-.27-49.52-.49-74.28,0-2.7.44-4.53,3.1-6Q364.13,168.93,416.71,139c.55-.31,1.14-.54,1.81-.85,1.2,1.24.75,2.63.75,3.84.14,25.92.22,51.85.39,77.77,0,2.68-.43,4.52-3.09,6q-52.8,30-105.48,60.34C310.56,286.43,310,286.66,308.83,287.22Z" transform="translate(0 3.34)"/><path class="cls-1" d="M275.79,201.07Q209.27,239.22,143,277.22c-1.52.87-2.9,1.41-4.62.42-11.48-6.61-23-13.16-34.86-19.95L189,208.6c-.43,3.4-2.27,4.76-3.68,6.17-2.8,2.8-3.61,5.91-3.42,9.83.44,9,.79,9.57,9.43,13.14,2.47,1,3.77-.44,5.38-1.37,20.84-12.05,41.85-23.84,62.37-36.4C265.48,196.05,270.4,195.48,275.79,201.07Z" transform="translate(0 3.34)"/><path class="cls-1" d="M342.93,120.49c11.75-7.79,24.3-14.21,36.41-21.38,6.15-3.63,12.39-7.11,18.56-10.7,1.6-.93,2.92-1.84,5-.61,11.33,6.86,22.76,13.57,34.91,20.78L308.73,182c-1.34-10.31-1.34-10.3,6.76-14.82L364.8,139.7c-4.66-3.26-6.09-7.5-6.54-12.74-.41-4.82-5.27-5.06-9.18-5.63C347.13,120.37,344.86,121.64,342.93,120.49Z" transform="translate(0 3.34)"/><path class="cls-1" d="M288,212.25V326.06l-15.58-8.83c-1.85-1.06-2.06-2.82-2.06-4.74q.14-43.61.22-87.22c0-1.67,0-3.19,1.85-4.21C277.54,218.34,282.5,215.41,288,212.25Z" transform="translate(0 3.34)"/><path class="cls-1" d="M129.1,404.42c44.87-25.55,89.29-50.82,133.65-76.16a4.56,4.56,0,0,1,5.41.08c2.35,1.53,4.84,2.83,7.47,4.34-.83,2-2.77,2.36-4.19,3.19-41.61,24.18-83.29,48.22-124.8,72.57-4.41,2.59-7.64,2.91-11.49-.28A53.56,53.56,0,0,0,129.1,404.42Z" transform="translate(0 3.34)"/><path class="cls-1" d="M436.93,240.26l-128,73.66c0-3.9.13-7-.05-10.11-.13-2.14.73-3.27,2.53-4.3q56-32,111.93-64.16c2-1.14,3.54-1.26,5.45.05C431.09,237,433.6,238.3,436.93,240.26Z" transform="translate(0 3.34)"/><path class="cls-1" d="M208.53,210.05c10.93-11.8,19-25.36,34.06-32.58,13.72-6.6,26.57-15,39.81-22.61,5.19-3,5.62-2.71,5.63,3.4,0,11.58,0,23.15,0,35.72-6.21-4.88-13.87-5.82-18.08-12.64-2.12-3.42-5.7-2.21-8.87-.36q-23.65,13.8-47.4,27.42C212.31,209.19,211.1,210.5,208.53,210.05Z" transform="translate(0 3.34)"/><path class="cls-2" d="M347.16,136l-37.84,21.1c-2-5.29,1-10.84-2.16-15.54-.59-.86.38-1.1.87-1.36,5.57-3,10.46-7.18,17.74-6.31,6.91.83,14,.18,21,.18C346.91,134.69,347,135.34,347.16,136Z" transform="translate(0 3.34)"/><path class="cls-3" d="M274.31,145.89l-18.65,10.72-1.06-1c3.86-4.41,6.71-9.82,12-12.79C269.41,141.22,271.44,144.76,274.31,145.89Z" transform="translate(0 3.34)"/><path class="cls-4" d="M243.92,144.25v-15c.35-.14.72-.43.9-.34C254.4,133.74,254.4,133.85,243.92,144.25Z" transform="translate(0 3.34)"/><path class="cls-5" d="M108.79,386.66v5.82c-2.24.28-3.53-1.32-5.32-2.29C104.68,388.29,106.63,387.93,108.79,386.66Z" transform="translate(0 3.34)"/><path class="cls-6" d="M342.93,120.49l6.15.84c-2.28.61-4.58.24-6.87.08a.46.46,0,0,1-.26-.36C342,120.4,342.46,120.43,342.93,120.49Z" transform="translate(0 3.34)"/><path class="cls-7" d="M294.91,134.4c-1-.25-1.63-.58-1.52-1.31s.95-.73,1.54-.63,1.55-.23,1.18.86C296,133.81,295.24,134.12,294.91,134.4Z" transform="translate(0 3.34)"/></svg>