<svg id="Layer_1" data-name="Layer 1" xmlns="http://www.w3.org/2000/svg" viewBox="0 0 512 512"><defs><style>.cls-1{fill:#fefefe;}.cls-2{fill:#fdfdfd;}.cls-3{fill:#fcfcfc;}.cls-4{fill:#fafafa;}.cls-5{fill:#f7f7f7;}.cls-6{fill:#f3f3f3;}.cls-7{fill:#eee;}</style></defs><title>con3</title><path class="cls-1" d="M256.06,511.92q-125.92,0-251.84.08C1.06,512,0,511.71,0,508Q.18,255.94,0,3.82C0,.68.76,0,3.86,0Q256,.14,508,0c2.84,0,4,.27,4,3.69q-.17,252.36,0,504.72c0,3.69-1.43,3.54-4.11,3.54Q382,511.88,256.06,511.92Z" transform="translate(0 0)"/><path d="M256.83,353.34c0,14.78-.1,28.59.07,42.39,0,3.08-.93,4.72-3.64,6.17-16.39,8.8-32.67,17.8-49,26.7-6.26,3.42-12.36-.13-12.31-7.1,0-6.67.12-13.33.1-20,0-4.73-8.61-9.76-12.76-7.43-5.64,3.18-11.19,6.54-16.79,9.79-6.35,3.68-13.32-.21-13.32-7.42q-.12-142.44-.32-284.88c0-3.77.94-5.82,4.43-7.67C170,95,186.54,85.78,203.15,76.69,208,74,214.44,77.94,214.4,83.52c-.05,6.5-.23,13-.29,19.49-.05,5.38,8.27,10.45,13.1,7.94q9.06-4.73,18-9.65c4.27-2.35,8.06.24,11.89,1.26,1.55.41.71,3,.72,4.6,0,34.15.09,68.3-.07,102.45,0,3.84,1.13,5.8,4.48,7.71,29.31,16.7,58.42,33.74,87.76,50.36,5,2.83,3.29,6.89,3.85,10.73.51,3.5-2.08,4.4-4.33,5-9.07,2.5-11.35,8.23-10.79,17.34.87,14.27.32,28.64.1,43-.05,3.18.94,4.93,3.77,6a28,28,0,0,1,4.91,2.43c2.23,1.4,5.12,1.65,5.66,5.46,1.24,8.61,1.54,8.57-6.08,12.89-8.81,5-17.69,9.9-26.4,15.08-2.77,1.65-4.81,1.68-7.65,0C294.7,374.92,276.22,364.44,256.83,353.34Z" transform="translate(0 0)"/><path class="cls-1" d="M161.05,390.93v-6q-.13-132.46-.38-264.91c0-5,1.16-8.1,5.91-9.91a75.41,75.41,0,0,0,8.24-4.33c1.13,2,.69,3.67.7,5.28.11,26.66.25,53.32.24,80,0,27.8-.19,55.61-.27,83.42-.1,34.48-.24,69-.18,103.44,0,3.63-.89,5.82-4.27,7.35S164.77,388.77,161.05,390.93Z" transform="translate(0 0)"/><path class="cls-1" d="M246,114.48c0,30.91,0,61,.05,91.09a3.49,3.49,0,0,1-2.19,3.44c-10.17,5.6-20.22,11.43-30.5,16.83-7.32,3.86-8.08,4.87-6.72,13,.09.58,1.91,1.66-.27,1.9-1,.1-2.1.25-2.12-1.3,0-1,0-2,0-3q-.06-46.67-.09-93.33c0-1.87-.69-3.94,1.69-5.25C219.1,130.56,231.39,121.45,246,114.48Z" transform="translate(0 0)"/><path class="cls-1" d="M326.68,359.54c-23.05-13.2-45.35-26-67.66-38.73a3.2,3.2,0,0,1-1.93-3.11c.05-16.08,0-32.17,0-49.26,4.09,2.3,7.21,4,10.31,5.79,14.55,8.32,29.19,16.5,43.58,25.09,3.65,2.17,6.39,2.58,9.73-.08,1.63-1.3,3.69-2.08,5.94-3.31Z" transform="translate(0 0)"/><path class="cls-1" d="M223.38,293.46c3.06,11.05-2.88,16.21-12.4,19.12-2.82.87-4.33,2.66-4,5.91s-.85,6.18,3.25,8.34c10.72,5.63,21,12,31.65,17.86,2.55,1.4,3.39,3,3.34,5.81-.19,13-.21,25.95-.14,38.93a4.86,4.86,0,0,1-2.93,5c-11.27,6-22.46,12.18-33.62,18.39-2.61,1.45-3.93,2-3.94-2q0-62.4-.32-124.81c0-2.6.49-3.93,3.46-4.08a111.74,111.74,0,0,0,12.87-1.5c2.36-.4,2.92.41,2.86,2.55C223.31,286.47,223.38,290,223.38,293.46Z" transform="translate(0 0)"/><path class="cls-2" d="M187.28,108.58l22.06,12.88a16.09,16.09,0,0,1-6.69,4.43c-8.58,3.29-10.8,9-10.72,18.25.66,77.92.65,155.85.84,233.78v6.3c-4.09-.62-5.79-2.4-5.77-6.78q.28-86.65.25-173.33,0-44.93,0-89.86Z" transform="translate(0 0)"/><path class="cls-1" d="M335.52,273.3c-6.94,3.91-12.93,9.65-19.4,10.25s-12.18-5.84-18.22-9.23c-12.29-6.89-24.43-14.06-36.75-20.89-2.73-1.51-3.67-3.19-3.55-6.23.24-6,.07-11.95.07-18.93Z" transform="translate(0 0)"/><path class="cls-3" d="M235.78,283.16c2.66,1.34,5.42,2.75,8.18,4.13,1.41.7,1.61,1.9,1.61,3.32,0,7.11,0,14.22,0,21.48-9.37-2.64-10.5-4.07-10.45-12.86,0-5.14.09-10.28.14-15.43C235.24,283.7,235.41,283.59,235.78,283.16Z" transform="translate(0 0)"/><path class="cls-3" d="M245.71,244.48,225.55,233l20.16-11.35Z" transform="translate(0 0)"/><path class="cls-4" d="M257.55,333.58c19.92,11.41,39.51,22.61,59.07,33.86.66.38,2.36.55,1.36,1.95a3.28,3.28,0,0,1-2.51,1.21A9.52,9.52,0,0,1,312.4,369l-52.16-30.2C258.4,337.77,256.09,337,257.55,333.58Z" transform="translate(0 0)"/><path class="cls-5" d="M214.29,260.48c0-1,0-2,0-3,0-4.94,3.44-7.34,8.1-5.71,1.56.54,1.3,1.69,1.3,2.8,0,3.64-.12,7.28-.06,10.92,0,1.76-.54,2.59-2.36,3.06C214.79,270.26,214.34,269.8,214.29,260.48Z" transform="translate(0 0)"/><path class="cls-5" d="M235.45,256.55c10.25,5,8.93,2,8.1,16.55C235,270.55,234.91,270.45,235.45,256.55Z" transform="translate(0 0)"/><path class="cls-6" d="M244.48,329.69,226.06,319c1.2-2.18,2.65-2.14,4.32-1,5.15,3.39,11.28,5.51,15.64,9.92Z" transform="translate(0 0)"/><path class="cls-7" d="M202.25,93.38v6.26c-2.24-.17-3.49-1.65-5.76-2.75Z" transform="translate(0 0)"/></svg>