<svg id="Layer_3" data-name="Layer 3" xmlns="http://www.w3.org/2000/svg" viewBox="0 0 512 512"><defs><style>.cls-1{fill:#fefefe;}.cls-2{fill:#fdfdfd;}.cls-3{fill:#fafafa;}.cls-4{fill:#d8d8d8;}.cls-5{fill:#606060;}.cls-6{fill:#c2c2c2;}.cls-7{fill:#6b6b6b;}</style></defs><title>con4</title><path class="cls-1" d="M4.29,180.34q0-85.3-.1-170.61c0-3.41.67-4.09,4.09-4.08q251.91.15,503.83,0c3.41,0,4.08.67,4.08,4.08q-.16,251.93,0,503.83c0,3.42-.67,4.09-4.08,4.09q-251.92-.17-503.83,0c-3.42,0-4.1-.67-4.09-4.09.15-45.23.1-90.46.1-135.68,2.41-1.65,5.05-1.32,7.71-.94,12.83,1.81,25.72,3.42,38.44,5.84,11.33,2.16,22.49,1.37,33.74.27,21-2.06,42-3.68,63-5.67q24.8-2.36,49.62-4.54c20-1.72,40-3.57,60-5.39,21-1.91,42-3.68,63-5.65,16.37-1.53,32.76-2.93,49.14-4.36,20.35-1.78,40.68-3.75,61-5.52,16.55-1.44,33.08-3,49.63-4.41,7.94-.65,8.95-1.52,9.16-9.57.15-5.67.87-6.52,6.43-7.42a22.43,22.43,0,0,0,5.31-1.31c3.22-1.37,4.22-4.06,4.16-7.28s-2-4.76-4.78-5.62c-3-.93-6.21-1.1-9.29-1.81-3.36-.77-5.09-2.72-4.71-5.95,1.29-11.26.13-22.59,1.2-33.85a49.89,49.89,0,0,0,.5-6.45c-.54-15,1.4-29.87,1.13-44.84-.14-7.8,1.84-9.66,9.5-10.46,1.16-.13,2.33-.1,3.49-.18,5.44-.36,7.39-2,7.71-6.5.36-5.11-1.65-7.65-6.89-8.5-9.84-1.61-19.77-2.62-29.65-4-1.15-.16-2.32-.21-3.46-.43-6.9-1.31-8-2.67-7.58-9.7,0-.5.06-1,.12-1.49,1.21-10.31,1.31-10.28,11.71-11.51,4.29-.51,8.64-.55,12.87-1.44,5.3-1.12,7.34-3.8,7.12-9.13-.18-4.29-2.27-6.42-7.44-7.1-19.61-2.56-39.18-5.4-58.85-7.46-8.76-.92-17.55.94-26.3,1.73-21,1.9-42,3.63-63,5.62-16.53,1.57-33.07,3.12-49.62,4.54q-30,2.6-60,5.39c-20.84,1.91-41.69,3.7-62.53,5.58-20.35,1.83-40.69,3.74-61,5.46-20,1.7-40,3.61-60,5.45-11.74,1.07-23.49,2.15-35.24,3.08A5.73,5.73,0,0,1,4.29,180.34Z" transform="translate(-4.19 -5.65)"/><path d="M4.29,180.34q41.7-3.71,83.4-7.4,47.41-4.24,94.81-8.56l106.23-9.57q46.9-4.22,93.82-8.4c10.26-.92,20.56-1.52,30.75-2.94,11.93-1.66,23.5.62,35.16,2.05,14.17,1.73,28.33,3.67,42.48,5.57,4.53.61,6.7,3.68,5.95,8.29-.19,1.14-.74,2.21-.93,3.35-1.33,8.19-1.31,8.27-9.64,9.24-5.77.67-11.57,1.17-17.36,1.62-2.72.21-4,1.08-4.15,4.18-.72,12.1-.87,12.17,11.16,13.79,10.2,1.38,20.42,2.68,30.65,3.77,4.09.44,6.32,1.67,5.59,6.36-.66,4.22,1.55,9.7-1.06,12.52s-8.18.9-12.43,1.36c-7.81.85-7-.93-7.31,7.63-1.05,28.06-1.91,56.14-3,84.21-.12,3.26.47,4.87,4,5.07,3.8.21,7.56,1.23,11.36,1.42,3.09.16,4.13,1.74,4.11,4.38,0,3.81-.29,7.62-.39,11.43-.06,2.14-1.52,2.19-3.09,2.32-3,.24-6,.93-8.92.78-3.7-.19-4.58,1.53-4.24,4.68.1,1,.06,2,.23,3,1.45,8.32,1.47,8.44-6.76,9.18Q426.4,354.88,368.06,360c-38.88,3.49-77.76,7.09-116.64,10.58S173.64,377.48,134.76,381c-20.36,1.82-40.73,3.47-61,5.68-11,1.2-21.5-1.16-32.13-2.77-12.45-1.89-25-3.19-37.3-6v-20c2.54-3,6.3-2.64,9.63-3.31,6-1.2,7.06-2.3,8-8.36a103.24,103.24,0,0,0,.92-14.38c.18-23.72,1.61-47.4,2.27-71.1.4-14.74.86-29.49,1.6-44.23.46-9-.87-10-9.91-11.42-4.33-.66-9.13.13-12.46-3.83Z" transform="translate(-4.19 -5.65)"/><path class="cls-1" d="M4.29,201.29c6.94.7,13.86,1.56,20.81,2.05,3.37.23,4.47,1.41,4.34,4.88C28.12,243.9,27,279.6,25.75,315.29c-.42,12.28-1,24.56-1.28,36.85-.07,2.92-.9,4.14-3.85,4.3-5.46.29-10.82,1.74-16.33,1.48Z" transform="translate(-4.19 -5.65)"/><path class="cls-1" d="M403,329.54c-7.85.76-15.69,1.56-23.55,2.28q-93.06,8.48-186.14,16.91-74.2,6.72-148.43,13.37c-2.75.25-4.62.57-4.49-3.48q2.31-73.26,4.19-146.54c.13-4.93,1.3-6.19,6.23-5.07,19.89,4.54,39.7.43,59.49-1.2,31.3-2.59,62.55-5.64,93.82-8.48,9.27-.84,18.57-1.4,27.79-2.58,4-.51,4.78.47,4.61,4.28-.84,19.1-1.31,38.21-2.16,57.31-.17,3.9.56,6.09,4.89,5.83,3.26-.2,4.29,1.49,4.15,4.62-.22,4.81-.25,9.64-.05,14.45.14,3.36-.89,4.92-4.45,4.8-4.15-.14-8.31.23-12.46.09-2.12-.07-3.14.48-3,2.66a2.89,2.89,0,0,1,0,.5c-2,15.12-1.92,14.88,13.21,16.86,41,5.37,82,11,123,16.47q21.69,2.89,43.39,5.76Z" transform="translate(-4.19 -5.65)"/><path class="cls-1" d="M474.2,265.59c0,15-.09,29.9.06,44.85,0,3.58-.54,4.86-4.67,4.29C421.08,308,372.54,301.53,324,295c-21.88-3-43.75-6-65.64-8.87-2.12-.28-3.4-.85-3.36-3.29.11-5.31.09-10.63.07-15.95,0-2,.65-3.19,2.92-2.85a22.62,22.62,0,0,0,2.48.14c10,.56,9.95.56,10.18-9.81.32-14.29.77-28.57,1.05-42.86.05-2.86.33-4.49,4-4.47,6.06,0,10.49-3.17,12.43-9,.92-2.76,2-3.41,4.92-3,30.75,4.32,61.51,8.44,92.27,12.65q37.76,5.18,75.49,10.44a34.91,34.91,0,0,0,11.39-.75c3.65-.7,5.25,0,5,4.37-.75,14.6-1.07,29.23-1.56,43.84Z" transform="translate(-4.19 -5.65)"/><path class="cls-2" d="M67.27,186.46q42.92-3.78,85.82-7.55,47.37-4.23,94.73-8.54L354,160.8c23.15-2.09,46.29-4.26,69.44-6.19,3.25-.28,6.59.58,9.88.91.62.41,1.54.66,1,1.74q-61.56,5.44-123.14,10.89-82.9,7.24-165.84,14.37c-24.16,2.11-48.32,4.38-72.49,6.39-3.42.29-6.93-.46-10.4-.73C63.12,185.1,65.92,187.83,67.27,186.46Z" transform="translate(-4.19 -5.65)"/><path class="cls-2" d="M397.91,180.37q26-2.49,52-5c2.31-.22,3.15.42,3.22,2.93.33,10.26.41,10.38-9.93,9-15.13-2-30.23-4.13-45.34-6.2Z" transform="translate(-4.19 -5.65)"/><path class="cls-3" d="M251.09,228.24c0-6.79-.05-13.58,0-20.37,0-1.67-.48-3.8,2.55-3.73,2.69.06,2.76,1.6,2.7,3.61-.37,13.41-.67,26.82-1.06,40.23-.05,1.68.46,3.85-2.65,3.56-2.82-.27-2.38-2.12-2.37-3.93,0-6.46,0-12.91,0-19.37Z" transform="translate(-4.19 -5.65)"/><path class="cls-4" d="M260.9,193c5-2.26,9.42-1,13.75-.61,1.05.1,2.61.09,2.16,1.83-.38,1.48-2,1.41-2.9,1C270,193.66,265.78,193.5,260.9,193Z" transform="translate(-4.19 -5.65)"/><path class="cls-5" d="M67.27,186.46l-4.91,1.72-2.27.1A7.93,7.93,0,0,1,67.27,186.46Z" transform="translate(-4.19 -5.65)"/><path class="cls-6" d="M434.23,157.26l-1-1.74,2.92.09c.56.64,2.5-.39,1.92,1.6Z" transform="translate(-4.19 -5.65)"/><path class="cls-7" d="M438.11,157.21l-1.92-1.6a6.57,6.57,0,0,1,4.35,1.07C439.84,157.69,438.94,157.33,438.11,157.21Z" transform="translate(-4.19 -5.65)"/></svg>