<svg id="Layer_6" data-name="Layer 6" xmlns="http://www.w3.org/2000/svg" viewBox="0 0 512 512"><defs><style>.cls-1{fill:#fefefe;}</style></defs><title>2d frame</title><path class="cls-1" d="M253,511.91q-125.92,0-251.84.09c-3.31,0-4.15-.51-4.14-4q.16-251.85,0-503.7C-3,.45-2,0,1.43,0Q253,.15,504.61,0c3.46,0,4.4.54,4.4,4.28q-.19,251.61,0,503.21c0,3.92-1.06,4.51-4.66,4.51Q378.67,511.84,253,511.91Z" transform="translate(2.99 0)"/><path d="M77.74,386.64c-4.57-1.34-7.54-3.67-6.56-8.33S75.81,372.79,80,373c4.82.19,9.67-.17,14.46.22,4,.33,5-1.18,5-5,0-29,.34-58,.37-87q.12-100.45,0-200.9c0-4.75.73-6.42,6.07-6.4q82.29.36,164.59,0c4.64,0,6.1.88,6.08,5.88-.21,45.31,0,90.62-.2,135.94,0,4.36,1,5.5,5.42,5.5,49.54,0,99.09.23,148.63.41,9.41,0,10.66,1.45,9.66,10.75a30,30,0,0,0-.08,3c-.28,44.14-.49,88.29-1,132.43,0,4.42,1.09,5.85,5.48,5.57,4.79-.31,9.63.12,14.45.17,3.14,0,5.58,1.27,6.68,4.25s.13,5.43-2.17,7.62c-4.91,4.66-7.33,11-11,16.55-3.09,4.73-5.85,9.68-8.86,14.47-.72,1.15-1.31,3.52-3,2.57s0-2.67.73-3.82c4.86-8.14,9.82-16.22,14.71-24.34.65-1.09,1.73-2,1.5-4.26-7.21,0-14.45.05-21.68,0-2.35,0-3,1.67-4,3.21-5.27,8.67-10.49,17.37-15.86,26-.83,1.33-1.29,4.38-3.48,3.06-1.72-1,.46-2.92,1.23-4.22,4.59-7.72,9.29-15.38,13.94-23.06.84-1.4,1.6-2.85,3-5.36-7.65,0-14.41,0-21.18,0-2.3,0-2.85,2-3.77,3.53-5.47,8.94-10.88,17.91-16.38,26.83-.69,1.13-1.21,3.54-3,2.41s.16-2.69.86-3.85q7.71-12.84,15.54-25.6c1.14-1.84,2-3.15-.77-4.6s-3.61-4.36-2.59-7.36A6.36,6.36,0,0,1,406,373c5.48,0,11-.08,16.45.14,2.86.11,3.66-.89,3.67-3.7q.26-65.47.74-130.94c0-2.92-1-3.64-3.77-3.64q-71.07-.12-142.14-.47c-4.34,0-3.78,2.54-3.8,5.19q-.32,53-.64,105.95c0,7.33.31,14.69-.2,22-.35,5.05,1.47,6.32,6.09,5.95,4-.32,8,.1,12,.14,3.13,0,5.56,1.26,6.68,4.24s0,5.34-2.13,7.64c-5.41,5.73-8.49,13-12.73,19.57-2.54,3.91-4.83,8-7.31,11.91-.64,1-1.21,3-2.76,2.11s-.1-2.39.52-3.42c5-8.42,10.17-16.79,15.23-25.2.57-.94,1.58-1.76,1.08-3.81-7.1,0-14.34.05-21.59,0-2.35,0-3,1.73-3.93,3.26-5.45,9-10.86,17.93-16.35,26.86-.68,1.12-1.25,3.37-3.06,2.15-1.42-1,.18-2.41.8-3.45,4.79-8,9.66-15.93,14.49-23.89.84-1.39,1.61-2.8,3.06-5.33-7.8,0-14.57,0-21.34,0-2.07,0-2.63,1.79-3.47,3.16-5.55,9.09-11.06,18.2-16.63,27.27-.69,1.13-1.2,3.39-3,2.24-1.39-.89.1-2.4.75-3.47q7.73-12.82,15.53-25.59c1.17-1.9,2.49-3.35-.7-4.92-2.83-1.39-3.58-4.37-2.56-7.35a6.35,6.35,0,0,1,6.45-4.57c6,0,12-.09,18,.16,3.12.13,3.94-1,3.94-4q.18-65.22.56-130.44c0-2.73-.67-3.76-3.59-3.76q-71.58.12-143.14,0c-4.46,0-3.75,2.57-3.76,5.13q-.26,48.22-.49,96.45c0,10.66.12,21.33-.23,32-.13,4.09,1.29,5.13,5.06,5a123.43,123.43,0,0,1,13.46.23c6.06.38,8.55,5.4,5.39,10.61q-9.86,16.2-19.79,32.35c-.68,1.1-1.13,3.54-3,2.43s.14-2.63.79-3.72c5.49-9.25,11.09-18.44,17.26-28.64-8.41,0-15.81,0-23.21,0-2.31,0-2.83,2.08-3.74,3.57-5.39,8.8-10.68,17.65-16.11,26.42-.66,1.07-1.1,3.55-3,2.32s.22-2.64.88-3.75c5-8.43,10.07-16.84,15.26-25.17,1.72-2.77,1.31-3.87-2-3.62a4.17,4.17,0,0,1-.5,0c-6,0-12.75-1.79-17.7.46-4.79,2.18-6.51,9.27-9.6,14.18-3.29,5.2-6.38,10.53-9.62,15.76-.64,1-1.25,3.1-2.72,2.25-2-1.15,0-2.65.61-3.76C66,405.94,71.7,396.59,77.74,386.64Z" transform="translate(2.99 0)"/><path class="cls-1" d="M188.05,222c-23.21,0-46.43-.08-69.64.08-3.57,0-4.84-.71-4.83-4.6q.23-62.93,0-125.86c0-3.82,1.13-4.66,4.78-4.65q69.78.18,139.56,0c3.77,0,4.65,1,4.64,4.7q-.19,62.93,0,125.86c0,3.92-1.25,4.58-4.79,4.56C234.54,221.94,211.3,222,188.05,222Z" transform="translate(2.99 0)"/></svg>