<svg id="Layer_7" data-name="Layer 7" xmlns="http://www.w3.org/2000/svg" viewBox="0 0 512 512"><defs><style>.cls-1{fill:#fefefe;}.cls-2{fill:#070707;}.cls-3{fill:#060606;}.cls-4{fill:#fdfdfd;}</style></defs><title>3d frame</title><path class="cls-1" d="M259.35.1q126,0,251.92-.1c3.41,0,4.09.67,4.08,4.09q-.15,251.91,0,503.82c0,3.42-.67,4.09-4.08,4.09q-251.91-.17-503.83,0c-3.42,0-4.09-.67-4.09-4.09Q3.51,256,3.35,4.09C3.35.67,4,0,7.44,0Q133.4.18,259.35.1Z" transform="translate(-3.35)"/><path d="M172.8,371.93c.39,1.89-1,3.1-1.82,4.47q-9.33,16.23-18.82,32.35c-.77,1.31-1.35,3.92-3.3,2.86s-.07-2.94.67-4.23c6-10.53,12.18-21,18.27-31.51.81-1.39,1.51-2.84,2.32-4.38-9.16,0-17.9.05-26.64,0-2.18,0-2.68,1.52-3.51,3-6.5,11.23-13,22.46-19.61,33.62-.88,1.47-1.35,4.78-3.78,3.39-1.94-1.12.33-3.26,1.16-4.71q8.92-15.58,18-31.07c1.4-2.39,2.4-3.91-1.87-4.06a7.52,7.52,0,0,1-7.58-7.67c.07-4.19,3.31-7.31,8.3-7.55,5.81-.27,11.64-.39,17.46-.3,2.88.05,4.06-.62,4.08-3.84.06-10.66.41-21.32.83-32,.12-3-.33-4.47-3.91-4.42-12.3.2-24.61.12-36.91-.05-3,0-4,.85-4,3.92q-1.17,52.71-2.65,105.41c-.09,3.25,1,4,3.94,3.84,5.81-.28,11.64-.31,17.45-.34,5.39,0,8.84,2.75,9.08,7.14s-3,7.78-8.29,8c-2.54.1-3.8,1.08-5,3.17-5.68,10-11.51,19.86-17.29,29.78-.42.72-.79,1.47-1.24,2.16-.7,1.05-1.22,2.83-2.89,1.91-1.84-1-.3-2.38.26-3.37,5.38-9.37,10.85-18.7,16.28-28,.9-1.55,1.69-3.15,2.76-5.14-6.59,0-12.66,0-18.73,0-2.56,0-3.26,2-4.24,3.66q-8.17,14-16.31,28c-.58,1-1.16,2-1.77,3s-1.31,2.76-2.91,1.78c-1.25-.77-.36-2.08.21-3.09s1.14-2,1.72-3c5.19-8.91,10.33-17.85,15.59-26.72,1.44-2.44,1.38-3.5-1.86-3.38-7.47.26-15,.43-22.44.4-2.47,0-3.47,1.3-4.52,3.11Q61,462.45,52.55,476.88c-.58,1-1.15,2-1.77,3s-1.37,1.54-2.46.81c-.89-.6-.54-1.44-.14-2.2.54-1,1.11-2,1.7-3,5.26-9.07,10.49-18.15,15.8-27.18,1.11-1.87,1.92-3.08-.88-4.46-3.62-1.77-4.53-5.3-3.33-9s4-5,7.74-5.07c7.15-.08,14.29-.46,21.44-.49,2.75,0,3.67-.87,3.73-3.7q1.29-54.19,2.78-108.41a8.07,8.07,0,0,0-1.23-5.2,6,6,0,0,1-.45-6.66c2.13-3.25,1.74-6.65,1.69-10.09q-.6-48-1.24-95.94a12.37,12.37,0,0,0-.09-3c-3.21-11.38,2.52-19.42,9.21-27.77,16.85-21,33.12-42.54,49.53-63.94a10.31,10.31,0,0,1,8.91-4.42q68.08.51,136.17,1c6.79,0,10,4.62,7.72,11.06a17.66,17.66,0,0,0-.69,6.37c.37,32.82.86,65.63,1.08,98.45,0,4.14,1.21,5.25,5.27,5.34,49,1.09,98.07,2.37,147.1,3.57,9.81.24,12.82,3.36,12.58,13-.92,37.3-1.74,74.61-2.74,111.91-.09,3.51.8,4.65,4.37,4.47,7-.34,14-.3,20.94-.32,5.37,0,8.75,2.82,8.92,7.28.17,4.63-3.28,7.75-8.89,7.83s-10.95,0-16.42,0c-6.85.82-13.73.44-20.61.46-2,0-4-.33-5.87.31-5.32.13-10.64.3-15.95.35a4.41,4.41,0,0,0-4.54,2.69c-6.52,11.79-13.41,23.37-20.23,35-.76,1.29-1.29,3.92-3.31,2.78s0-2.94.73-4.2q9.56-16.66,19.3-33.23c1.11-1.89,1.74-3.17-.59-4.86-2.89-2.1-3.23-5.42-2-8.6a7.26,7.26,0,0,1,7.05-4.67c6-.12,12-.22,18-.22,2.27,0,3.72-.32,3.79-3.19q1.2-50.17,2.59-100.36c-2-.36-2.43,1.21-3.22,2.1-15.16,17-30.25,34.12-45.44,51.13a10.89,10.89,0,0,0-3.07,7.54q-1.25,55.21-2.82,110.41c-.13,4.35.74,6,5.33,5.49a117.94,117.94,0,0,1,14-.33c4.73.05,7.95,2.82,8.32,6.89a7.53,7.53,0,0,1-7,8.16c-2.56.28-3.73,1.44-4.88,3.45q-8.91,15.58-18.05,31.06c-.72,1.23-1.26,3.85-3.4,2.4-1.59-1.08.14-2.73.82-3.92,6.12-10.64,12.3-21.24,18.82-32.47-6.82,0-13,0-19.23,0-2.35,0-2.92,1.91-3.81,3.44Q385,462.26,376.49,477c-.59,1-1.19,2-1.8,3s-1.42,1.47-2.46.76c-.88-.61-.52-1.46-.12-2.21.64-1.17,1.31-2.32,2-3.47L391.53,445c-9.49,0-18.52,0-27.56,0-1.84,0-2.16,1.88-2.87,3.1-5.73,9.76-11.39,19.55-17.08,29.32a19.3,19.3,0,0,1-1.87,2.94,2,2,0,0,1-1.75.5c-1-.31-.93-1.31-.59-2.07.56-1.21,1.26-2.34,1.93-3.49,5.67-9.78,11.35-19.55,16.94-29.18-.31-1.63-1.62-1.18-2.41-1.55-3.8-1.82-5.56-4.78-4.67-8.91.85-3.93,3.59-5.76,7.59-5.85,8.14-.19,16.28-.54,24.43-.58,2.92,0,4-.75,4-3.91q1.17-52.2,2.71-104.41c.1-3.68-1.23-4.43-4.54-4.43q-37.67,0-75.32-.35c-3.8,0-4.76,1.17-4.76,4.82,0,9.82-.28,19.65-.74,29.47-.15,3.41.6,4.75,4.28,4.53,7.3-.43,14.63-.39,21.94-.63,4.33-.14,8.14.75,9.46,5.45,1.2,4.25-.37,7.55-4.54,9.31-1.8.77-2.06,2.5-2.78,3.94-5.82,11.77-11.57,23.58-17.44,35.33-.72,1.43-1,4.43-3.39,3.2-2-1,0-3,.67-4.32,5.35-11.08,10.71-22.16,16.29-33.12,1.81-3.56,1.21-4.6-2.76-4.34-5.46.37-12-1.41-16.11,1.05-3.86,2.32-5.18,8.92-7.53,13.68-4.07,8.19-8,16.42-12.12,24.61-.6,1.2-.9,3.51-2.89,2.52s-.34-2.65.23-3.85c5.22-10.77,10.53-21.5,15.76-32.27.77-1.59,2.1-3,1.84-4.75-8.88,0-17.64,0-26.41,0-2.46,0-2.83,2-3.6,3.58q-8.16,16.56-16.24,33.15c-.51,1-1.07,2.06-1.6,3.1s-1.24,1.74-2.34,1.09S255,410,255.5,409c2.28-4.63,4.53-9.27,6.79-13.9,3.85-7.89,7.71-15.78,11.74-24a42.38,42.38,0,0,1-5.41-.38c-4.08-.87-6.57-3.53-6.43-7.7s2.46-7,6.78-7.26c5.8-.39,11.63-.55,17.44-.57,2.53,0,3.44-.77,3.48-3.41.15-10.5.42-21,.89-31.47.15-3.29-.83-4.3-4.12-4.25q-16.21.24-32.42-.08c-3.44-.08-4.49.86-4.56,4.39-.49,25.48-1.2,51-1.86,76.44-.22,8.66-.31,17.33-.86,26-.25,4.05.66,5.62,5,5.3,6.29-.45,12.63-.31,18.95-.29,5.05,0,8.26,2.84,8.44,7.21s-2.91,7.73-7.84,7.8c-2.88,0-4.07,1.43-5.29,3.55-5.71,9.95-11.5,19.86-17.27,29.79-.5.86-1,1.74-1.51,2.58-.69,1.07-1.33,2.93-2.85,2.07-1.93-1.11-.22-2.62.38-3.82.9-1.78,2-3.47,3-5.19l16.43-28.28c-6.9,0-13.13,0-19.35,0-2.32,0-2.86,2-3.75,3.54q-8.7,14.85-17.32,29.76c-.58,1-1.19,2-1.78,3s-1.38,1.6-2.43.94-.55-1.72-.05-2.58l9-15.55c3-5.18,5.92-10.42,9.06-15.51,2-3.24.47-3.5-2.31-3.43-7,.18-14,.37-20.95.22-3-.06-4.41,1.26-5.77,3.65-5.66,10-11.49,19.87-17.26,29.79a22.9,22.9,0,0,1-1.82,3c-.53.66-1.45,1.07-2.15.33a2,2,0,0,1-.3-1.77,21.16,21.16,0,0,1,1.65-3.07q8.13-14,16.29-28.05c1.1-1.88,2.45-3.3-.86-4.75s-4.55-4.74-3.57-8.41,3.52-5.56,7.27-5.66c6.65-.18,13.3-.36,20-.32,3,0,3.92-1,4-4.07q1.16-52.2,2.62-104.41c.09-3.39-.93-4.2-4.17-4.18q-27.18.16-54.36-.08c-3,0-4,.75-4,3.88q-.12,15.74-.83,31.47c-.16,3.45.71,4.72,4.35,4.5,7.13-.44,14.28-.57,21.43-.59,5,0,8.18,3,8.3,7.39s-2.5,7.1-7.81,7.56c-6.85.84-13.73,0-20.59.4C175.46,370.58,173.42,369.41,172.8,371.93Z" transform="translate(-3.35)"/><path class="cls-2" d="M172.8,371.93c.23-2.66,2.35-1.92,3.79-1.93,7-.05,13.91.05,20.86.1a8.12,8.12,0,0,1-1.37,5.59c-6.47,11-12.81,22.07-19.29,33.06-.74,1.26-1.26,4-3.23,2.88-2.37-1.34,0-3.22.75-4.58,6-10.51,12.11-20.94,18.18-31.4.81-1.4,1.57-2.82,2.81-5C187.26,371.25,180,369.65,172.8,371.93Z" transform="translate(-3.35)"/><path class="cls-2" d="M452.42,370.79c8.78-1.77,17.65-.54,26.48-.77-.47.13-1,.47-1.42.38-9.92-2.08-14.26,3.79-18.17,11.68-4.64,9.36-10.36,18.18-15.66,27.21-.69,1.16-1.17,3.4-3.08,2.34s-.2-2.65.45-3.79c6.12-10.66,12.32-21.28,18.48-31.92.81-1.41,1.55-2.85,2.79-5.13Z" transform="translate(-3.35)"/><path class="cls-3" d="M489.36,372.69c-.35.7-.73,1.61-1.22,2.46q-9.88,17-19.82,34c-.69,1.17-1.22,3.4-3.07,2.49-2-1-.35-2.64.3-3.78q10.09-17.49,20.3-34.9c.55-.94.89-2.3,2.44-2.06C489.1,371.06,489.2,371.78,489.36,372.69Z" transform="translate(-3.35)"/><path class="cls-1" d="M445.26,241.22c-14.48,16.35-29,31.52-42,47.87-7.61,9.55-15.75,13-27.84,12.34-21.39-1.11-42.87-.47-64.3-.33-3.75,0-4.75-1-4.62-4.72.6-18.14.95-36.29,1.26-54.44.05-3,.53-4.47,4.09-4.38q65.3,1.74,130.59,3.24C443.06,240.82,443.69,241,445.26,241.22Z" transform="translate(-3.35)"/><path class="cls-1" d="M285,116.82c-7.29,9.45-14.27,18.51-21.27,27.56-7.83,10.12-15.74,20.19-23.47,30.4-1.85,2.45-3.74,3.68-7,3.64q-27.66-.37-55.31-.27c-3.54,0-4.42-1.12-4.44-4.51-.07-18-.32-35.94-.63-53.92-.05-2.81.41-4.18,3.73-4.16,35.55.31,71.09.47,106.64.69A8.83,8.83,0,0,1,285,116.82Z" transform="translate(-3.35)"/><path class="cls-1" d="M234.69,268.41c0,9.49-.1,19,.06,28.47.05,2.95-.64,4.1-3.84,4.07q-27.18-.29-54.35-.14c-3.15,0-3.93-1.13-3.84-4.1q.83-29.46,1.34-58.93c.05-3,1.16-3.61,3.87-3.53q26.16.84,52.33,1.4c2.81,0,3.7,1,3.66,3.79-.14,9.66,0,19.32,0,29Z" transform="translate(-3.35)"/><path class="cls-1" d="M112.39,283.12c-.08-1-.18-1.77-.19-2.54-.37-27.64-.66-55.27-1.16-82.91-.07-3.64.72-4.84,4.59-4.75q19.17.45,38.38.13c3.83-.06,4.91,1.21,4.76,4.83-.19,4.48.12,9,.14,13.48,0,3.88,1,8-3.22,10.74a3.2,3.2,0,0,0-1.18,2.64c.93,5.79-3.2,9.08-6.15,12.92q-16,20.78-32.05,41.44C115.25,280.46,114.51,282.22,112.39,283.12Z" transform="translate(-3.35)"/><path class="cls-1" d="M292.75,135.05q0,41.92,0,83.85c0,2-.46,3.06-2.76,3q-19.18-.57-38.37-.93c-2.19,0-2.84-.93-2.85-3-.05-8.82-.2-17.65-.31-26.47a7.79,7.79,0,0,1,1.88-5q19.56-25.23,39.11-50.49a11.12,11.12,0,0,1,1.36-1.29Z" transform="translate(-3.35)"/><path class="cls-1" d="M203.55,193.74c8.62,0,17.25.07,25.88-.05,2.7,0,3.84.71,3.81,3.62-.06,6.32.11,12.64.4,18.95.13,2.92-.6,4.15-3.82,4.06-17.41-.53-34.83-.9-52.25-1.22-2.42,0-3.59-.56-3.53-3.31q.19-9.48-.15-18.95c-.11-3,1.06-3.65,3.78-3.61,8.62.13,17.25.05,25.88.05Z" transform="translate(-3.35)"/><path class="cls-1" d="M118,176.92c13-16.76,25.83-33.37,38.68-50l1.21.22c0,2.89,0,5.77,0,8.66q.17,19.19.35,38.38c0,2.06.26,3.91-2.9,3.86-11.93-.2-23.87-.18-35.81-.28C119.15,177.76,118.76,177.34,118,176.92Z" transform="translate(-3.35)"/><path class="cls-4" d="M118.92,300.67l38.26-49.43c1.48.38,1.3,1.32,1.28,2.08q-.53,21.68-1.09,43.34c-.05,2,.28,4.06-2.87,4C143.11,300.61,131.73,300.67,118.92,300.67Z" transform="translate(-3.35)"/><path class="cls-1" d="M291.15,253.7c0,15.05,0,29.79,0,44.53,0,2.19-.95,2.79-3,2.78-10.76-.07-21.52,0-33.56,0Z" transform="translate(-3.35)"/><path class="cls-1" d="M284.17,237.81q-16.76,21.63-33.49,43.27l-1.68-.34c0-14,0-28.07,0-42.1,0-1.95.8-2.58,2.67-2.57,10.7,0,21.4,0,32.1,0Z" transform="translate(-3.35)"/></svg>