<svg id="Layer_8" data-name="Layer 8" xmlns="http://www.w3.org/2000/svg" viewBox="0 0 512 512"><defs><style>.cls-1{fill:#fefefe;}.cls-2{fill:#b2b2b2;}.cls-3{fill:#4c4c4c;}.cls-4{fill:#3a3a3a;}.cls-5{fill:#b9b9b9;}.cls-6{fill:#3b3b3b;}.cls-7{fill:#141414;}.cls-8{fill:#434343;}.cls-9{fill:#181818;}.cls-10{fill:#171717;}.cls-11{fill:#4f4f4f;}.cls-12{fill:#525252;}.cls-13{fill:#363636;}.cls-14{fill:#191919;}.cls-15{fill:#3e3e3e;}.cls-16{fill:#1b1b1b;}.cls-17{fill:#202020;}.cls-18{fill:#4e4e4e;}.cls-19{fill:#1f1f1f;}.cls-20{fill:#161616;}.cls-21{fill:#474747;}.cls-22{fill:#212121;}.cls-23{fill:#464646;}.cls-24{fill:#151515;}</style></defs><title>beam column</title><path class="cls-1" d="M255.45,511.91q-125.65,0-251.32.09C.73,512,0,511.36,0,507.92Q.19,256.07,0,4.23C0,.31,1.19,0,4.48,0Q256.06.14,507.63,0c3.58,0,4.36.7,4.36,4.33q-.17,251.59,0,503.19c0,4-1.18,4.47-4.72,4.47Q381.37,511.83,255.45,511.91Z" transform="translate(0 0)"/><path d="M275,394.9c-.49,7.11-2.06,14.12-1.64,21.33.15,2.75.88,3.78,3.74,3.71,7.66-.17,15.33.14,23-.15,3.82-.14,6.14.88,8.53,4.15,6.5,8.84,13.67,17.19,20.52,25.78,1.06,1.33,3.3,3,1.41,4.61-2.32,2-3.38-.95-4.49-2.31-6.85-8.37-13.6-16.83-20.39-25.26-1.12-1.39-2-3-4.25-3-18.61,0-37.22,0-57.11,0,3.35,3.45,5.9,6.13,8.5,8.75,5.87,5.91,11.79,11.77,17.65,17.68,1.11,1.13,3,2.44,1.35,4.12s-3-.24-4.07-1.35c-8.86-8.81-17.67-17.66-26.52-26.46-1.14-1.14-2.05-2.7-4-2.7H193.9l22,21.94c1.65,1.64,3.31,3.29,4.93,4.95,1.08,1.11,2.25,2.45.67,3.8-1.29,1.1-2.46-.08-3.41-1L207.9,443.29q-9.18-9.19-18.35-18.39c-1-1-2.6-1.93-1.8-3.72s2.57-1.23,4-1.24c8.82-.05,17.65-.11,26.47,0,3.39.05,5.26-.72,5.1-4.68-.2-4.65.33-9.31.34-14q0-121.64-.09-243.28c0-4.64.88-6.24,5.9-6.1,14.47.39,29,.16,43.45.18,1.12,1.68.56,3.56.56,5.33q.06,37.13,0,74.24a25,25,0,0,0,1.64,10.21c.49,1.19,1.23,2.31,1,3.7a101.29,101.29,0,0,0-.66,12.92q0,55.08,0,110.16c0,6.5.08,13-.84,19.47A15.42,15.42,0,0,0,275,394.9Z" transform="translate(0 0)"/><path class="cls-2" d="M275,394.9c-.5.24-1.25,1.27-1.45.53a17.88,17.88,0,0,1-.14-4.46q0-68.28,0-136.56c0-3.14.3-6.28.46-9.42-.34-.79.06-1.81-.73-2.47q0-42,0-84c0-2.16-.14-4.32-.22-6.48,2,1.91,1.17,4.39,1.18,6.61q.09,38.93,0,77.94c1.85-.37,1.51-1.93,2.07-2.9a12.89,12.89,0,0,0,1.47-5c.6-1.69,1.22-3.36,1.78-5A6,6,0,0,1,281,220c-1.13-1.45-.12-2.82.16-4.22,1.4-1.37,1.07-3.37,1.85-5,.49-1.54.21-3.44,2-4.39-1.08-2.74,1-4.83,1.47-7.26.51-2.21.95-4.46,2.53-6.25-.78-5.94,2.9-10.72,4.21-16.11,1.31-1.27,1.19-3.4,2.74-4.52.09-1.19.19-2.38.28-3.57a32.89,32.89,0,0,0,3.24-6.93c1-2.47,2.28-4.8,3.48-7.18.95-.89,1.67-2.14,3.23-2.09,5,.6,9.75-1.5,14.71-1,9.11.61,18.22.5,27.34.52,1.3,0,3-.3,3.59,1.08s-.86,2.36-1.77,3.26c-2.23,2.21-4.3,4.57-6.61,6.71l-.61,2.06a11.18,11.18,0,0,0-3.38,3c-.36,2-2.7,2.77-3.1,4.78a7.38,7.38,0,0,0-2.17,3.78L332.13,179c-1.58,1.68-2.25,3.83-3.05,5.91l-1.05.56c-1.92,4.57-5.15,8.55-6,13.57l-2.22,5.25a53.85,53.85,0,0,0-4.58,11.94c-.51,1.74-.92,3.54-2.22,4.92,1.33,5.37-1.19,10-2.83,14.81-1.26,1.81-.22,4.44-2.15,6,0,.35,0,.7,0,1.05a16.44,16.44,0,0,1-1,6l0-.13c-1,1.88-.13,4.43-2,6,.54,1,1.54,1.88.25,3-1.43,1.74-.28,4.45-2.25,6,0,.35,0,.71,0,1.06-.32,2.05-.24,4.17-1,6.15l-.06,2.94c-1.43,1.77-1.05,4.12-1.94,6.07l-.06,2.92c-1.43,1.77-1.05,4.13-1.94,6.07l-.06,2.93c-1.53,2.37-1.47,5.15-2,7.78,0,.41,0,.81,0,1.21-2.22,2.16-.61,5.74-2.92,7.86,1.8,2.08-.08,4.11-.09,6.16-1.8,1.66-1,4.14-1.92,6.07,0,1-.05,1.94-.07,2.91-1.43,1.78-1.05,4.12-1.93,6.07l-.06,2.92c-1.42,1.56-1.5,3.49-1.52,5.44-1.3,1.68-.44,3.9-1.42,5.65l-.07,2.92c-1.83,2.29-.77,5.67-2.91,7.85,1.8,2.07-.08,4.09-.09,6.14-1.8,1.67-1,4.16-1.93,6.11l-.06,2.88c-1.41,1.56-1.5,3.49-1.52,5.44-1.3,1.67-.44,3.89-1.42,5.64l-.06,2.92a10.26,10.26,0,0,0-1.51,5.42c-1.28,1.64-.45,3.81-1.41,5.53Z" transform="translate(0 0)"/><path d="M310,150.18l-37.18-2.59,32.14-46c2.92,4.36,4.25,8.92,6.12,13.19.9,2.06,1.89,2.63,4.17,2,13.37-4,25.66-10,36.32-19.18,19.67-16.88,18.9-37.4-2.19-52.51-14.17-10.15-30.61-14.31-47.49-16.93-6.57-1-13.23-1.42-19.85-2-4.89-.45-8-3.45-8-7.83a7.54,7.54,0,0,1,8.11-7.67c25.34,1.26,49.94,5.61,72.09,19,10.65,6.42,19,15.07,23.75,26.82,6.21,15.48,3.64,29.78-6.49,42.68-12.23,15.57-29,24.72-47,31.64-4.11,1.57-5.21,2.75-2.83,6.81,2.51,4.27,4.22,9,6.28,13.53-.85,1-2.06.92-3.22,1A44.57,44.57,0,0,1,310,150.18Z" transform="translate(0 0)"/><path d="M271.35,81.07,247,127.13,220.25,82.64c2.34-1.2,4.34-.63,6.25-.62,9.74,0,9.73,0,9.71-9.46-.05-19,0-38-.23-57,0-4.16.62-5.83,5.35-5.59,9.61.48,9.63.16,9.63,9.87,0,19,.13,38-.11,57,0,4.35,1.32,5.42,5.38,5C260.94,81.27,265.72,81.31,271.35,81.07Z" transform="translate(0 0)"/><path class="cls-3" d="M324.76,151.19l3.12-.14h26.6l.52,1.31c-4,3.45-6.67,8.18-11.56,10.75,1.73-3.63,5.25-5.83,8.35-10.23H320.9a.88.88,0,0,1,.1-1.13C322.21,151.24,323.59,151.91,324.76,151.19Z" transform="translate(0 0)"/><path class="cls-4" d="M313,221.16c2.16-5.66,2.24-12.16,6.8-16.86-1.59,5-3.21,10-4.76,15.08A2.11,2.11,0,0,1,313,221.16Z" transform="translate(0 0)"/><path class="cls-5" d="M324.76,151.19l-3.84,1c-2.69.49-5.38.93-8-.29l-3-1.68C315,149.6,319.8,151.23,324.76,151.19Z" transform="translate(0 0)"/><path class="cls-6" d="M322,199.05c0-5.42,3.18-9.42,6-13.57C327.32,190.58,324.08,194.56,322,199.05Z" transform="translate(0 0)"/><path class="cls-7" d="M312.91,151.86l8,.29c0,.24,0,.49,0,.73l-15.92.37c-.27-.25-.35-.49-.25-.72s.2-.33.3-.33Z" transform="translate(0 0)"/><path class="cls-8" d="M299.25,162.07c.08,2.71-.49,5.14-3,6.67.55-2.44,1-5,3.12-6.64Z" transform="translate(0 0)"/><path class="cls-9" d="M295.92,299.88c-.68-2.93-.38-5.62,2-7.78A27.5,27.5,0,0,1,295.92,299.88Z" transform="translate(0 0)"/><path class="cls-9" d="M283,354.94c1.16-2.55.11-5.92,2.91-7.85C285,349.72,286,353.07,283,354.94Z" transform="translate(0 0)"/><path class="cls-4" d="M299.25,162.07l.1,0c-.16-2.79,1.59-4.81,2.82-7a1,1,0,0,1,1.46.06C302.19,157.45,301.54,160.28,299.25,162.07Z" transform="translate(0 0)"/><path class="cls-4" d="M289,192.94,286.72,199h-.49C286.51,196.71,286,194,289,192.94Z" transform="translate(0 0)"/><path class="cls-10" d="M293,309c1.2-2.54.18-5.9,2.92-7.86C294.08,303.39,296.39,307.23,293,309Z" transform="translate(0 0)"/><path class="cls-11" d="M335.88,172.5a8.05,8.05,0,0,1,4.24-4.4h0l-4.14,6A1.13,1.13,0,0,1,335.88,172.5Z" transform="translate(0 0)"/><path class="cls-12" d="M296,172.31c-.68,1.65-.43,3.85-2.74,4.52C293.62,175,293.23,172.72,296,172.31Z" transform="translate(0 0)"/><path class="cls-13" d="M286.23,199h.49c-.57,2.47-1.15,4.94-1.72,7.42C282.89,203.55,285.34,201.42,286.23,199Z" transform="translate(0 0)"/><path class="cls-6" d="M279.86,224c-.45,1.74-.41,3.66-1.87,5l-.32.82-.41-.79a9.25,9.25,0,0,1,1.66-5C279.23,223.26,279.54,223.25,279.86,224Z" transform="translate(0 0)"/><path class="cls-9" d="M289,330.16c0-2.23-.46-4.6,1.93-6.07C290.48,326.18,290.57,328.44,289,330.16Z" transform="translate(0 0)"/><path class="cls-14" d="M298,289.17c0-2.23-.41-4.59,1.94-6.07C299.5,285.2,299.56,287.45,298,289.17Z" transform="translate(0 0)"/><path class="cls-15" d="M329.08,184.92c-.36-2.68.86-4.54,3.05-5.91A12.35,12.35,0,0,1,329.08,184.92Z" transform="translate(0 0)"/><path class="cls-14" d="M300,280.18c0-2.24-.41-4.59,1.94-6.07C301.5,276.2,301.56,278.45,300,280.18Z" transform="translate(0 0)"/><path class="cls-16" d="M307,249.07c-.39-2.14.37-4.08,1-6C309.31,245.31,308.32,247.22,307,249.07Z" transform="translate(0 0)"/><path class="cls-14" d="M302,271.17c-.35-2.16.35-4.15,1-6.15A6.48,6.48,0,0,1,302,271.17Z" transform="translate(0 0)"/><path class="cls-17" d="M277.26,229a2.54,2.54,0,0,0,.73,0,4.56,4.56,0,0,1-1.79,4.73Z" transform="translate(0 0)"/><path class="cls-10" d="M291,321.18c0-2.23-.5-4.61,1.92-6.07C292,317,292.56,319.45,291,321.18Z" transform="translate(0 0)"/><path class="cls-14" d="M308,242c.78-2,.56-4.31,2.15-6C309.63,238,310.85,240.74,308,242Z" transform="translate(0 0)"/><path class="cls-10" d="M286,344.17a10.41,10.41,0,0,1,1.08-6.2c.25-.69.51-.69.77,0C287.11,340,287.48,342.37,286,344.17Z" transform="translate(0 0)"/><path class="cls-9" d="M305,255c.86-2,.53-4.3,2-6C306.71,251.07,307.87,253.7,305,255Z" transform="translate(0 0)"/><path class="cls-17" d="M281,367.19c-.06-2.26-.55-4.65,1.93-6.11C282,363,282.57,365.45,281,367.19Z" transform="translate(0 0)"/><path class="cls-10" d="M278,381.15a10.53,10.53,0,0,1,1.08-6.19c.26-.7.51-.7.77,0C279.1,377,279.5,379.35,278,381.15Z" transform="translate(0 0)"/><path class="cls-10" d="M276,389c0-1.87-.12-3.78,1.88-4.88l-1.08,4.87C276.58,389.43,276.31,389.46,276,389Z" transform="translate(0 0)"/><path class="cls-17" d="M276,389h.8c-.58,2-.24,4.35-1.84,6.08A9.55,9.55,0,0,1,276,389Z" transform="translate(0 0)"/><path class="cls-9" d="M303,264c.76-2,.47-4.39,2.25-6C304.55,260,305.85,262.75,303,264Z" transform="translate(0 0)"/><path class="cls-18" d="M340.15,168.09h0c-.54-2.32.89-2.81,2.72-2.93C342.11,166.3,341.51,167.54,340.15,168.09Z" transform="translate(0 0)"/><path class="cls-19" d="M283,210.84c.22,2-.09,3.73-1.85,5C281.34,214,281.45,212.14,283,210.84Z" transform="translate(0 0)"/><path class="cls-20" d="M287.83,338h-.77c0-1.88-.11-3.77,1.86-4.89C288.55,334.71,288.19,336.34,287.83,338Z" transform="translate(0 0)"/><path class="cls-20" d="M279.83,375h-.77c0-1.88-.11-3.77,1.86-4.89C280.56,371.7,280.19,373.33,279.83,375Z" transform="translate(0 0)"/><path class="cls-21" d="M303.63,155.12l-1.46-.06c.73-1.19,1-2.79,2.86-2.86l0,1.05Z" transform="translate(0 0)"/><path class="cls-22" d="M279.86,224h-.94c.09-1.63-.12-3.43,2.07-4C280.62,221.34,280.24,222.66,279.86,224Z" transform="translate(0 0)"/><path class="cls-23" d="M335.88,172.5l.13,1.63-1.83,2.64C333.52,174.86,334.79,173.72,335.88,172.5Z" transform="translate(0 0)"/><path class="cls-24" d="M273.15,242.52c.68-.28.84-2,1.44-1.32,1.08,1.21-.22,2.54-.71,3.79Z" transform="translate(0 0)"/></svg>