<svg id="Layer_2" data-name="Layer 2" xmlns="http://www.w3.org/2000/svg" viewBox="0 0 512 512"><defs><style>.cls-1{fill:#fefefe;}.cls-2{fill:#b2b2b2;}.cls-3{fill:#0f0f0f;}.cls-4{fill:#3e3e3e;}.cls-5{fill:#383838;}.cls-6{fill:#3f3f3f;}.cls-7{fill:#252525;}.cls-8{fill:#404040;}.cls-9{fill:#1a1a1a;}.cls-10{fill:#3d3d3d;}.cls-11{fill:#636363;}.cls-12{fill:#4d4d4d;}.cls-13{fill:#4a4a4a;}.cls-14{fill:#161616;}.cls-15{fill:#3b3b3b;}.cls-16{fill:#424242;}.cls-17{fill:#1f1f1f;}.cls-18{fill:#393939;}.cls-19{fill:#343434;}.cls-20{fill:#363636;}.cls-21{fill:#434343;}.cls-22{fill:#1d1d1d;}.cls-23{fill:#444;}.cls-24{fill:#1b1b1b;}.cls-25{fill:#151515;}.cls-26{fill:#4b4b4b;}.cls-27{fill:#333;}.cls-28{fill:#3a3a3a;}.cls-29{fill:#313131;}.cls-30{fill:#454545;}.cls-31{fill:#171717;}.cls-32{fill:#555;}.cls-33{fill:#202020;}.cls-34{fill:#1e1e1e;}</style></defs><title>compression</title><path class="cls-1" d="M.11,252.18Q.11,126.24,0,.31c0-3.8,1-4.24,4.44-4.24q251.58.14,503.16,0c3.47,0,4.4.54,4.4,4.27q-.18,251.61,0,503.22c0,3.92-1.08,4.5-4.68,4.5q-251.32-.15-502.66,0C1,508.07,0,507.39,0,503.54Q.22,377.86.11,252.18Z" transform="translate(0 3.93)"/><path d="M274.21,413.28c-.12,3.1,2.29,1.77,3.55,1.79q12.24.18,24.48,0c2.38,0,3.66.65,5.21,2.7,6.72,8.88,13.86,17.44,20.85,26.12.73.91,1.49,1.8,2.17,2.74s1.13,2.22,0,3.11-2.19.26-3-.74q-3.15-3.87-6.28-7.75c-5.23-6.47-10.48-12.92-15.65-19.44-1.29-1.62-2.49-2.82-4.86-2.81-18,.11-36,.08-54,.11a11.87,11.87,0,0,0-2.19.64l22.93,22.69c1.3,1.29,2.6,2.58,3.87,3.9,1,1.05,1.66,2.36.34,3.45-1,.85-2.17.21-3.08-.7-3.52-3.54-7.07-7-10.61-10.58L241,421.58c-1.28-1.28-2.44-2.55-4.6-2.54-13.62.08-27.24,0-41,0-.06,2.33,1.67,3.06,2.73,4.14,7.37,7.45,14.83,14.83,22.23,22.25,1.13,1.14,3,2.5,1.24,4.12s-2.95-.37-4.06-1.47q-14-13.9-27.92-27.86c-1-1-2.66-2-2-3.69.79-2,2.83-1.37,4.4-1.38,9.16-.06,18.32-.13,27.48,0,3,0,4.41-.86,4.11-3.94-.09-1,0-2,0-3V156.39c0-8.59,0-8.59,8.82-8.59h13.8l-26.34-44c4.28,0,7.83-.25,11.32.07,3.86.36,5.11-.8,5.06-4.85-.26-20.61-.08-41.23-.35-61.85-.05-4.12,1-5.35,5.18-5.21,9.8.32,9.8.1,9.8,10.09,0,18.95.1,37.91-.08,56.86,0,3.73.87,4.92,4.73,4.59,4.91-.42,9.88-.1,15.4-.1L247.52,147.8c6.27,0,11.83.36,17.33-.1,5.28-.44,9.34.27,10.64,6.2-1.37,2.12-.17,4.3-.12,6.44.35,14.91-.35,29.83.64,44.74-.08,7.26-1.45,14.44-1.46,21.68q-.15,71.14-.05,142.3C274.34,383.8,274.83,398.54,274.21,413.28Z" transform="translate(0 3.93)"/><path class="cls-2" d="M273.93,204.69c-1.12-15.84-.28-31.69-.5-47.54,0-1.45-.15-3.13,2.06-3.25a1.29,1.29,0,0,1,1,1.82c2.2,1.82,3.73,4.37,6.28,5.83a.72.72,0,0,1,.24.68c.86,2.42,2.75,3.93,4.77,5.32a.76.76,0,0,1,.23.71,8,8,0,0,0,3.81,4.3.83.83,0,0,1,.19.74c.54,1.78,2,2.87,3.15,4.18.63,1.7,2,2.86,3.13,4.15.49,1.78,2.1,2.72,3.1,4.13a8.63,8.63,0,0,0,3.19,4c.57.77,1.13,1.55,1.69,2.32a7.2,7.2,0,0,0,2.14,3.76,4.55,4.55,0,0,0,2.46,2.75l1.29,2.29c.44,1.5,1,2.93,2.59,3.6.51.88,1,1.76,1.54,2.64.65,2.12,1.31,4.23,3.48,5.37,4.95,8.4,10.29,16.6,13.29,26a3.64,3.64,0,0,0,1.62,2.88,136.14,136.14,0,0,1,9.19,29.36c-.34,1.29-1,2.6.33,3.73a3.74,3.74,0,0,1,.67,3.26c-.85,3.13-.13,6.33-.43,9.48-.78,2.85-.42,5.75-.32,8.63l-.21,2.77c-1.94,2.9-.82,6.56-2.38,9.55.23,1.45-.72,2.71-.66,4.13,0,.45,0,.9,0,1.36a10.46,10.46,0,0,0-1.42,4.16c-.83,1.49-.85,3.3-1.84,4.72-.19,2.13-1.48,4-1.53,6.13a.8.8,0,0,1-.05.72c-2.18,2.79-3,6.24-4.54,9.35-1.71,3.67-3.43,7.33-5.49,10.82l-.37,1.18a24.62,24.62,0,0,0-3.41,5.82c-1.58,1.63-2.42,3.86-4.27,5.26.11,2.19-1.14,3.5-2.88,4.51-.58,1.88-2,3.29-2.75,5.09-.8,1.31-2.5,1.89-2.85,3.56-.94,1.78-3,2.78-3.46,4.91a.4.4,0,0,1-.09.54,10.3,10.3,0,0,0-3.9,4l.06-.12c-1.5,2.9-5.07,4.14-6,7.51-.51,1.75-2.31,2.37-3.3,3.7-4.59,3.56-8.25,8.09-12.52,12-1.16,1.06-1.87,2.8-3.8,2.85.42,1,0,1.64-1,1.94-3.46.26-1.84-2.41-1.86-3.67-.13-12.06-.07-24.12-.07-36.18-.06-3.06,1.79-5.56,2.58-8.38.39-.64.72-1.31,1.08-2,1.37-1.81,3.35-3.07,4.56-5,1-1.19,1.8-2.5,2.72-3.74.23-.41.49-.79.75-1.17a17.59,17.59,0,0,0,5.25-7.08c.9-1.53,1.59-3.17,2.36-4.77a8,8,0,0,1,.8-1.11c2.46-2.86,4.59-5.88,5.08-9.76a9.52,9.52,0,0,1,.49-1.29c1.63-2.15,1.73-4.84,2.55-7.27a25.06,25.06,0,0,0,1-3.21c.41-1.71,1-3.38,1.49-5.07a28.3,28.3,0,0,0,.92-3.54c1.48-1.82,1.84-4,2.18-6.26,1.36-5.5,1.87-11-.38-16.37-1-1.82-.05-4-1.12-5.78a43.6,43.6,0,0,1-1.89-5.24,63.91,63.91,0,0,0-2-9.15c-.31-1.62.1-3.29-.32-4.9-.76-1.51-2.23-2.57-2.67-4.27a18,18,0,0,0-3.15-7.5,16.68,16.68,0,0,0-3.61-7.45c-1.13-2.65-2.9-5-3.95-7.65-1.26-3.57-2.05-7.31-3.79-10.72-1.67-1.8-2.16-4.4-4.16-6-.65-3.18-3.49-5.06-4.8-7.85-.25-.86-.63-1.68-.92-2.53A21.75,21.75,0,0,1,273.93,204.69Z" transform="translate(0 3.93)"/><path class="cls-3" d="M274.05,370.35c-1,12.88-.27,25.77-.43,38.65,0,1.38.31,2.65,1.81,3.2l-1.22,1.08c-1.55-1.82-1.29-4-1.29-6.16q0-18.87,0-37.74C273.93,369,274.29,369.35,274.05,370.35Z" transform="translate(0 3.93)"/><path class="cls-4" d="M276.45,410.26l13.32-13.49c.83-.84,1.65-1.67,3-1.34-4.17,5.13-9.09,9.52-13.81,14.11C278.27,410.21,277.58,411.06,276.45,410.26Z" transform="translate(0 3.93)"/><path class="cls-5" d="M326,349.51a22,22,0,0,1,5.75-11.13v-.05C330.79,342.56,329.17,346.44,326,349.51Z" transform="translate(0 3.93)"/><path class="cls-6" d="M331.73,338.33l0,.05c.12-3.64,1-6.9,4.29-9C335,332.51,334.23,335.84,331.73,338.33Z" transform="translate(0 3.93)"/><path class="cls-7" d="M343.81,287.39c.33-3.24-.76-6.62,1-9.7q0,7.32-.08,14.65C342.1,291.14,343.91,289.08,343.81,287.39Z" transform="translate(0 3.93)"/><path class="cls-8" d="M296.07,391.73c.17-4,3.44-5.44,6-7.51C300.91,387.4,298.45,389.53,296.07,391.73Z" transform="translate(0 3.93)"/><path class="cls-9" d="M341.12,308.44c1-3.26.05-7.08,2.77-9.87-1,3.22-.4,6.75-1.92,9.86C341.69,309.15,341.41,309.16,341.12,308.44Z" transform="translate(0 3.93)"/><path class="cls-10" d="M282.75,161.55c-3.54-.39-4.6-3.45-6.28-5.83C279.75,156.38,280.75,159.5,282.75,161.55Z" transform="translate(0 3.93)"/><path class="cls-11" d="M343.81,287.39l1,4.95a4.79,4.79,0,0,1-.67,3.46C342.15,293.06,343.11,290.22,343.81,287.39Z" transform="translate(0 3.93)"/><path class="cls-6" d="M321.83,355.78c.88-2,1.29-4.3,3.77-5.09-.46,2.64-2,4.69-3.59,6.73A1.19,1.19,0,0,1,321.83,355.78Z" transform="translate(0 3.93)"/><path class="cls-4" d="M287.76,167.55c-3.19-.35-4.32-2.52-4.77-5.32C285,163.62,286.33,165.64,287.76,167.55Z" transform="translate(0 3.93)"/><path class="cls-12" d="M319.75,212.46c-3-.62-3.84-2.6-3.48-5.37Z" transform="translate(0 3.93)"/><path class="cls-13" d="M300.45,185.79l-2.56-3.53a1.14,1.14,0,0,1,.11-1.58l3.82,5.06C301.39,186.55,300.94,186.57,300.45,185.79Z" transform="translate(0 3.93)"/><path class="cls-14" d="M336.05,328.62c-1.08-2.34.72-4.14,1.18-6.2.24-.4.49-.41.75,0C338.1,324.72,337.09,326.67,336.05,328.62Z" transform="translate(0 3.93)"/><path class="cls-4" d="M321.83,355.78l.18,1.64c-1,1.8-1.38,4.17-4.09,4.35Q319.89,358.79,321.83,355.78Z" transform="translate(0 3.93)"/><path class="cls-15" d="M306,379.84c0-2.81,1.89-4.24,4.1-5.4l.4-.05C309.11,376.32,308.05,378.5,306,379.84Z" transform="translate(0 3.93)"/><path class="cls-10" d="M291.8,172.56c-2.76-.12-3.61-1.92-3.81-4.3C289.69,169.32,290.68,171,291.8,172.56Z" transform="translate(0 3.93)"/><path class="cls-16" d="M298,180.68c0,.52-.07,1-.11,1.58l-3-4a1.13,1.13,0,0,1,.05-1.49Z" transform="translate(0 3.93)"/><path class="cls-17" d="M338,322.41h-.75q.87-2.51,1.75-5c.29-.51.59-.51.89,0C339.56,319.2,339.44,321.05,338,322.41Z" transform="translate(0 3.93)"/><path class="cls-18" d="M311.44,371.2l3.6-4.92c.69,2.29-1.09,3.5-2.2,5A.92.92,0,0,1,311.44,371.2Z" transform="translate(0 3.93)"/><path class="cls-18" d="M302,384.34c.39-2.21,1.33-3.88,3.9-4C304.73,381.83,304,383.74,302,384.34Z" transform="translate(0 3.93)"/><path class="cls-19" d="M295,176.79l-.06,1.49c-1.35-1.44-3.05-2.68-2.92-5A8.27,8.27,0,0,1,295,176.79Z" transform="translate(0 3.93)"/><path class="cls-20" d="M300.45,185.79l1.37,0,2.74,4C302.17,189.48,301.59,187.35,300.45,185.79Z" transform="translate(0 3.93)"/><path class="cls-13" d="M310.85,198.56c-1.76.19-2.47-1-3-2.35a1.13,1.13,0,0,1,.15-1.62Z" transform="translate(0 3.93)"/><path class="cls-21" d="M314.73,204.45c-2.51,0-2.89-1.57-2.59-3.6Z" transform="translate(0 3.93)"/><path class="cls-22" d="M339.87,317.41H339a3.61,3.61,0,0,1,1.86-3.8Z" transform="translate(0 3.93)"/><path class="cls-23" d="M311.44,371.2l1.4.08-2.37,3.11-.41.05C309.17,372.79,310.72,372.17,311.44,371.2Z" transform="translate(0 3.93)"/><path class="cls-24" d="M344.18,274.43c-2-1.07-1.36-2.38-.33-3.73Z" transform="translate(0 3.93)"/><path class="cls-25" d="M341.12,308.44H342a4.86,4.86,0,0,1-1.12,3.82C339.79,310.9,341.1,309.71,341.12,308.44Z" transform="translate(0 3.93)"/><path class="cls-26" d="M334.66,241.34c-2.12-.07-2.25-1.26-1.62-2.88Z" transform="translate(0 3.93)"/><path class="cls-23" d="M308,194.59l-.15,1.61c-1.05-1.18-2.34-2.27-1.62-4.15Z" transform="translate(0 3.93)"/><path class="cls-6" d="M274.05,370.35l-1.09-1q-.09-39.61-.16-79.23,0-39.37,0-78.74c0-2.28-.54-4.69,1.11-6.72.7.8,1.41,1.6,2.11,2.41-.91,5,.53,9.86.51,14.82q-.21,66.66,0,133.32c0,3.32-1,7.08,2.45,9.61A17.86,17.86,0,0,1,274.05,370.35Z" transform="translate(0 3.93)"/><path class="cls-1" d="M279,364.85c-2-.13-2.73,2.28-4.58,2.52-1.12-1.19-.68-2.58-.68-3.83q0-75.69,0-151.38c0-1.86-1.18-4.63,2.3-5.06-.07.66.26,1,.9,1,1,3,3.3,5.34,4.57,8.22,1.4,2.08,2.64,4.26,4,6.39A55.88,55.88,0,0,1,291,233.91c.08,2.9,2.23,4.55,3.91,6.49.57,2.71,2.91,4.77,2.84,7.71a20.46,20.46,0,0,1,3.51,8.67c1.19,1.43,1.47,3.26,2.19,4.9.12,1.3,1.25,2.46.53,3.88,1.15,2.92,2.27,5.86,2.12,9.09,1.75,1.54,1.12,3.82,1.76,5.71a22,22,0,0,1,.67,5.42A11.56,11.56,0,0,1,309,289c0,3.61,0,7.21,0,10.82a9.78,9.78,0,0,1-.42,3.13c-.05,2.51-1,4.95-.57,7.49l-1,2.81c-.82,1.56-.79,3.44-1.81,4.93L304,321.49c.41,3-2.47,5.22-2.07,8.24a.28.28,0,0,0,0,.45c-3.2,3.16-3.84,7.81-6.59,11.24l-.27-.11-.26.13a33.06,33.06,0,0,1-1.78,4.2c-2.34,2.7-3.78,6-6.23,8.65l.05-.05a15.1,15.1,0,0,1-2.83,3.54,13.74,13.74,0,0,1-5,5.43Z" transform="translate(0 3.93)"/><path class="cls-27" d="M308.19,288.3l0-2.83c.29-.73.56-.72.82,0a35.12,35.12,0,0,1,0,17.95c-.26.75-.54.76-.84,0,0-.95,0-1.9,0-2.84A51.29,51.29,0,0,0,308.19,288.3Z" transform="translate(0 3.93)"/><path class="cls-4" d="M291,233.91c-2.25-3.59-4.62-7.13-5.7-11.31l-.06.08C288.67,225.65,290.89,229.24,291,233.91Z" transform="translate(0 3.93)"/><path class="cls-28" d="M295.43,341.42c1.62-4.09,2.11-8.83,6.59-11.24C299.83,333.92,298.86,338.39,295.43,341.42Z" transform="translate(0 3.93)"/><path class="cls-18" d="M286.89,354.29c1.1-3.67,3.79-6.34,5.89-9.38a.94.94,0,0,1,.24,1.52C291.18,349.21,290.16,352.62,286.89,354.29Z" transform="translate(0 3.93)"/><path class="cls-29" d="M281.08,216.63c-1.43-2.81-4.63-4.77-4.14-8.51,2.59,2.36,3.93,5.58,5.72,8.48A1.17,1.17,0,0,1,281.08,216.63Z" transform="translate(0 3.93)"/><path class="cls-30" d="M297.74,248.11c-1.22-2.47-3.26-4.64-2.84-7.71C296.75,242.64,298.68,244.85,297.74,248.11Z" transform="translate(0 3.93)"/><path class="cls-16" d="M281.08,216.63l1.58,0c1.17,1.9,3,3.52,2.57,6.08l.06-.08C282.94,221.28,282.27,218.77,281.08,216.63Z" transform="translate(0 3.93)"/><path class="cls-5" d="M302,329.73c-1.39-3.26,1.31-5.51,2.07-8.24C305.49,324.78,302.77,327,302,329.73Z" transform="translate(0 3.93)"/><path class="cls-17" d="M308.15,303.46c.28,0,.56,0,.84,0a15.26,15.26,0,0,1-1,7C305.8,308.05,307.63,305.77,308.15,303.46Z" transform="translate(0 3.93)"/><path class="cls-23" d="M279.09,363.21l4.92-5.85a1.21,1.21,0,0,1,0,1.53C282.84,360.83,282,363.25,279.09,363.21Z" transform="translate(0 3.93)"/><path class="cls-31" d="M307.28,280.44l-1.19-5.79c2.92.87,1.76,3.15,1.75,5C308,280.2,307.84,280.46,307.28,280.44Z" transform="translate(0 3.93)"/><path class="cls-32" d="M302.85,261.77a10.12,10.12,0,0,1-1.6-5c2,.52,2,2.39,2.57,3.85C303.52,261,303.54,261.7,302.85,261.77Z" transform="translate(0 3.93)"/><path class="cls-33" d="M307.28,280.44l.56-.76c1.79,1.66,1.12,3.8,1.14,5.81-.28,0-.55,0-.82,0C308.32,283.72,306.69,282.27,307.28,280.44Z" transform="translate(0 3.93)"/><path class="cls-34" d="M305.18,318.16a5.85,5.85,0,0,1,1.81-4.93C307.27,315.19,307,316.94,305.18,318.16Z" transform="translate(0 3.93)"/><path class="cls-13" d="M302.85,261.77l1-1.14c.14,1.64,2.08,3.22.15,4.93C303.6,264.29,303.22,263,302.85,261.77Z" transform="translate(0 3.93)"/><path class="cls-18" d="M293,346.43l-.24-1.52a6.86,6.86,0,0,1,2.12-3.47C295.45,343.55,294.18,345,293,346.43Z" transform="translate(0 3.93)"/><path class="cls-29" d="M284.05,358.89l0-1.53c.81-1.2,1.29-2.71,2.93-3.12C287,356.4,285.35,357.55,284.05,358.89Z" transform="translate(0 3.93)"/><path class="cls-2" d="M308.19,288.3a21.79,21.79,0,0,1,0,12.32Q308.17,294.46,308.19,288.3Z" transform="translate(0 3.93)"/></svg>