<svg id="Layer_3" data-name="Layer 3" xmlns="http://www.w3.org/2000/svg" viewBox="0 0 512 512"><defs><style>.cls-1{fill:#fefefe;}.cls-2{fill:#919191;}.cls-3{fill:#040404;}.cls-4{fill:#050505;}.cls-5{fill:#030303;}.cls-6{fill:#181818;}.cls-7{fill:#141414;}.cls-8{fill:#1e1e1e;}.cls-9{fill:#222;}.cls-10{fill:#5f5f5f;}.cls-11{fill:#232323;}.cls-12{fill:#282828;}.cls-13{fill:#343434;}.cls-14{fill:#3a3a3a;}.cls-15{fill:#2c2c2c;}.cls-16{fill:#212121;}.cls-17{fill:#171717;}.cls-18{fill:#484848;}.cls-19{fill:#292929;}.cls-20{fill:#333;}.cls-21{fill:#515151;}.cls-22{fill:#353535;}.cls-23{fill:#c6c6c6;}</style></defs><title>flexural</title><path class="cls-1" d="M.1,268.34Q.1,142.67,0,17c0-3.47.32-4.77,4.42-4.77q251.58.21,503.17,0c3.51,0,4.39.6,4.39,4.29q-.18,251.61,0,503.2c0,3.94-1.12,4.48-4.7,4.48q-251.32-.15-502.67,0C1,524.24,0,523.52,0,519.69Q.2,394,.1,268.34Z" transform="translate(0 -12.23)"/><path d="M462.8,275.52c-1.76-1.46-3.85-.75-5.77-.75q-193.15-.06-386.3,0c-2.28,0-6.42-1.62-4.49,3.71.43.76,0,1.23-.57,1.63a4.41,4.41,0,0,1-4.16-1.58c-.58-.6-1.53-.84-1.77-1.77a1.46,1.46,0,0,1,.26-1.18c-1.36-1.48-3.14-.8-4.71-.81-9.83-.07-19.65-.11-29.48,0-2.63,0-3.83-.45-3.81-3.49.15-16.28.22-32.58,0-48.86-.06-4.14,2.22-3.57,4.72-3.57H256.26l-32.44-54.08c5.71,0,10.93-.27,16.11.09,3.88.27,4.77-1.14,4.73-4.77-.26-26.93-.25-53.85-.55-80.78,0-4,.8-5.87,5.15-5.26s10.11-1.78,12.9,1.18c2.53,2.7.69,8.25.71,12.54.06,23.77.12,47.54-.06,71.31,0,4,.77,5.52,5.14,5.21,6.46-.45,13-.12,19.57-.12.59,2-1,3.31-1.77,4.79-7.95,15.15-15.86,30.31-24.09,45.29-2.28,4.15-1.35,4.67,2.89,4.67q110.93-.13,221.83-.07c6.44,0,6.45,0,6.45,6.45,0,15.12-.09,30.25.07,45.37,0,3.26-.88,4.29-4.16,4.12-5.32-.27-10.68.21-16-.15-4.64-.32-5,1.33-3.11,4.86a7.06,7.06,0,0,1,.43,1.93c.44.82,0,1.3-.67,1.68-4,.16-3.52-4.61-6.38-5.67C462.71,276.84,462.34,276.23,462.8,275.52Z" transform="translate(0 -12.23)"/><path class="cls-2" d="M60.19,277.19l1.93-2.33c1.77,1.52,1.59,4.3,3.64,5.64,2.36,2.2,2.4,5.46,3.72,8.13,1.11,2.28,1.54,4.85,2.91,7a11.68,11.68,0,0,0,2,5.06,11.52,11.52,0,0,0,2,5.06,8.32,8.32,0,0,0,2.1,4.89,58.18,58.18,0,0,1,4.5,12c-3.2,1.52-6.64,1.4-10,1.2a19,19,0,0,0-5.83.26c-2.09.14-4.21-.19-6.3.23-2.64,2-5.17,0-7.75-.2-4.29-.84-8.59,1.41-12.88,0-.88-2.89,1.77-4.75,2.16-7.27,1.22-3.14,2.94-6.08,4.06-9.27,1.07-2.59,2.54-5,3.18-7.78,1.6-2.32,2.28-5.07,3.58-7.53,1-2.84,2.73-5.4,3.4-8.38C58.29,281.88,58.4,279.09,60.19,277.19Z" transform="translate(0 -12.23)"/><path class="cls-3" d="M459.89,324.47c-7.44-1.43-10.88,2.41-13.22,9s-5.71,12.67-8.66,19c-.78,1.67-1.65,3.63-4,2.35-1.94-1-1.2-2.8-.48-4.36,3.34-7.21,6.74-14.4,10-21.66.59-1.32,3.19-3.57-1-4.13-1.61-.21-.63-1.63-.32-2.37,1.23-2.89,2.6-5.72,3.92-8.57a1.67,1.67,0,0,1,1.88.53c1.68,1.52-.32,4.31,2,5.61,2.13,1,4.58.72,6.65,1.73C457.92,322.21,460.08,322.06,459.89,324.47Z" transform="translate(0 -12.23)"/><path class="cls-3" d="M53.13,323.79l7.89-.07c.73.26.76.57.09,1q-6.26,13.45-12.53,26.91c-.81,1.72-1.44,4.39-4,3.36-3-1.19-1.3-3.58-.45-5.45,3.28-7.21,6.65-14.37,9.92-21.59.58-1.28,2.31-3.12-.94-3.46l-.67-.36Z" transform="translate(0 -12.23)"/><path class="cls-3" d="M78,324.5c-4.22,9-8.41,18-12.67,27-.86,1.81-1.4,4.77-4.33,3.31-2.5-1.24-.95-3.42-.16-5.19Q66.4,337.13,72,324.69C73.91,322.11,75.91,322.43,78,324.5Z" transform="translate(0 -12.23)"/><path class="cls-4" d="M482.93,324.62q-6.35,14-12.7,28c-.7,1.54-1.54,3.26-3.63,2.35-2.37-1-1.56-2.86-.75-4.61q6-12.81,11.87-25.66C479.44,322.94,481.17,323,482.93,324.62Z" transform="translate(0 -12.23)"/><path class="cls-3" d="M45.33,324.69C41.14,333.85,37,343,32.74,352.14,32,353.73,31.31,356,28.9,355c-2.73-1.16-1.4-3.27-.58-5,3.61-7.78,7.28-15.54,10.93-23.31C40.27,322.77,42.9,324,45.33,324.69Z" transform="translate(0 -12.23)"/><path class="cls-5" d="M466.21,324.73c-4.17,9.21-8.32,18.43-12.55,27.62-.74,1.61-1.54,3.76-4,2.47s-1.16-3.14-.42-4.78c3.79-8.46,7.63-16.91,11.45-25.36C462.57,323,464.4,322.93,466.21,324.73Z" transform="translate(0 -12.23)"/><path class="cls-6" d="M447,314.79l-.91-1.1c5.3-12.84,10.6-25.68,16.71-38.17l.83,1.16c2.5,1.77,1.13,4,.38,5.81-4.12,10-8.55,19.79-12.89,29.66C450.36,313.87,449.36,315.44,447,314.79Z" transform="translate(0 -12.23)"/><path class="cls-7" d="M466.21,324.73l-5.48-.05a1.36,1.36,0,0,1-.84-.21c-4.64-1.7-9.51-.26-14.22-1,.51-3.19,3.12-3,5.35-3.15,5.92-.32,11.86-.14,17.79-.12,5.29.63,11.13-1.13,15.45,3.62l-1.33.81-5.21.06Z" transform="translate(0 -12.23)"/><path class="cls-8" d="M469.21,282.65l.87-1.21a100,100,0,0,1,6,15.87c.51,1.09-.07,1.55-1,1.81C470.32,296.47,467,287.05,469.21,282.65Z" transform="translate(0 -12.23)"/><path class="cls-9" d="M477.83,301.68q3,8,5.93,16a1.7,1.7,0,0,1-1.74,1.37,18.38,18.38,0,0,1-6.38-16.54A1.93,1.93,0,0,1,477.83,301.68Z" transform="translate(0 -12.23)"/><path class="cls-4" d="M482.78,318.81l1-1.13c-.12,2.06,3.93,3.79.5,6.13-5.09-.69-10.3.56-15.33-1,.73-2.9,3.2-2.35,5.21-2.55C477.06,320,480.09,320.45,482.78,318.81Z" transform="translate(0 -12.23)"/><path class="cls-10" d="M78,324.5a5,5,0,0,0-6,.19l-5-.24c-.72-.31-.71-.59,0-.83,5.24-1.76,10.65-.8,16-1C82.21,325.55,79.69,323.94,78,324.5Z" transform="translate(0 -12.23)"/><path class="cls-11" d="M45.33,324.69c-2.27-.14-4.45,0-6.08,1.91,0-1.32-.88-2.63,0-3.94.28-.44.58-.45.9-.05,4.15,2.37,8.71.22,13,1.18,0,.22,0,.44,0,.66Z" transform="translate(0 -12.23)"/><path class="cls-12" d="M69,288.76l-3.88-8c-.64-.51-.57-.89.21-1.13l.88-1.19a41.73,41.73,0,0,1,3.66,9.26A1.49,1.49,0,0,1,69,288.76Z" transform="translate(0 -12.23)"/><path class="cls-9" d="M57.22,284.14c-1.11,2.82-2.22,5.63-3.32,8.45-.85.1-1.52.05-.91-1.08a38.15,38.15,0,0,1,4-9.07A1.18,1.18,0,0,1,57.22,284.14Z" transform="translate(0 -12.23)"/><path class="cls-13" d="M50.19,300.12a13.78,13.78,0,0,1-3.75,7.53v.05c0-3.52,2-6.32,3.52-9.28A1.15,1.15,0,0,1,50.19,300.12Z" transform="translate(0 -12.23)"/><path class="cls-14" d="M46.44,307.7v-.05c-.15,3.44-1.76,6.28-3.73,9l.06,0C42.56,313.08,44.16,310.25,46.44,307.7Z" transform="translate(0 -12.23)"/><path class="cls-15" d="M50.19,300.12l-.23-1.7a22.33,22.33,0,0,1,3-6.91l.91,1.08Z" transform="translate(0 -12.23)"/><path class="cls-16" d="M57.22,284.14l-.26-1.7a19.5,19.5,0,0,1,3-6.86c.06.53.12,1.07.19,1.6A15.78,15.78,0,0,1,57.22,284.14Z" transform="translate(0 -12.23)"/><path class="cls-17" d="M69,288.76l.87-1,2.3,6.62a1.17,1.17,0,0,1-.29,1.72A22.26,22.26,0,0,1,69,288.76Z" transform="translate(0 -12.23)"/><path class="cls-18" d="M42.77,316.65l-.06,0c-.33,2.22-.85,4.36-2.57,6-.3,0-.6,0-.9.05C40.26,320.56,40.27,317.88,42.77,316.65Z" transform="translate(0 -12.23)"/><path class="cls-19" d="M477.83,301.68,476.75,303c-2.55-.64-3-2.13-1.73-4.3l1.08-1.35Q477,299.5,477.83,301.68Z" transform="translate(0 -12.23)"/><path class="cls-8" d="M71.91,296.08l.29-1.72a11.67,11.67,0,0,1,2,5.12,1,1,0,0,1-.21,1.6A9.34,9.34,0,0,1,71.91,296.08Z" transform="translate(0 -12.23)"/><path class="cls-20" d="M74,301.08l.21-1.6a12,12,0,0,1,2,5q.4.39.24.75c-.11.24-.21.35-.31.35A5.92,5.92,0,0,1,74,301.08Z" transform="translate(0 -12.23)"/><path class="cls-21" d="M76.07,305.63l.07-1.1c.81,2,1.61,4.09,2.41,6.13A5.18,5.18,0,0,1,76.07,305.63Z" transform="translate(0 -12.23)"/><path class="cls-22" d="M67.07,323.62c0,.28,0,.56,0,.83l-5.92.23q-.06-.48-.09-1Z" transform="translate(0 -12.23)"/><path class="cls-2" d="M475,298.66c.57,1.43,1.15,2.87,1.73,4.3a97.92,97.92,0,0,0,6,15.85c.61,2.18.7,3.84-2.47,3.75-3.79-.11-7.59.13-11.38.23-7.76-.08-15.53-.45-23.26.67-3.27-3.46,1.75-5.65,1.33-8.67,6.09-12.47,11.4-25.27,16.63-38.11.93-1.7,1.86-3.68,3.23-.31.85,2.07,1.57,4.18,2.35,6.28Z" transform="translate(0 -12.23)"/><path class="cls-23" d="M65.36,279.67l-.21,1.13a10.69,10.69,0,0,1-3-5.94C65,275.24,64.21,278.11,65.36,279.67Z" transform="translate(0 -12.23)"/></svg>