<svg id="Layer_4" data-name="Layer 4" xmlns="http://www.w3.org/2000/svg" viewBox="0 0 512 512"><defs><style>.cls-1{fill:#fefefe;}.cls-2{fill:#c8c8c8;}</style></defs><title>tension</title><path class="cls-1" d="M258.86,511.88Q132.92,511.88,7,512c-3.84,0-4.24-1.08-4.23-4.45Q2.89,256,2.75,4.39C2.75.9,3.33,0,7,0Q258.65.18,510.26,0c3.94,0,4.49,1.1,4.49,4.69q-.13,251.33,0,502.66c0,3.65-.69,4.64-4.53,4.64Q384.54,511.78,258.86,511.88Z" transform="translate(-2.75 0)"/><path d="M397.84,343.15c4.63,2.49,3.91,4.81.61,8.37-12,13-23.89,26.16-35.42,39.59-3.39,3.94-5.48,4.21-8.13-.13-13.53-14.47-24.41-31.05-36.76-46.45-15-18.68-30.44-36.91-46.62-54.57Q253,269.7,232.58,251.39q-25.59-23-52.89-43.94c-15.76-12.1-32.42-23-47-36.63-3.63-2-3.1-3.86-.53-6.67q19-20.78,37.57-41.89c2.05-2.31,3.6-3.25,5.44,0,11.77,12.39,21.42,26.47,31.92,39.88q24.13,30.81,50.56,59.64c11.46,12.55,23.65,24.28,36.13,35.7q31.8,29.08,66.18,55.14C372.86,322.38,385.88,332.11,397.84,343.15Z" transform="translate(-2.75 0)"/><path class="cls-2" d="M132.65,170.82c11.6,6.86,22.18,15.18,33.09,23,73.83,53.05,135,118.42,186.85,192.84.92,1.32,2.32,2.44,2.31,4.29-2.21-.63-3.56-2.39-5.07-3.9q-20.31-20.25-40.58-40.51c-43.61-43.34-87.07-86.82-130.95-129.88-13.87-13.61-27.61-27.36-41.5-40.95C135.27,174.24,133.51,172.9,132.65,170.82Z" transform="translate(-2.75 0)"/><path class="cls-2" d="M397.84,343.15c-13.43-8.33-25.71-18.26-38.33-27.71a804.16,804.16,0,0,1-181-187.75c-1.22-1.77-2.29-3.64-3.42-5.47,2.13.78,3.44,2.57,5,4.09,20.14,20.08,40,40.45,60.45,60.24,32.39,31.36,63.7,63.79,96.07,95.16,19.24,18.64,38,37.79,57.1,56.51C395.24,339.71,397,341.05,397.84,343.15Z" transform="translate(-2.75 0)"/><path d="M67.16,109.26c-5.54-18.2-10.91-35.61-16.09-53.07-.86-2.9-3.59-6.57-1.61-8.68,1.64-1.75,5.51.7,8.35,1.41Q82.41,55.07,107,61.36c1.52.4,3.84.07,4.39,1.7.62,1.79-1.67,2.56-2.72,3.71-3.43,3.77-10,6.79-9.93,11,.11,3.63,6.27,7.13,9.83,10.6,11.54,11.26,23.06,22.54,34.73,33.66,2.33,2.22,2.71,3.63.05,5.81-3.45,2.82-6.46,8.13-10,8.4s-6.55-5.35-9.74-8.44C111.82,116.31,100,104.84,88.4,93.2c-2.45-2.46-3.82-2.58-6.16.1C77.56,98.64,72.51,103.64,67.16,109.26Z" transform="translate(-2.75 0)"/><path d="M471.57,409.41,489.92,471,425.29,454.3c4.45-4.24,8.21-8.11,12.29-11.61,2.64-2.28,2.64-3.67.06-6.15-14-13.47-27.76-27.23-41.78-40.71-2.83-2.72-3.8-4.48-.18-7.24,3.27-2.49,6-7.58,9.23-7.77,3.7-.22,6.35,5.11,9.4,8.07C426,400.27,437.66,411.61,449,423.3c3.34,3.44,5,2.87,8-.29C461.47,418.22,466.58,414,471.57,409.41Z" transform="translate(-2.75 0)"/></svg>