<svg id="Layer_5" data-name="Layer 5" xmlns="http://www.w3.org/2000/svg" viewBox="0 0 512 512"><defs><style>.cls-1{fill:#fefefe;}</style></defs><title>truss</title><path class="cls-1" d="M.1,258.65Q.1,132.7,0,6.74C0,3.32.67,2.65,4.09,2.65q251.91.16,503.82,0c3.42,0,4.09.67,4.09,4.09q-.17,251.91,0,503.83c0,3.41-.67,4.08-4.09,4.08q-251.91-.17-503.82,0C.67,514.65,0,514,0,510.57Q.18,384.62.1,258.65Z" transform="translate(0 -2.65)"/><path d="M42.7,362.44a92.14,92.14,0,0,1,9.89-12.07Q154.67,250.23,256.69,150c4.6-4.51,4.59-4.5,9.19.34q95.78,100.73,191.53,201.47c3,3.12,5.47,6.67,8.2,10,1.46,1.8,1.45,2.86-1.27,3-4.48.24-8.95.93-13.43.92q-90.68-.32-181.34-.78c-2.47,0-5-.34-7.18,1.34a3.66,3.66,0,0,1-3.83.36c-4.64-2.83-9.7-1.7-14.58-1.72q-92.91-.5-185.84-.8A74.71,74.71,0,0,1,42.7,362.44Z" transform="translate(0 -2.65)"/><path class="cls-1" d="M70.38,351.39c2.13-2.23,3.12-3.32,4.16-4.35q41.13-40.38,82.18-80.83c3-3,4.4-2.85,7.21.18q37.62,40.65,75.54,81c1.12,1.19,2.17,2.45,3.53,4Z" transform="translate(0 -2.65)"/><path class="cls-1" d="M253.16,346.36c-.94-1.15-1.82-2.35-2.82-3.43q-39.17-41.94-78.4-83.8c-2.79-3-3.42-4.54-.07-7.79,26.64-25.82,53-51.88,79.5-77.86.93-.92,1.92-1.79,3.28-3V345.77Z" transform="translate(0 -2.65)"/><path class="cls-1" d="M275.58,352.14c6.16-6.9,11.42-12.82,16.71-18.71q30-33.4,60-66.82c1.67-1.85,2.68-3.88,5.6-.79q39.69,42.15,79.68,84c.65.68,1.63,1.21,1.55,2.31Z" transform="translate(0 -2.65)"/><path class="cls-1" d="M266.07,345.77V171.5c2.26-.66,2.8.92,3.6,1.76q37.54,39.39,75,78.83c1.86,1.94,3.16,3.26.63,6q-38.88,42.92-77.49,86.07C267.45,344.65,267,345,266.07,345.77Z" transform="translate(0 -2.65)"/></svg>