<svg id="Layer_9" data-name="Layer 9" xmlns="http://www.w3.org/2000/svg" viewBox="0 0 512 512"><defs><style>.cls-1{fill:#fefefe;}.cls-2{fill:#4b4b4b;}</style></defs><title>2dframe</title><path class="cls-1" d="M251.07,511.88q-125.92,0-251.86.12C-4.62,512-5,510.92-5,507.55Q-4.88,256-5,4.39C-5,.9-4.45,0-.74,0Q250.87.18,502.48,0C506.41,0,507,1.1,507,4.69q-.15,251.33,0,502.66c0,3.64-.69,4.64-4.53,4.64Q376.76,511.78,251.07,511.88Z" transform="translate(5.03 0)"/><path d="M419.92,355.76c.11-36.82.13-73.63.46-110.44,0-4.51-1.16-5.37-5.44-5.36q-64.59.16-129.2-.16c-3.27,0-4.5.48-4.51,4.19-.11,41.31-.43,82.62-.69,123.93-7,3.08-14.25,1.6-21.42,1-1.77-.14-2.17-1.73-2.15-3.39.21-18.26-.41-36.52.33-54.78.05-22.15,0-44.3.25-66.45,0-3.39-.64-4.43-4.25-4.42q-65.84.21-131.67,0c-3.26,0-4.08.84-4.1,4.09q-.21,61.95-.69,123.92c-7,3-14.26,1.71-21.41.95-2.7-.29-2.06-3-2.07-4.9,0-16.11-.07-32.22,0-48.33,0-8.29-.41-16.59.3-24.87q.06-104.66.13-209.3c0-4-1.35-9.29.66-11.55,2.37-2.67,7.8-.82,11.89-.82q77.54-.11,155.07,0c3.21,0,5.86-.26,7.17-5.67,1.26,5.51,4.23,5.85,7.4,5.31,3.87-.65,4.55,1,4.54,4.59-.12,45.79,0,91.58-.18,137.37,0,4.48,1.15,5.37,5.44,5.36,48.37-.1,96.73,0,145.1.11,10.58,0,15.48,6,13.64,16.36-.6,3.39-.4,6.95-.42,10.43q-.17,24-.25,47.95c-.72,3.62-.31,7.29-.32,10.93-.05,20.62-.14,41.24.07,61.86,0,4.18-1.49,5.77-5.38,5.79-4.81,0-9.62.17-14.43-.09-3-.17-4.58-1.47-4.23-4.74C419.88,361.73,419.24,358.72,419.92,355.76Z" transform="translate(5.03 0)"/><path class="cls-2" d="M419.92,355.76c.13,1.31.35,2.63.37,3.94.1,8.22.09,8.39,8.54,8.18,4.56-.11,10.63,2.23,13.25-1.06,2.23-2.79.75-8.6.78-13.08.13-19.15.19-38.3.32-57.45,0-1.79-.45-3.69.68-5.35,0,23.79,0,47.59-.2,71.38,0,4.31.68,6.44,5.52,5.82a51.57,51.57,0,0,1,9.46.05c5.08.28,9,2.7,10.81,7.49s1.27,9.37-2.66,12.83c-2.24,2-1.73,3.36-.45,5.41q6.59,10.57,12.92,21.31c.66,1.11,2.71,2.64,1,3.73-2.13,1.34-2.49-1.44-3.23-2.6-4-6.32-8.2-12.55-11.58-19.2-2.48-4.89-5.68-6.27-11.08-4.63,4.6,7.6,9.16,15.07,13.62,22.61.68,1.14,2.68,2.7,1,3.78-2.16,1.41-2.48-1.38-3.22-2.56-3.8-6.05-7.82-12-11.08-18.34-2.44-4.75-5.47-7.13-10.85-6.13a29.78,29.78,0,0,1-4.74,0c4.31,7.15,8.3,13.78,12.3,20.4l2.82,4.7c.45.76.74,1.57-.21,2.14s-1.51-.12-2-.82-1.08-1.68-1.59-2.53c-3.45-5.68-7.35-11.15-10.21-17.11-3-6.3-7.34-8.29-14.36-6.28q6.47,10.63,12.86,21.17c.69,1.14,1.38,2.28,2,3.43.46.8.52,1.71-.33,2.18s-1.55-.28-2-1c-2.18-3.54-4.31-7.1-6.47-10.65q-2.58-4.26-5.18-8.52c-5-8.14-5-8.14-15.51-6.93,4.12,6.83,8.11,13.48,12.11,20.12a30.28,30.28,0,0,1,1.79,3c.55,1.21,2.62,2.6.88,3.76s-2.3-1.2-3-2.3c-4.11-6.63-8.2-13.29-12.13-20-1.84-3.14-3.7-5.2-7.91-5.51-6.58-.47-10.48-5.95-10.08-12.53.38-6.13,5.07-10.63,11.48-10.83a93.17,93.17,0,0,1,11,.11c3.44.31,4.28-1.11,4.11-4.24A70.27,70.27,0,0,1,419.92,355.76Z" transform="translate(5.03 0)"/><path class="cls-2" d="M93.67,290.79c.86,5.63.32,11.29.32,16.93,0,18.49,0,37-.29,55.46,0,3.69.88,5,4.69,4.84,6.14-.3,12.3-.08,18.45-.08,4.32.06,8.64.05,13,.22,5.85.23,10.38,3.47,11.83,8.28,1.55,5.16.07,10.06-4.83,13.54-2.16,1.53-1.84,2.46-.72,4.26,4.47,7.19,8.85,14.45,13.2,21.72.53.88,1.94,2,.61,3-1.79,1.36-2.24-.73-2.81-1.66-4.13-6.63-8.15-13.32-12.2-20-3.44-5.65-3.44-5.65-11.11-4.95l12.69,20.95,1.8,3c.51.86,1.22,2,.28,2.69-1.45,1.12-2-.51-2.53-1.36-3.59-5.79-7.73-11.35-10.46-17.53-3.37-7.61-8.59-9.7-16.61-7.65q5.84,9.68,11.72,19.39c.86,1.42,1.74,2.83,2.57,4.27.57,1,1.6,2.22.29,3s-2-.77-2.52-1.65c-3.92-6.37-8.37-12.5-11.48-19.25-3-6.56-7.57-7.24-14.18-6L106,409.88a38.93,38.93,0,0,1,2.8,4.71c.61,1.46,3.4,3.2,1.1,4.47-2,1.09-2.51-2-3.38-3.38-3.48-5.46-7.36-10.78-10-16.64-3.22-7.16-8.32-8.52-15.24-7,.32,2.37,2,4.08,3.14,6,3.2,5.44,6.59,10.78,9.75,16.24.84,1.43,3.29,3.37,1.42,4.61-2.06,1.36-2.62-1.77-3.45-3.09-4.09-6.45-8.12-13-11.9-19.6-1.66-2.91-3.53-4.67-7-5.39-5.78-1.19-9-6.77-8.35-12.95a11.31,11.31,0,0,1,10.66-10,105.56,105.56,0,0,1,13,.07c3.45.25,4.47-.73,4.46-4.31,0-22.31.18-44.61.35-66.92C93.26,294.74,93.52,292.76,93.67,290.79Z" transform="translate(5.03 0)"/><path class="cls-2" d="M257.3,310.78c.87,16,.1,31.94.22,47.91.06,9.24,0,9.25,9.06,9.26l14,0c4.32.08,8.64.06,13,.24,5.59.24,10,3.34,11.58,8a11.59,11.59,0,0,1-4.47,13.68c-2.3,1.6-2.17,2.6-.9,4.62,4.4,7.05,8.67,14.19,12.94,21.31.62,1,2.16,2.4.51,3.37S311,418,310.42,417c-3.94-6.36-8.06-12.63-11.58-19.21-2.5-4.67-5.41-7.41-11.41-5.27,5.19,8.63,10.44,17.37,16.11,26.82-3.8-.06-4.17-2-5-3.31-3.86-6.22-7.9-12.34-11.28-18.82-2.23-4.29-5-6.15-9.77-5.36a36.7,36.7,0,0,1-5.36,0c4.52,7.49,8.85,14.46,13,21.56,1,1.7,3.94,4.08,1.82,5.41s-2.86-2.37-3.91-4c-3.42-5.31-7.06-10.55-9.75-16.23-3-6.36-7.41-8.23-14.34-6.28l11,18.22c1.12,1.85,2.3,3.67,3.34,5.56.49.9,1.87,2,.32,2.95s-1.93-.66-2.49-1.56c-3.65-6-7.76-11.69-10.75-18-3.31-7-8-9.67-15.89-7.28l9.31,15.51c1.63,2.71,3.28,5.4,4.91,8.11.6,1,1.67,2.29.47,3.07-1.67,1.09-2.16-.88-2.77-1.87-4.54-7.36-9.09-14.71-13.45-22.17a7.31,7.31,0,0,0-5.3-3.86c-6.54-1.4-10-6.65-9.25-13.26.68-5.81,5.39-9.9,11.7-10.05a89,89,0,0,1,11,.13c4.17.42,5.67-.57,5.6-5.25-.24-15.65.09-31.31.24-47C256.9,314.07,257.15,312.43,257.3,310.78Z" transform="translate(5.03 0)"/><path class="cls-1" d="M187.54,93.07c21.6,0,43.21.05,64.81-.07,3,0,4.22.48,4.2,4q-.32,57.44-.2,114.88c0,3.69-1.24,4.25-4.53,4.24q-65.06-.15-130.1,0c-3.31,0-4-.91-4-4.11q.18-57.45,0-114.88c0-3.21.75-4.14,4-4.12C143.66,93.14,165.6,93.07,187.54,93.07Z" transform="translate(5.03 0)"/></svg>