<svg id="Layer_10" data-name="Layer 10" xmlns="http://www.w3.org/2000/svg" viewBox="0 0 512 512"><defs><style>.cls-1{fill:#fefefe;}.cls-2{fill:#4a4a4a;}.cls-3{fill:#fdfdfd;}.cls-4{fill:#fcfcfc;}</style></defs><title>3d frame</title><path class="cls-1" d="M251.61,511.91q-125.93,0-251.84.08c-3.2,0-4.2-.35-4.2-4q.18-252.09,0-504.18C-4.41.65-3.62,0-.56,0Q251.53.16,503.63,0c3.72,0,3.91,1.15,3.91,4.26q-.12,251.84,0,503.67c0,3.48-.75,4.07-4.11,4.07Q377.54,511.82,251.61,511.91Z" transform="translate(4.43 0)"/><path d="M208.07,423.93c.79-32.93,1.53-65.86,2.46-98.78.09-3.36-.48-4.55-4.14-4.51q-22.41.24-44.82-.17c-3.63-.06-4.62,1.13-4.31,4.49a60.31,60.31,0,0,1-.13,7c-.76,5.3-.17,10.62-.34,15.93,0,1.68.19,3.81-2,4-7.51.66-15.09,2.15-22.46-.9.23-9,.35-17.94.75-26.9.12-2.83-.66-3.76-3.53-3.73-9.29.12-18.58.16-27.86-.14-3.65-.12-4.27,1.21-4.34,4.52-.6,29.39-1.38,58.79-2.12,88.19-.71,2.78-.3,5.62-.29,8.43,0,2.19-.74,3.56-2.93,3.85-5.58.76-11.15,1.69-16.84,1.23-3-.25-4.43-1.51-4.24-4.76.35-6-.32-12,.36-17.91q1-41.22,2-82.42c.07-3,.16-5.84-1.36-8.69a9.37,9.37,0,0,1-.13-8.72c1.71-3.17,1.65-6.34,1.61-9.64q-.65-47-1.28-93.93c0-2.17.34-4.46-.23-6.47C69,183.57,74,176.24,80,168.63c17.66-22.28,34.86-44.94,52.21-67.48a12.67,12.67,0,0,1,10.64-5.4c46.05.27,92.1.45,138.14.87,9.51.08,14.64,7.75,11.66,16.87a17.62,17.62,0,0,0-.66,5.85c.36,31.32.83,62.63,1.06,93.94,0,3.75,1.07,4.66,4.75,4.74q72,1.42,144.08,3.16c11.05.25,16.58,6.32,16.27,17.36q-1.45,53.21-2.72,106.4a5.37,5.37,0,0,0-.33,2.93c.36,3-1,4.38-3.86,4.52a137.71,137.71,0,0,1-16.38,0c-2.51-.17-3.92-1.38-3.72-4.17.29-4.13-.38-8.29.36-12.41V265c-2.06,2.28-4.9,5.4-7.7,8.55-10,11.32-20,22.7-30.12,33.92a10.79,10.79,0,0,0-2.89,7.59c-.67,30.94-1.46,61.87-2.21,92.81-.73,4.43-.22,8.89-.31,13.34,0,1.82-.29,3.61-2.33,3.74-6.88.44-13.69,2.34-20.65,1a3.1,3.1,0,0,1-1.63-1.07q1.33-50.39,2.71-100.77c.06-2.4-.51-3.17-3-3.16q-34.62.06-69.24-.1c-2.36,0-3.21.66-3.15,3.08.1,4-.12,8-.2,12-.74,3.76-.25,7.56-.32,11.35,0,1.82-.3,3.62-2.33,3.72-6.88.35-13.69,2.19-20.63,1a2.94,2.94,0,0,1-1.63-1.06c.31-8.79.46-17.6,1-26.38.21-3.31-1-3.81-3.91-3.75-7.78.15-15.58.21-23.36-.08-3.55-.13-4.7.6-4.77,4.48-.46,25.9-1.25,51.8-1.92,77.69-.76,5.92-.18,11.86-.33,17.78-.05,1.87.1,4.11-2.27,4.26C222.9,425.4,215.36,427.05,208.07,423.93Z" transform="translate(4.43 0)"/><path class="cls-2" d="M208.07,423.93c6.43,0,12.87-.3,19.29,0,3.83.17,4.65-1.23,4.68-4.81,0-5.4-.76-10.88.91-16.2,0,5.65.06,11.31-.22,16.95-.15,2.92.71,3.77,3.61,3.57,5-.34,10-.34,14.95-.36,6.64,0,11.25,3.17,12.91,8.81s-.11,10.51-5.77,14c-2.31,1.42-1.9,2.3-.84,4.09q8.36,14.18,16.51,28.47c.72,1.25,2.74,2.93.51,4.16-1.84,1-2.3-1.37-3-2.52-4.82-8.15-10.07-16.11-14.16-24.62-3.28-6.82-7.54-9.61-15.27-7,5.4,9.31,10.86,18.74,16.33,28.16l2,3.45c.55.94.84,2-.27,2.6s-1.82-.23-2.36-1.15c-1.85-3.15-3.72-6.3-5.56-9.46-3.84-6.61-7.9-13.1-11.39-19.89-1.82-3.53-4.07-4.74-7.84-4.28a81.76,81.76,0,0,1-8.84.06l13.8,23.76c1.26,2.16,2.59,4.27,3.73,6.48.71,1.36,2.67,3.17.82,4.33-2,1.26-2.57-1.42-3.31-2.67-5.34-9-10.79-18-15.72-27.2-2.07-3.88-4.57-4.91-8.67-4.57-3.34.28-3.07,1.29-1.73,3.57q7.86,13.31,15.53,26.73c.73,1.27,2.74,3.08.63,4.21s-2.52-1.57-3.28-2.87c-5.15-8.73-10.46-17.39-15.21-26.33-2.12-4-4.59-5.64-9-4.85-2.06.37-4.24.06-7.4.06,5.55,9.54,10.71,18.19,15.59,27,1.17,2.13,4.71,5.37,2.38,6.62-3,1.62-3.66-3.18-4.95-5.28-5.06-8.21-9.81-16.6-14.56-25a5.56,5.56,0,0,0-5-3.24,12.14,12.14,0,0,1-11.45-12.22c0-6.51,5-11.72,12.13-12.13C195.09,424,201.59,424,208.07,423.93Z" transform="translate(4.43 0)"/><path class="cls-2" d="M71.32,403.75c.81,5.79.17,11.6,0,17.39-.07,2.85.86,3.92,3.68,3.74,5.62-.36,11.24-.61,16.86-.8,2-.07,2.38-1.15,2.53-2.87.23-2.77-.59-5.66.85-8.3,1,3.64-1.84,8.78,1.2,10.74,2.7,1.74,7.41.35,11.23.34,1.83,0,3.66-.1,5.49,0A12.18,12.18,0,0,1,124.92,433a11.47,11.47,0,0,1-5.38,13.32c-3.27,1.75-2.58,3.11-1.16,5.49,5.27,8.86,10.42,17.78,15.54,26.73.67,1.15,2.51,2.73.75,3.86-2.2,1.42-2.64-1.24-3.36-2.46-4.84-8.15-9.56-16.37-14.32-24.56-4.54-7.79-4.54-7.79-14.66-6.31,5.47,9.47,10.91,18.73,16.16,28.1.9,1.61,3.88,3.81,1.12,5.32-2,1.1-2.69-2.31-3.63-3.88-4.94-8.28-9.93-16.54-14.48-25-2-3.71-4.22-5.54-8.52-4.86-2.43.39-5,.07-8.36.07,2.76,4.83,5.17,9.07,7.61,13.3,3.33,5.75,6.71,11.48,10,17.26.52.92,1.64,2.1.28,3.07-1.75,1.24-2.31-.54-2.91-1.57-4.88-8.32-9.7-16.67-14.54-25-4.18-7.22-4.19-7.21-13.39-6.57,3.76,6.54,7.36,12.82,11,19.1,2.08,3.6,4.21,7.17,6.27,10.77.63,1.1,1.8,2.53.17,3.44s-2.17-.92-2.8-2q-8.17-14-16.32-28c-1.66-2.84-11.13-4.93-13.75-3-1.76,1.3,0,2.43.52,3.36,4.59,8.1,9.3,16.13,14,24.18.58,1,1.22,2,1.74,3s.68,2-.49,2.55c-1,.47-1.57-.24-2-.94-.63-1-1.17-2-1.76-3-5-8.62-10.07-17.22-15-25.88a5.93,5.93,0,0,0-4.91-3.41c-7.27-1-11.4-6.15-11-13,.4-6.6,5.41-11.16,12.75-11.4A126.42,126.42,0,0,1,65,425c4.81.42,5.73-1.56,5.61-5.85C70.43,414,70.23,408.84,71.32,403.75Z" transform="translate(4.43 0)"/><path class="cls-2" d="M431.5,335.79c.8,3.78.33,7.6.15,11.37-.15,3.15,1,4,4,3.89a74.68,74.68,0,0,1,11.87,0c4.84.5,7.88-.65,7.93-6.08-.67,5.14,1.78,6.35,6.5,5.77a126.9,126.9,0,0,1,13.94-.5c7-.06,12.08,3.65,13.42,9.56s-1.34,11.24-7.67,14c-3.11,1.36-1.6,2.57-.75,4,5.07,8.77,10.21,17.51,15.25,26.3.76,1.31,2.68,3.16.66,4.27s-2.51-1.55-3.27-2.84c-4.49-7.58-9.32-15-13.15-22.9-3.25-6.7-7.43-9.81-15.26-7,3.76,6.5,7.62,13.19,11.49,19.87,1.92,3.31,3.89,6.59,5.77,9.91.56,1,1.31,2.26-.11,3s-2-.69-2.57-1.61c-5.05-8.6-10.39-17.05-14.91-25.92-2.5-4.91-5.55-6.86-10.84-5.93-1.89.33-3.88.05-6.79.05,5.46,9.43,10.59,18.08,15.46,26.89,1.06,1.93,4.47,4.67,2,6.16s-3.26-2.78-4.4-4.64c-4.45-7.21-8.58-14.61-12.84-21.94-4-6.86-4-6.86-12.87-5.57,3,5.16,5.82,10.08,8.67,15,2.75,4.75,5.54,9.47,8.26,14.23.62,1.09,1.76,2.48-.12,3.33-1.48.68-2-.91-2.49-1.81-4.88-8.31-10-16.52-14.42-25.06-2.39-4.57-5.19-6.86-10.41-5.9-1.87.34-3.85.05-6.57.05,3.21,5.57,6,10.42,8.8,15.26,2.33,4,4.79,8,6.95,12.1.83,1.57,3.57,3.63,1.35,5s-2.87-1.9-3.74-3.35c-4.88-8.12-9.62-16.32-14.29-24.56-1.44-2.54-3-4.21-6.15-4.95-6.17-1.44-9.4-6.85-8.74-13.25a11.59,11.59,0,0,1,10.93-10.42,104.74,104.74,0,0,1,13.94-.43c3.62.17,4.48-1.16,4.38-4.53C430.71,343.08,430.52,339.38,431.5,335.79Z" transform="translate(4.43 0)"/><path class="cls-2" d="M363.66,424.92c6.88-.29,13.76-.69,20.65-.81,2.64,0,3.27-1.08,3.36-3.53.17-4.23-.62-8.54.91-12.67,0,3.82.39,7.69-.06,11.45-.5,4.24,1.2,5.11,4.93,4.74a84.82,84.82,0,0,1,10-.14,12.12,12.12,0,0,1,11.8,9,11.57,11.57,0,0,1-5.68,13.63c-2.91,1.55-2.85,2.57-1.32,5.09,5.18,8.52,10.16,17.16,15,25.86.82,1.47,3.6,3.59,1.06,5-2.28,1.22-2.79-2.15-3.69-3.66-5.37-9-10.57-18.07-15.85-27.11-1.64-2.82-8.73-4.69-11.27-2.91-1.8,1.27,0,2.39.51,3.29,4.85,8.53,9.88,16.95,14.68,25.49.83,1.47,3.57,3.49,1.06,5-2.06,1.2-2.64-1.9-3.47-3.3-5.1-8.56-10.27-17.1-15-25.89-1.92-3.59-4.13-5.13-8.15-4.59-2.57.35-5.22.07-8.65.07,5.1,8.81,9.8,17,14.52,25.1.83,1.43,1.77,2.82,2.5,4.3s2.63,3.22.72,4.33-2.55-1.52-3.31-2.8c-4.82-8.16-9.54-16.37-14.3-24.56-4-6.93-4-6.93-12.87-5.6,5.14,8.88,10.2,17.61,15.25,26.35.67,1.15,1.3,2.32,2,3.45s1.46,2.28.26,3.1c-1.66,1.12-2.27-.63-2.9-1.7-4.54-7.74-9-15.5-13.54-23.26-5.62-9.66-5.9-9.79-17.78-7.45l15.2,26.27c.58,1,1.14,2,1.74,3s1.52,2.23.3,3.09c-1.67,1.19-2.29-.57-2.91-1.63-5.28-9-10.56-18.08-15.76-27.17-1.36-2.4-2.78-4-5.91-4.41-6.6-.94-10.46-6.21-10.11-12.68a11.84,11.84,0,0,1,11.65-11.41C347.37,424.83,355.52,425,363.66,424.92Z" transform="translate(4.43 0)"/><path class="cls-2" d="M265.91,351c6.87-.29,13.75-.69,20.63-.82,2.6,0,3.32-1,3.41-3.5.13-3.56-.62-7.23.87-10.69,0,3,.47,6,0,8.95-.75,4.75,1.25,5.54,5.43,5.25,5.79-.41,11.62-.27,17.44-.27s10.35,3,12.07,7.87a11.7,11.7,0,0,1-4.52,14.1c-2.67,1.79-2.56,3-1.1,5.43,5.23,8.68,10.3,17.46,15.32,26.26.82,1.44,3.1,3.56,1.1,4.7-2.41,1.38-2.86-1.91-3.74-3.37-4.63-7.68-9.56-15.24-13.45-23.3-3.2-6.64-7.43-9.16-15-6.6,2.89,5,5.81,10.16,8.76,15.27,2.58,4.46,5.28,8.85,7.73,13.38.76,1.41,3.27,3.24,1.1,4.62s-2.72-1.63-3.52-3c-4.94-8.27-10-16.48-14.46-25-2.32-4.47-5-6.57-10.07-5.63-2.08.38-4.29.06-7.35.06l13.71,23.74c1.16,2,2.4,4,3.51,6,.67,1.24,2.24,2.86.53,3.92s-2.41-1.15-3.08-2.29c-4.89-8.3-9.69-16.66-14.53-25-4-6.92-4-6.92-12.88-5.59,5.06,8.73,10,17.31,15,25.88.67,1.15,1.4,2.27,2,3.46s2,2.47.4,3.47c-2,1.24-2.33-1.12-3.13-2.14a30,30,0,0,1-2-3.43c-4.34-7.47-8.92-14.82-12.93-22.46-2.12-4-4.63-6-9.26-5.25-2.05.35-4.22.06-7.29.06,5.46,9.44,10.59,18.09,15.45,26.9,1.06,1.92,4.51,4.63,1.95,6.16s-3.25-2.83-4.39-4.7c-4.94-8.08-9.68-16.29-14.33-24.53-1.34-2.38-2.74-3.58-5.72-3.73A11.86,11.86,0,0,1,238.26,363a12.19,12.19,0,0,1,11.71-12C255.27,350.81,260.6,351,265.91,351Z" transform="translate(4.43 0)"/><path class="cls-2" d="M132.36,351c6.6,0,13.21-.09,19.82.09,3,.09,4-.8,4-3.89.09-5.07-.67-10.24.92-15.23,0,5.32.06,10.64-.16,15.95-.1,2.44.63,3.21,3,3.11,5.65-.22,11.3-.24,17-.29,7.06-.06,11.89,3.17,13.3,8.84,1.52,6.1-.62,11.11-6.95,14.34-2.83,1.45-1.57,2.58-.68,4.12l14.53,25c.58,1,1.21,2,1.73,3s.58,2-.58,2.52c-.95.43-1.55-.34-2-1-.8-1.26-1.51-2.58-2.26-3.87C189,395,184,386.4,179,377.8c-1.33-2.28-9.12-4.09-11.09-2.51-1.57,1.25,0,2.39.57,3.36,4.61,8.08,9.31,16.11,14,24.16.58,1,1.18,2,1.74,3s.78,2-.26,2.65-1.84-.32-2.33-1.14c-2.39-4-4.71-8-7.05-12-3.09-5.32-6.4-10.52-9.18-16-1.7-3.37-3.91-4.51-7.5-4-2.6.37-5.27.3-8.71.46,5.43,9.36,10.63,18.15,15.61,27.07.91,1.63,4,3.9,1.48,5.38s-3-2.27-4-3.87c-4.48-7.38-8.74-14.9-13.08-22.38-4-6.9-4-6.9-12.85-5.55l14,24.17a39.47,39.47,0,0,1,2,3.46c.61,1.37,2.8,3,.82,4.26s-2.55-1.38-3.28-2.61c-4.58-7.71-9.44-15.3-13.43-23.32-2.61-5.23-5.89-7.5-11.61-6.4-1.56.3-3.22.05-5.68.05l9.25,16.05c2.41,4.17,4.86,8.32,7.24,12.51.68,1.2,2.3,2.77.43,3.82s-2.35-1.23-3-2.38q-7.73-13.1-15.29-26.28c-1.21-2.12-2.44-3.46-5.2-3.85a11.92,11.92,0,0,1-10-12.85c.54-6.17,5.53-10.78,12-11.15C120.47,351.54,126.47,352.33,132.36,351Z" transform="translate(4.43 0)"/><path class="cls-1" d="M416.37,245.18c-9,10.22-17.45,19.76-25.89,29.29-5.73,6.47-11.54,12.87-17.17,19.43a7.53,7.53,0,0,1-6.38,2.91c-23.59-.2-47.19-.34-70.78-.27-3.51,0-4.4-.92-4.28-4.4.55-15.13.93-30.28,1.06-45.42,0-3.69.89-4.72,4.7-4.61C336.81,243.24,376,244.17,416.37,245.18Z" transform="translate(4.43 0)"/><path class="cls-1" d="M256.16,121.76c-11,14.17-22.35,28-32.68,42.63-5.26,7.46-10.94,10.36-20.06,9.7-13.4-1-26.91-.53-40.38-.45-3.25,0-4.22-.92-4.23-4.19,0-15.16-.31-30.32-.58-45.47,0-2.39-.1-3.93,3.23-3.91,31.41.13,62.82.08,94.23.08Z" transform="translate(4.43 0)"/><path class="cls-1" d="M159.33,267.39c0-8.16.11-16.32-.05-24.47-.06-2.88.45-4.08,3.76-4,14.61.53,29.24.81,43.87,1.07,2.19,0,3.25.43,3.26,3q.2,25,.68,50c.05,2.31-.49,3.24-3,3.22q-23.43-.19-46.87-.08c-2.69,0-2.87-1.09-2.84-3.26.1-8.49,0-17,0-25.47Z" transform="translate(4.43 0)"/><path class="cls-1" d="M97,269.94c0-10.59.06-21.19,0-31.78-.1-12.32-.31-24.65-.52-37,0-2.16-.11-3.68,3-3.6,10.79.27,21.6.28,32.41.24,2.39,0,3.19.78,3.15,3.15-.08,4.32,0,8.66.21,13a5.37,5.37,0,0,1-1.71,4.43c-1.47,1.41-2.75,3.34-2.62,5.24.36,5.13-3,8.25-5.68,11.73-9,11.65-18,23.24-27,34.86Z" transform="translate(4.43 0)"/><path class="cls-1" d="M268.94,147.75c0,22.23,0,44.46,0,66.7,0,2.37-1,2.71-2.94,2.64-9.79-.31-19.57-.6-29.36-.71-2.36,0-2.64-1.06-2.64-3,0-6.82-.09-13.64-.19-20.45a7,7,0,0,1,1.57-4.59q15.9-20.42,31.74-40.87Z" transform="translate(4.43 0)"/><path class="cls-1" d="M184.63,214.7c-7.31,0-14.63-.07-21.94,0-2.58,0-3.3-.9-3.41-3.48C158.74,198,158.65,198,172,198c11.14,0,22.28.16,33.41.06,2.79,0,4.35.32,4.12,3.7-.31,4.45,1.57,10.31-.62,13-2.37,2.94-8.38.42-12.79.53-3.82.09-7.65,0-11.47,0Z" transform="translate(4.43 0)"/><path class="cls-1" d="M134.43,140.18c0,10.25,0,20.49,0,30.74,0,1.6-.31,2.42-2.17,2.4-7.9-.08-15.81,0-24.86,0L133.16,140Z" transform="translate(4.43 0)"/><path class="cls-3" d="M133.68,264.2c0,9.95-.07,19.39,0,28.84,0,2.42-.73,3.08-3.12,3-6.79-.17-13.6-.06-21.46-.06Z" transform="translate(4.43 0)"/><path class="cls-3" d="M244.76,296.31,267.43,267c0,9.47,0,18.6,0,27.73,0,1.25-.89,1.62-2,1.62Z" transform="translate(4.43 0)"/><path class="cls-4" d="M234.37,267.65c0-8,.07-15.93,0-23.89,0-2.13.55-2.94,2.78-2.9,6.1.13,12.22,0,19.63,0L235.85,268Z" transform="translate(4.43 0)"/></svg>