<svg id="Layer_11" data-name="Layer 11" xmlns="http://www.w3.org/2000/svg" viewBox="0 0 512 512"><defs><style>.cls-1{fill:#fefefe;}.cls-2{fill:#b2b2b2;}.cls-3{fill:#90af14;}.cls-4{fill:#6d6d6d;}.cls-5{fill:#040404;}.cls-6{fill:#1e1e1e;}.cls-7{fill:#575757;}.cls-8{fill:#252525;}.cls-9{fill:#595959;}.cls-10{fill:#010101;}.cls-11{fill:#090909;}.cls-12{fill:#303030;}.cls-13{fill:#3f3f3f;}.cls-14{fill:#222;}.cls-15{fill:#434343;}.cls-16{fill:#313131;}.cls-17{fill:#363636;}.cls-18{fill:#0c0c0c;}.cls-19{fill:#2c2c2c;}.cls-20{fill:#3b3b3b;}.cls-21{fill:#2b2b2b;}.cls-22{fill:#1a1a1a;}.cls-23{fill:#212121;}.cls-24{fill:#3d3d3d;}.cls-25{fill:#2f2f2f;}.cls-26{fill:#0f0f0f;}.cls-27{fill:#323232;}.cls-28{fill:#2e2e2e;}.cls-29{fill:#2d2d2d;}.cls-30{fill:#3e3e3e;}.cls-31{fill:#292929;}.cls-32{fill:#353535;}.cls-33{fill:#383838;}.cls-34{fill:#1d1d1d;}.cls-35{fill:#393939;}.cls-36{fill:#1b1b1b;}.cls-37{fill:#343434;}.cls-38{fill:#333;}.cls-39{fill:#282828;}.cls-40{fill:#050505;}.cls-41{fill:#181818;}.cls-42{fill:#0a0a0a;}.cls-43{fill:#080808;}.cls-44{fill:#070707;}.cls-45{fill:#2a2a2a;}.cls-46{fill:#121212;}</style></defs><title>beam column</title><path class="cls-1" d="M-6.13,265.58q0-126-.1-251.91c0-3.42.67-4.09,4.09-4.09q251.91.16,503.83,0c3.41,0,4.08.67,4.08,4.09q-.16,251.91,0,503.83c0,3.41-.67,4.08-4.08,4.08q-251.92-.17-503.83,0c-3.42,0-4.09-.67-4.09-4.08Q-6.05,391.53-6.13,265.58Z" transform="translate(6.23 -9.58)"/><path d="M214.52,339.82q-.15-88.19-.37-176.37c0-3,.44-4.26,3.93-4.22q24.66.32,49.32,0c3.41,0,4,1.06,4,4.17-.15,23.58-.12,47.16-.15,70.74,0,1.5.05,3,.09,4.48,0,.14.16.28.25.41l.78-.86a1,1,0,0,1,1.42.55c-.82,7.34-1,14.72-1.61,22.08-.76,2.44-.52,4.95-.53,7.43q0,59.08,0,118.17c0,3.82-.7,7.62-.24,11.44q-.21,2.91-.4,5.83c-.73,7.44-.35,14.92-.24,22.37.05,3.74-1.47,5.2-4.89,5.17-15.44-.13-30.88.11-46.32,0-4,0-4.81-2.09-4.79-5.73.13-26.73.08-53.47,0-80.21C214.85,343.44,215.17,341.6,214.52,339.82Z" transform="translate(6.23 -9.58)"/><path class="cls-2" d="M271.06,260.12c.22-7.39-.28-14.85,2.37-22-.53-2.18.76-3.73,1.82-5.36l-.13-.25a22,22,0,0,1,2.11-6.72l-.1-1.42c.23-1.8,1.14-3.38,1.55-5.13a15.3,15.3,0,0,0,1.19-3.17c.32-2.06,1.54-3.84,1.85-5.9a31.1,31.1,0,0,1,1.49-5.42c.57-1.56,1-3.18,1.56-4.75.87-1.73,1.3-3.67,2.44-5.28l-.12-.12a17,17,0,0,1,1.3-4.74c.53-1.56,1-3.16,1.47-4.74.7-1.79,1.12-3.69,2.35-5.24l.06-2.74c1.54-1.48,1.65-3.74,2.92-5.38,0-.88.08-1.77.13-2.66a24.11,24.11,0,0,0,2.87-4.4,6.58,6.58,0,0,1-.47-.7s.2-.21.31-.33c3.3-1.87,6.88-.44,10.31-.86,1.75-.21,3.55.22,5.3-.28a39.89,39.89,0,0,1,6.37-.25c7-.12,14.08.26,21.12-.2,1.37-.17,2,.61,2.37,1.8-.74,3.35-3.45,5.73-4.46,9-.7,5-4.08,8.81-5.91,13.31-1.6.94-2.13,2.57-2.72,4.17-.46,1.42-1.61,2.65-1.22,4.31-.37.86-.75,1.73-1.12,2.6-1.14,1.21-2.18,2.46-1.86,4.3l-1.3,2.86a5.82,5.82,0,0,0-1.7,4.21l.15.26-.2.23a6.11,6.11,0,0,0-2,4.5l.16.26-.21.23c-1.18,1.54-2.49,3-2,5.21-.34.93-.69,1.87-1,2.81a6.69,6.69,0,0,0-1.95,5.19L315,230.27c-1.37,1.24-1.56,3.06-2.27,4.62a10.48,10.48,0,0,1-1.65,3.67l.11.18a21,21,0,0,1-1.58,6.13c-.52,2.19-1.7,4.24-1.4,6.6a.42.42,0,0,1-.15.71c-1.66,1.59-1.69,3.75-2,5.79v1.25a7.29,7.29,0,0,0-1.78,6.25l.14.33-.24.26c-1.41,1.43-1.3,3.49-2.13,5.16-.18,1.61-1.13,3.06-.94,4.74v1.16c-1.31,1.58-1.46,3.59-2,5.46a43.65,43.65,0,0,1-1.41,4.51c.14,1.43-.85,2.55-1,3.88.21,1.39-.63,2.51-1,3.76.41,1.48-1.05,2.7-.57,4.18v1.16c-1.31,1.61-1.48,3.63-2,5.53q-.63,2.34-1.43,4.63c0,1.91-1.09,3.61-1.1,5.52-.42,2.52-1.76,4.88-1.29,7.54a.43.43,0,0,1-.15.69c-1.47,1.69-1.4,4-2.39,5.9.29,1.71-.83,3.24-.64,4.94,0,.4,0,.81,0,1.21a8.08,8.08,0,0,0-1.71,4.3c-.47,3.88-2.27,7.5-2.25,11.48,0,.39,0,.78,0,1.17a12.15,12.15,0,0,0-2,6.8v1.16c-1.85,2.41-2,5.22-1.85,8.09a.65.65,0,0,1-.14.87,12.05,12.05,0,0,0-2,6.84l0,1.21c-1.51,1.49-1.3,3.54-1.75,5.38a52.18,52.18,0,0,0-1.72,7.08c-.23.76-.44,1.89-1.47.92s-.42-2.2-.42-3.32q0-62.72,0-125.45A6.11,6.11,0,0,1,271.06,260.12Z" transform="translate(6.23 -9.58)"/><path class="cls-3" d="M310.56,133.48,271.87,92.11c5.41-1,9.91-2,14.42-2.78,2.09-.38,3.13-1.19,2.88-3.63-1.56-15.34-5-30.08-13.51-43.24-11.57-17.9-28.3-20.92-45.53-8.19-8.61,6.35-14.71,14.81-19.94,23.95a160.24,160.24,0,0,0-15.9,39.6c-.86,3.33-2,6.39-5.7,7.53-5.84,1.82-11.53-3.09-9.93-9.16,6.43-24.48,15.71-47.66,33.32-66.52,9.43-10.1,20.78-16.77,35-18.24C261.82,9.9,273.61,15.58,283,26.5c12.19,14.14,17.71,31.32,21.09,49.3,1.68,8.9,1.51,8.93,10.13,6.85,2.42-.58,4.88-1,7.25-1.76,3.44-1,4-.15,3,3.25C319.83,100.22,315.38,116.37,310.56,133.48Z" transform="translate(6.23 -9.58)"/><path class="cls-3" d="M264.42,106.63c-7.7,14.53-15.18,28.66-23.21,43.8l-26-43.27c4.41,0,8.17-.22,11.9.07,3.29.25,4.22-.82,4.19-4.13-.19-20.59,0-41.18-.33-61.77-.07-4.75,1-6.81,5.93-5.86a8.77,8.77,0,0,0,3,0c3.69-.55,4.73.86,4.7,4.63-.2,20.42.05,40.85-.21,61.27-.06,4.53,1.24,5.73,5.59,5.32C254.53,106.29,259.16,106.63,264.42,106.63Z" transform="translate(6.23 -9.58)"/><path class="cls-4" d="M214.52,339.82c.92,1.72.53,3.59.54,5.39.12,26.59.27,53.17.21,79.76,0,3.61.74,4.86,4.61,4.8q22.92-.36,45.86,0c3.82.06,4.7-1.13,4.72-4.78,0-7.1-.83-14.24.58-21.29.09,7.46.3,14.92.19,22.39,0,2.82.79,3.72,3.64,3.64,6.63-.2,13.29.13,19.92-.15,3.47-.15,5.49.77,7.7,3.77,6.58,8.95,13.83,17.41,20.77,26.1,1.07,1.34,3.27,3,1.38,4.61-2.31,1.94-3.36-1-4.48-2.32q-10.4-12.74-20.63-25.6c-1.19-1.49-2.28-2.62-4.44-2.59-7.76.11-15.53,0-24.61,0,3,3.09,5.28,5.38,7.54,7.65,6,6,12,11.95,17.93,18,1.24,1.27,4,2.64,2.1,4.72s-3.46-.65-4.7-1.87c-8.41-8.28-16.7-16.66-25.07-25-1.28-1.28-2.73-2.38-4.1-3.56a139.59,139.59,0,0,0-24.87.15c7,9,15.91,16.21,23.67,24.5,1,1.09,2.11,2.1,3.07,3.25a1.83,1.83,0,0,1,0,2.67,1.87,1.87,0,0,1-2.68,0c-1-.84-1.91-1.83-2.85-2.75l-28.3-27.81c-5.64-.43-11.28-.94-16.89.27,7.3,8.87,16.11,16.27,23.89,24.66,1.41,1.52,5.06,3.12,2.85,5.36-2.65,2.67-4.16-1.36-5.67-2.82q-12.54-12.12-24.7-24.65a8.45,8.45,0,0,0-7-2.83c-4.94.2-9.89.06-16.13.06,3.58,3.67,6.38,6.56,9.22,9.42,5.62,5.65,11.29,11.27,16.9,16.93,1.14,1.14,2.92,2.53,1.24,4.14s-2.95-.36-4-1.46q-14.13-14.06-28.21-28.19c-.92-.91-2.27-1.79-1.72-3.31.65-1.81,2.42-1.43,3.86-1.44,8,0,16-.24,23.93.07,3.81.15,4.68-1,4.65-4.72-.2-26.92-.18-53.84-.2-80.77C214.24,342.79,214.42,341.31,214.52,339.82Z" transform="translate(6.23 -9.58)"/><path class="cls-5" d="M271.06,260.12q0,55.51,0,111V390.6c.44-.16.82-.18.9-.34a8.32,8.32,0,0,0,.42-1.42.47.47,0,0,1,.82,0,21.85,21.85,0,0,1-1.8,9.05c-1.73-1.16-1.21-3-1.21-4.55q0-64.47,0-128.93C270.24,262.92,269.84,261.35,271.06,260.12Z" transform="translate(6.23 -9.58)"/><path class="cls-6" d="M342.55,162.27c-7.44,1.77-15,.94-22.5.88-1.93-.73-3.94-.16-5.91-.36a1.37,1.37,0,0,1-1.27-.62c10.74-.79,21.48-1.18,32.21.14A1.59,1.59,0,0,1,342.55,162.27Z" transform="translate(6.23 -9.58)"/><path class="cls-7" d="M239.31,433.7a7.59,7.59,0,0,1,.07-.79c8.27.07,16.58-1.17,24.8.64Z" transform="translate(6.23 -9.58)"/><path class="cls-8" d="M282.15,351.81c-1.46-4.36,1.11-8.07,2-12.05.59.14.66.74,1,1.13C284.34,344.6,283.8,348.35,282.15,351.81Z" transform="translate(6.23 -9.58)"/><path class="cls-9" d="M215.37,433.82c5.6-2.06,11.24-1.46,16.89-.27Z" transform="translate(6.23 -9.58)"/><path class="cls-10" d="M312.87,162.17l1.11.47.12.51-16.07.56c1.16-2.93,3.66-1.17,5.48-1.39A81.07,81.07,0,0,1,312.87,162.17Z" transform="translate(6.23 -9.58)"/><path class="cls-11" d="M339,172.88c.45-3.37,2.27-6,4.36-8.58a.68.68,0,0,1,1,.16A27.68,27.68,0,0,1,339,172.88Z" transform="translate(6.23 -9.58)"/><path class="cls-12" d="M276.15,376.74c-1-2.79-1.18-5.3,2-6.84A14.84,14.84,0,0,1,276.15,376.74Z" transform="translate(6.23 -9.58)"/><path class="cls-13" d="M289.3,323.29c-2.34-2.74-.05-5.07.67-7.54.68.08.74.72,1,1.15C290.63,319.08,290.42,321.31,289.3,323.29Z" transform="translate(6.23 -9.58)"/><path class="cls-12" d="M280.14,359.78c-1.06-2.77-1.12-5.24,2-6.8A13.84,13.84,0,0,1,280.14,359.78Z" transform="translate(6.23 -9.58)"/><path class="cls-14" d="M278.29,369c-1.53-3.19-.94-5.89,1.85-8.09Q279.22,365,278.29,369Z" transform="translate(6.23 -9.58)"/><path class="cls-15" d="M298.34,282.12c1-1.63-.5-4.62,2.76-5a18.23,18.23,0,0,1-1.85,7.09C298.41,283.76,298.87,282.72,298.34,282.12Z" transform="translate(6.23 -9.58)"/><path class="cls-13" d="M292.43,305.12c.94-1.66-.6-4.63,2.68-5.05a17.78,17.78,0,0,1-1.82,7.11C292.41,306.75,292.87,305.74,292.43,305.12Z" transform="translate(6.23 -9.58)"/><path class="cls-16" d="M286.35,330c1-2-.64-5.17,2.8-6-.33,2.09-.18,4.33-1.91,6C287,330.39,286.67,330.41,286.35,330Z" transform="translate(6.23 -9.58)"/><path class="cls-17" d="M304.26,265.47c-1.48-2.67-1.08-4.81,1.78-6.25A14.58,14.58,0,0,1,304.26,265.47Z" transform="translate(6.23 -9.58)"/><path class="cls-18" d="M279.31,219.34c-.29,1.88-.42,3.82-2.18,5.07-1.68-2.5.34-4.21,1.29-6.16C279.28,218.16,279.83,218.32,279.31,219.34Z" transform="translate(6.23 -9.58)"/><path class="cls-19" d="M275.25,232.8c-.51,1.81-.39,3.85-1.82,5.36l-1.07,0C271.85,235.59,272.69,233.73,275.25,232.8Z" transform="translate(6.23 -9.58)"/><path class="cls-20" d="M282.13,210.19a12.07,12.07,0,0,1-1.77,6.24c-.63-.15-.71-.79-1.05-1.21a10.68,10.68,0,0,1,2-5C281.61,209.74,281.87,209.74,282.13,210.19Z" transform="translate(6.23 -9.58)"/><path class="cls-21" d="M277.23,225.83a12.58,12.58,0,0,1-2.11,6.72C273.66,229.63,275.05,227.61,277.23,225.83Z" transform="translate(6.23 -9.58)"/><path class="cls-22" d="M282.13,210.19l-.39,0h-.39c-.79-2.17.59-4,1-6,.87-.25,1.31.21,1.59.93C283.34,206.84,282.73,208.51,282.13,210.19Z" transform="translate(6.23 -9.58)"/><path class="cls-23" d="M273.24,388.8l-.41.06-.41,0c.31-2.09.45-4.22,1.57-6.09.39-.43.76-.43,1.1.05C274.78,384.89,274.88,387.11,273.24,388.8Z" transform="translate(6.23 -9.58)"/><path class="cls-24" d="M301.38,271.19c.8-1.78-.41-4.64,2.78-5.13a13.87,13.87,0,0,1-1.81,6.25C301.69,272.23,301.64,271.62,301.38,271.19Z" transform="translate(6.23 -9.58)"/><path class="cls-18" d="M283.94,205.16l-1.59-.93c1-1.5.54-3.63,2.07-4.91.9-.13,1.35.12.94,1.11Z" transform="translate(6.23 -9.58)"/><path class="cls-17" d="M295.19,171.8c-.64,2,.16,4.73-2.92,5.38C292.4,174.93,292.75,172.8,295.19,171.8Z" transform="translate(6.23 -9.58)"/><path class="cls-25" d="M309.22,245.13a12.14,12.14,0,0,1,2-6.39c1.79,2.56-.32,4.36-1.24,6.39C309.73,245.6,309.48,245.58,309.22,245.13Z" transform="translate(6.23 -9.58)"/><path class="cls-26" d="M291,316.9c-.34-.38-.69-.76-1-1.15q.69-2.88,1.37-5.76a.51.51,0,0,1,.86,0C292.67,312.44,291,314.53,291,316.9Z" transform="translate(6.23 -9.58)"/><path class="cls-27" d="M316.19,227.33c-1.52-2.55-.85-4.27,1.95-5.19Z" transform="translate(6.23 -9.58)"/><path class="cls-28" d="M309.22,245.13H310a16.94,16.94,0,0,1-1.74,6.34C306.48,249,308.22,247.14,309.22,245.13Z" transform="translate(6.23 -9.58)"/><path class="cls-29" d="M306.05,258c-.93-2.49-.8-4.62,2-5.79A10.7,10.7,0,0,1,306.05,258Z" transform="translate(6.23 -9.58)"/><path class="cls-16" d="M319.18,219.33c-1.63-2.61-.7-4.25,2-5.21Z" transform="translate(6.23 -9.58)"/><path class="cls-30" d="M312.38,234.23c.78-1.39.07-3.77,2.65-4a9.62,9.62,0,0,1-1.67,5.27C312.66,235.38,312.62,234.73,312.38,234.23Z" transform="translate(6.23 -9.58)"/><path class="cls-31" d="M289,190.2c-.52,1.52-.52,3.26-1.86,4.44-1.53-2.19.12-3.85,1-5.65C288.66,189.15,288.71,189.75,289,190.2Z" transform="translate(6.23 -9.58)"/><path class="cls-32" d="M298.19,164.74c-.88,1.52.17,4.3-2.87,4.4C295.49,167.16,295.85,165.31,298.19,164.74Z" transform="translate(6.23 -9.58)"/><path class="cls-33" d="M292.21,179.92c-.4,1.94-.46,4-1.81,5.63-.7-.12-.74-.75-1-1.23C290,182.61,289.91,180.52,292.21,179.92Z" transform="translate(6.23 -9.58)"/><path class="cls-34" d="M289.41,184.32l1,1.23q-.72,2.32-1.45,4.65L288,189Z" transform="translate(6.23 -9.58)"/><path class="cls-17" d="M285.36,200.43l-.94-1.11c.65-1.69.12-4.1,2.79-4.56C286.83,196.73,286.7,198.77,285.36,200.43Z" transform="translate(6.23 -9.58)"/><path class="cls-35" d="M326.21,201.57c-1.37-2.29-1-3.82,1.86-4.3A8.76,8.76,0,0,1,326.21,201.57Z" transform="translate(6.23 -9.58)"/><path class="cls-36" d="M292.2,310l-.43,0h-.43c.37-1.62.73-3.25,1.09-4.87l.86,2.06C293.16,308.21,293.51,309.42,292.2,310Z" transform="translate(6.23 -9.58)"/><path class="cls-37" d="M321.21,213.63c-1.45-2.4-.68-3.85,2-4.5A9.44,9.44,0,0,1,321.21,213.63Z" transform="translate(6.23 -9.58)"/><path class="cls-38" d="M323.21,208.64c-1.37-2.18-.85-3.61,1.7-4.21C324.64,206,324.4,207.49,323.21,208.64Z" transform="translate(6.23 -9.58)"/><path class="cls-33" d="M329.19,194.67c-1.6-1.85-.2-3.19.77-4.6.62.12.67.71.92,1.14Z" transform="translate(6.23 -9.58)"/><path class="cls-6" d="M330.88,191.21l-.92-1.14c.74-1.55.46-3.94,3.17-3.88Z" transform="translate(6.23 -9.58)"/><path class="cls-39" d="M298.34,282.12c.3.7.61,1.4.91,2.09-.07,1,.09,2.13-.89,2.88-.38.44-.75.41-1.1,0Z" transform="translate(6.23 -9.58)"/><path class="cls-40" d="M286.35,330a2.05,2.05,0,0,0,.89,0,7.24,7.24,0,0,1-1.12,4.88C284.23,333.12,286.71,331.62,286.35,330Z" transform="translate(6.23 -9.58)"/><path class="cls-41" d="M285.07,340.89l-1-1.13c.21-1.49-.32-3.37,2-3.73C285.76,337.65,285.41,339.27,285.07,340.89Z" transform="translate(6.23 -9.58)"/><path d="M344.4,164.46l-1-.16c-.06-.77-1.61-.92-.86-2l2.54,0C346.22,163.46,345.19,163.92,344.4,164.46Z" transform="translate(6.23 -9.58)"/><path class="cls-42" d="M301.38,271.19l1,1.12c.16,1.42-.67,2.49-1.26,3.65C299.37,274.26,301.49,272.79,301.38,271.19Z" transform="translate(6.23 -9.58)"/><path class="cls-16" d="M312.38,234.23l1,1.31c-.17,1.43-.14,3-2.25,3C311.54,237.11,312,235.67,312.38,234.23Z" transform="translate(6.23 -9.58)"/><path class="cls-18" d="M275.09,382.8l-1.1-.05c.45-1.72-.49-4.05,2.13-4.8C275.78,379.56,275.44,381.18,275.09,382.8Z" transform="translate(6.23 -9.58)"/><path class="cls-11" d="M297.26,287.05l1.1,0c.19,1.53-.64,2.71-1.36,3.93h-.69C296.62,289.7,296.94,288.38,297.26,287.05Z" transform="translate(6.23 -9.58)"/><path class="cls-43" d="M296.31,291H297c.69,1.59-.34,2.74-1,4-.23.44-.47.46-.71,0Z" transform="translate(6.23 -9.58)"/><path class="cls-44" d="M295.29,295H296c.64,1.52-.31,2.67-.89,3.9C293.25,297.52,295.27,296.32,295.29,295Z" transform="translate(6.23 -9.58)"/><path class="cls-45" d="M279.31,215.22l1.05,1.21a3.82,3.82,0,0,1-1.05,2.91l-.89-1.09C278.72,217.24,279,216.23,279.31,215.22Z" transform="translate(6.23 -9.58)"/><path class="cls-46" d="M314.1,163.15a1.27,1.27,0,0,0-.12-.51c2-.13,4.15-.86,6.07.51Z" transform="translate(6.23 -9.58)"/></svg>