<svg id="Layer_12" data-name="Layer 12" xmlns="http://www.w3.org/2000/svg" viewBox="0 0 512 512"><defs><style>.cls-1{fill:#fefefe;}.cls-2{fill:#b9b9b9;}.cls-3{fill:#90af14;}.cls-4{fill:#444;}.cls-5{fill:#171717;}.cls-6{fill:#494949;}.cls-7{fill:#373737;}.cls-8{fill:#5b5b5b;}.cls-9{fill:#3e3e3e;}.cls-10{fill:#434343;}.cls-11{fill:#0b0b0b;}.cls-12{fill:#242424;}.cls-13{fill:#5d5d5d;}.cls-14{fill:#151515;}.cls-15{fill:#5e5e5e;}.cls-16{fill:#181818;}.cls-17{fill:#383838;}.cls-18{fill:#3a3a3a;}.cls-19{fill:#565656;}.cls-20{fill:#232323;}.cls-21{fill:#282828;}.cls-22{fill:#505050;}.cls-23{fill:#2f2f2f;}.cls-24{fill:#545454;}.cls-25{fill:#575757;}.cls-26{fill:#3b3b3b;}.cls-27{fill:#0f0f0f;}.cls-28{fill:#515151;}.cls-29{fill:#474747;}.cls-30{fill:#404040;}.cls-31{fill:#525252;}.cls-32{fill:#555;}.cls-33{fill:#020202;}.cls-34{fill:#484848;}.cls-35{fill:#4d4d4d;}.cls-36{fill:#343434;}.cls-37{fill:#4a4a4a;}.cls-38{fill:#595959;}.cls-39{fill:#5f5f5f;}.cls-40{fill:#2a2a2a;}.cls-41{fill:#3d3d3d;}.cls-42{fill:#1c1c1c;}.cls-43{fill:#4b4b4b;}.cls-44{fill:#606060;}.cls-45{fill:#5c5c5c;}.cls-46{fill:#393939;}</style></defs><title>compression</title><path class="cls-1" d="M-1.34,262.25q0-126-.1-251.92c0-3.42.67-4.09,4.09-4.08q251.91.15,503.83,0c3.41,0,4.09.66,4.08,4.08q-.15,251.91,0,503.83c0,3.41-.67,4.09-4.08,4.09q-251.91-.16-503.83,0c-3.41,0-4.09-.67-4.09-4.09Q-1.25,388.21-1.34,262.25Z" transform="translate(1.44 -6.25)"/><path d="M219,425.33q.18-99.13.36-198.28c0-22.26.18-44.51.07-66.76,0-3.5.94-4.5,4.41-4.4,8,.21,15.92,0,23.88,0,8.29-.75,16.59-.11,24.87-.36,2.11-.07,2.89.71,3,2.86.26,7.11,1,14.19.95,21.33q-.17,80.48-.05,160.94c0,2.82-.25,5.66.72,8.39.85,12.55.23,25.12.35,37.67.46,1.65-.09,3.2-.45,4.78-2.18,11.24-.59,22.59-.91,33.88-1.69,1.79-3.92,1.5-6,1.5q-22.55,0-45.09,0C222.9,426.84,220.67,427.13,219,425.33Z" transform="translate(1.44 -6.25)"/><path class="cls-2" d="M277,388.56c-1-.28-1.05-1.11-1-1.95q.09-18.39.19-36.78a5.52,5.52,0,0,1,1.2-2.74c.71-1,1.3-2,2-3a25.52,25.52,0,0,0,1.76-3.1c.71-1.21,1.55-2.34,2.26-3.56a11.12,11.12,0,0,0,1.69-3.17,6.52,6.52,0,0,1,.54-1.13,12.66,12.66,0,0,0,2.33-3.66,8.33,8.33,0,0,1,.52-1.14l2.79-4.09a18.76,18.76,0,0,0,1.78-3.15c.44-.92.88-1.84,1.33-2.75.58-1.11,1.15-2.21,1.65-3.35s.86-2.4,1.39-3.56a29,29,0,0,0,2.79-5.1c.81-1.79,1.26-3.72,2-5.52A24.72,24.72,0,0,0,304,297.4c.38-1,.82-2,1.24-3a43.4,43.4,0,0,0,1.5-4.28c.41-1.28.93-2.5,1.45-3.73a39.15,39.15,0,0,0,1.54-4.46c.82-2.37,1.32-4.82,1.93-7.24.47-1.87,1.16-3.72.78-5.71a34.42,34.42,0,0,1,.23-3.79,8.35,8.35,0,0,0,.33-7,21.8,21.8,0,0,1-.4-4.26c.07-1.92-.71-3.71-.93-5.59a18.66,18.66,0,0,0-1.45-5.23c-.5-1.22-1-2.45-1.43-3.7a23.21,23.21,0,0,0-3.23-6.18,7.87,7.87,0,0,1-.53-1.14,17.42,17.42,0,0,0-1.95-3.79,18.34,18.34,0,0,0-1.88-3.12c-1.1-1.25-2-2.65-3-4a19.76,19.76,0,0,0-4.92-4.19c-4.74-5.56-10.63-9.91-15.79-15a6.22,6.22,0,0,1-2-4.38c0-9.72,0-19.44.05-29.16,0-1.55-.31-3.71,2.55-2.53,4.65,3.22,9.32,6.41,12.87,10.94a18.2,18.2,0,0,1,5,5c4,2,6.34,5.61,9,8.93a20,20,0,0,0,3.91,2.94c.57,1.82,3.28,2.18,3.09,4.52.78,1.73,2.45,2.47,3.89,3.46l12.27,17.37a4.77,4.77,0,0,0,1.61,3.51l3.22,5.63c-.22,1.86,1.05,3.08,1.91,4.47l1,1.72a18.53,18.53,0,0,0,1.44,5.57c.54,1.49,1.38,2.87,1.51,4.5.31,2.25.61,4.51,2.12,6.36l.17.32-.27.23c.21,3.51,1,7,1,10.49-.45,2.73.83,5.47,0,8.2a3,3,0,0,1,0,2.65,17.21,17.21,0,0,0-1.54,6.69,13.29,13.29,0,0,0-1,4c-.35,2.19-1.49,4.23-1.32,6.53-1.07,1-.73,2.45-1.09,3.67-1.34,1.25-1.63,3.21-3,4.42l.11.16a6.61,6.61,0,0,1-2.1,4.77c.74,1.82-.23,3.27-1.06,4.75A3.2,3.2,0,0,0,329,311c-.73,1.67-1.2,3.51-2.82,4.65-1.33,1.14-1.83,2.84-2.8,4.22-.66,1.81-2.08,3.15-3,4.81a14.78,14.78,0,0,1-2,3.13,18.63,18.63,0,0,1-2.06,3.11c-.45,1.22-1.46,2.07-2.09,3.16-.38,1.31-1.69,1.93-2.25,3.1.81,1.92-1.52,2.05-1.9,3.29-1.32,1.55-2.77,3-3,5.21l0-.07a7.69,7.69,0,0,0-3.43,3.43c-.57,1.17-1.78,1.82-2.37,3-.7,1.57-2.2,2.75-2.23,4.64l.05-.07a7.69,7.69,0,0,0-3.43,3.43c-.63,1-1.56,1.93-1.46,3.29l-2.09,2.11a40.9,40.9,0,0,0-2.72,3.4c-.38,1.11-1.66,1.87-1.29,3.27L282,382.52c-1.37.63-2,2-3,3l.09-.11C278.07,386.25,278.27,387.87,277,388.56Z" transform="translate(1.44 -6.25)"/><path class="cls-3" d="M269.22,104.33C261.46,119,254,133.09,246,148.12l-26-43.27c4.25,0,8-.25,11.63.07,3.49.3,4.52-.8,4.48-4.35-.21-20.59-.05-41.19-.32-61.78-.06-4.41.9-6.54,5.62-5.64a7.18,7.18,0,0,0,2.49,0c4.27-.69,5.57.83,5.51,5.34-.28,20.42,0,40.85-.21,61.27,0,3.79,1,4.91,4.77,4.63C258.77,104.06,263.6,104.33,269.22,104.33Z" transform="translate(1.44 -6.25)"/><path class="cls-4" d="M219,425.33h57.17c8.48,0,17,0,25.43-.08,1.68,0,3,0,4.3,1.67,7,9.08,14.12,18,21.22,27,.62.79,1.27,1.54,1.88,2.32,1,1.24,1.93,2.7.23,3.84-1.37.91-2.44-.35-3.29-1.41-4.68-5.83-10-11.26-13.89-17.58-5.95-9.66-13.66-14-25-11.95-3.55.64-7.29.21-10.94.27l-.92.18a140.39,140.39,0,0,0-26.32-.62c-9.9.63-19.79-1.12-29.66.25-.81.1-2.06-.09-2.35.36-.74,1.1.65,1.57,1.24,2.16,7.48,7.56,15,15.06,22.53,22.58.82.82,1.65,1.64,2.44,2.49s1.44,1.94.26,3-2.15.51-3.07-.37-1.66-1.63-2.49-2.45c-7.63-7.63-15.44-15.11-22.83-23-3.33-3.55-6.78-5.39-11.68-4.81-2.88.34-5.83.06-10.1.06l24.35,24.32c1.06,1.05,2.16,2.07,3.14,3.19.82.94,1.3,2.11.21,3.09s-2.13.42-3-.48c-1.88-1.88-3.78-3.74-5.66-5.62q-11.8-11.81-23.6-23.62c-.91-.91-2.26-1.77-1.78-3.3.6-1.88,2.38-1.47,3.81-1.48C200,425.33,209.51,425.34,219,425.33Z" transform="translate(1.44 -6.25)"/><path class="cls-5" d="M278,347.54l-1.81,2.29c-1.48-2.25-1.15-4.78-1.16-7.26,0-60.33-.13-120.65,0-181,0-4.78-1.51-5.84-5.92-5.65-7.13.3-14.28,0-21.42-.09,8.41-1.07,16.86-.46,25.28-.87,2.7-.14,3.11,1.23,2.83,3.32a9.51,9.51,0,0,0,2.3,7.68c-2.24-.33-2.25,1.1-2.25,2.71.05,9.29.32,18.59-.11,27.85-.14,3.13,3.44,3.53,3.12,6.23-1.27,1.72-1.29,3.73-1.29,5.73q0,68.34,0,136.66A3.47,3.47,0,0,1,278,347.54Z" transform="translate(1.44 -6.25)"/><path class="cls-6" d="M276.08,429.41c7.69,8.9,16.49,16.69,24.62,25.15.91.95,1.88,1.87,2.71,2.9a1.58,1.58,0,0,1-.11,2.24,1.73,1.73,0,0,1-2.24.42,12.38,12.38,0,0,1-2.26-1.91Q284.41,443.8,270,429.35c1.85-.86,3.76-.52,5.66-.21Z" transform="translate(1.44 -6.25)"/><path class="cls-6" d="M244.1,429.36c7,8.88,15.71,16,23.38,24.22,1,1.09,2.14,2.1,3.14,3.21.84.92,1.32,2.08.23,3.07s-2.14.52-3.06-.4c-.24-.23-.49-.45-.72-.69L238,429.41A8,8,0,0,1,244.1,429.36Z" transform="translate(1.44 -6.25)"/><path class="cls-7" d="M244.1,429.36l-6.11.05-18.81-.19c.89-1,2.08-.86,3.23-.86H273c1,0,2-.16,2.72.78l-5.66.21Z" transform="translate(1.44 -6.25)"/><path class="cls-8" d="M341.84,270.15c-.23-2.84-1.7-5.57-.8-8.52.85-1.24-.32-2.95.95-4.09C343.12,261.76,343.57,266,341.84,270.15Z" transform="translate(1.44 -6.25)"/><path class="cls-8" d="M341,250.91c-3.21-1-2.07-4.09-2.86-6.24.46-.56.06-1.48.8-1.93C340.19,245.31,340.53,248.12,341,250.91Z" transform="translate(1.44 -6.25)"/><path class="cls-9" d="M342,257.54c-.51,1.32.28,2.94-.95,4.09.11-3.39-1.41-6.75-.19-10.16C342.34,253.28,341.74,255.49,342,257.54Z" transform="translate(1.44 -6.25)"/><path class="cls-10" d="M338,290c-1.69-2.39,0-4.42.7-6.56.67.13.73.78,1,1.23C339.29,286.49,339.24,288.44,338,290Z" transform="translate(1.44 -6.25)"/><path class="cls-11" d="M277,388.56c1-.83.22-2.83,2-3.14a7.72,7.72,0,0,1-2,6C275.76,390.51,277.35,389.52,277,388.56Z" transform="translate(1.44 -6.25)"/><path class="cls-12" d="M295.94,181.93c-1.94-1.39-3.85-2.8-5-5C293.69,177.54,295.83,178.72,295.94,181.93Z" transform="translate(1.44 -6.25)"/><path class="cls-13" d="M307,345.63c-1.36-3.13.83-4.18,3-5.21C310,342.74,308.16,344,307,345.63Z" transform="translate(1.44 -6.25)"/><path class="cls-14" d="M339.73,279.68c.32-2.4-.24-5.07,2.08-6.88-.36,2.3-.72,4.59-1.07,6.89A.65.65,0,0,1,339.73,279.68Z" transform="translate(1.44 -6.25)"/><path class="cls-15" d="M299,356.6c-1.42-2.61.73-3.66,2.19-5,.46-.44.85-.38,1.17.17Z" transform="translate(1.44 -6.25)"/><path class="cls-16" d="M320.39,324.55a6.91,6.91,0,0,1,3.47-5l-.1,0c0,2.21-1.74,3.45-2.86,5Z" transform="translate(1.44 -6.25)"/><path class="cls-8" d="M337,239.78c-1.95-1.43-1.78-3.31-1.11-5.3a7.32,7.32,0,0,1,1.75,5.36Z" transform="translate(1.44 -6.25)"/><path class="cls-17" d="M333.85,298.08c.91-1.54,0-4.3,3-4.42C336.11,295.3,336.73,297.89,333.85,298.08Z" transform="translate(1.44 -6.25)"/><path class="cls-18" d="M331.86,303a8.73,8.73,0,0,1,2.1-4.77C335,300.61,334.35,302.2,331.86,303Z" transform="translate(1.44 -6.25)"/><path class="cls-19" d="M303.07,348.59c1-1.48,1.41-3.62,3.95-3l-3,4A1.68,1.68,0,0,1,303.07,348.59Z" transform="translate(1.44 -6.25)"/><path class="cls-20" d="M308.85,193.8c-1.84-.27-3.78-.39-3.91-2.94C307.28,190.46,307.93,192.31,308.85,193.8Z" transform="translate(1.44 -6.25)"/><path class="cls-21" d="M315.83,201.78c-2.16-.18-4.21-.49-3.89-3.46C314,198.59,314.93,200.18,315.83,201.78Z" transform="translate(1.44 -6.25)"/><path class="cls-19" d="M295.08,359.54c1-1.42,1.42-3.6,4-3l-3,4.1C295.4,360.53,295.33,360,295.08,359.54Z" transform="translate(1.44 -6.25)"/><path class="cls-22" d="M329.71,222.66c-2-.5-3.16-1.38-1.61-3.51A3.87,3.87,0,0,1,329.71,222.66Z" transform="translate(1.44 -6.25)"/><path class="cls-23" d="M339.73,279.68h1c-.35,1.65-.69,3.31-1,5l-1-1.23C338.75,282.1,338.67,280.73,339.73,279.68Z" transform="translate(1.44 -6.25)"/><path class="cls-24" d="M314.1,333.61a3.59,3.59,0,0,1,2-3,.7.7,0,0,1,1.22.09c-.59,1.07-.87,2.34-2.07,3A.67.67,0,0,1,314.1,333.61Z" transform="translate(1.44 -6.25)"/><path class="cls-25" d="M314.1,333.61l1.14.09c-.73,1.51-1.2,3.27-3.32,3.43A4,4,0,0,1,314.1,333.61Z" transform="translate(1.44 -6.25)"/><path class="cls-26" d="M334.84,232.76c-2-.91-3-2.26-1.91-4.47A7.32,7.32,0,0,1,334.84,232.76Z" transform="translate(1.44 -6.25)"/><path class="cls-27" d="M323.76,319.57l.09,0a3.39,3.39,0,0,1,2.29-3.95C325.65,317.1,325.43,318.77,323.76,319.57Z" transform="translate(1.44 -6.25)"/><path class="cls-24" d="M289.15,368.54a3.59,3.59,0,0,1,2.91-3.18c.2,1.47-.65,2.41-1.65,3.28C290,369.15,289.53,369.12,289.15,368.54Z" transform="translate(1.44 -6.25)"/><path class="cls-28" d="M289.15,368.54l1.26.1c-.66,1.22-1.08,2.6-2.36,3.39C286.41,370.23,288.06,369.48,289.15,368.54Z" transform="translate(1.44 -6.25)"/><path class="cls-29" d="M279,385.53c.77-1.22.07-3.88,3-3C281.31,383.87,281,385.51,279,385.53Z" transform="translate(1.44 -6.25)"/><path class="cls-30" d="M337,239.78a1.18,1.18,0,0,0,.64.06c.49.93,1.49,1.66,1.26,2.9l-.81,1.93C337.72,243,337.36,241.41,337,239.78Z" transform="translate(1.44 -6.25)"/><path class="cls-31" d="M320.39,324.55l.27-.15.24.19a4,4,0,0,1-1.64,3.13q-.66.69-1.2-.09C318.32,326.21,318.86,325,320.39,324.55Z" transform="translate(1.44 -6.25)"/><path class="cls-31" d="M318.06,327.63l1.2.09c-.65,1-1.3,2-2,3l-1.21-.09A3.82,3.82,0,0,1,318.06,327.63Z" transform="translate(1.44 -6.25)"/><path class="cls-32" d="M295.08,359.54l.93,1.09-1.86,2.62C292.26,361.46,294.52,360.71,295.08,359.54Z" transform="translate(1.44 -6.25)"/><path class="cls-33" d="M329,311c-.85-1.91-.22-3,1.84-3.19Z" transform="translate(1.44 -6.25)"/><path class="cls-34" d="M303.07,348.59l.9,1-1.62,2.16-1.17-.17Z" transform="translate(1.44 -6.25)"/><path class="cls-1" d="M277.2,346.65c-2.24.4-1.1-1.4-1.1-2q-.18-70.12-.26-140.24c0-3,.79-3.37,3-1.63,5.68,4,11.09,8.35,15.14,14.13a14.79,14.79,0,0,1,4.46,4.52c1,1.38,2.07,2.66,3,4.05.78,1,1.31,2.2,2,3.28.85,1,1.51,2.18,2.45,3.13l0,1c1.13,2.27,2.25,4.55,3.28,6.87a22.67,22.67,0,0,0,1.19,3.29,26.4,26.4,0,0,1,1.93,6.2c.09,1.52.67,3,.54,4.52.32,2.09.42,4.22.9,6.29.09,1.94.32,3.9-.87,5.64l0,3.13c.29,1.95-.54,3.77-.65,5.67a60.7,60.7,0,0,0-1.85,6.07c-.77,1.91-1,4-2,5.84a20.25,20.25,0,0,0-1.13,3.14c-.54,1.43-1,2.88-1.6,4.29-.58.93-.84,2-1.33,3s-.49,2.14-1.19,3c-1.56,2-1.52,4.58-2.79,6.66-.61,1.41-1.31,2.77-2,4.11-1.23,1-1.17,2.71-1.92,4-.57,1.13-1.18,2.23-1.77,3.35-.58.88-.81,1.93-1.32,2.85a24.23,24.23,0,0,1-1.92,3.26c-1.13,1.29-1.54,3-2.38,4.43l-.12,1.14a20.72,20.72,0,0,0-3.11,4.38l.13,0a20.13,20.13,0,0,1-2.55,3.61c-.52,1.36-1.65,2.4-2.07,3.83a20.82,20.82,0,0,0-2,3.08A11.52,11.52,0,0,1,277.2,346.65Z" transform="translate(1.44 -6.25)"/><path class="cls-35" d="M309.87,280.55a16.06,16.06,0,0,1,1.75-5.93c.43-.46.82-.44,1.19.07-.69,2.64-1.39,5.27-2.08,7.91C308.87,282.58,309.51,281.51,309.87,280.55Z" transform="translate(1.44 -6.25)"/><path class="cls-36" d="M313,265.69c.05-2,.09-4,.14-6,.28-.42.34-1,1-1.15C314.48,261.05,316,263.72,313,265.69Z" transform="translate(1.44 -6.25)"/><path class="cls-37" d="M308.89,239.89c-1.21-2.24-3.29-4.11-2.9-7,2.51,1.22,2.8,3.8,3.71,6A1.56,1.56,0,0,1,308.89,239.89Z" transform="translate(1.44 -6.25)"/><path class="cls-38" d="M299.86,306.61c.64-2.53,1.12-5.12,3-7.14A1,1,0,0,1,303,301a6.6,6.6,0,0,1-2.24,5.59A.55.55,0,0,1,299.86,306.61Z" transform="translate(1.44 -6.25)"/><path class="cls-19" d="M311.76,249c-1.24-1.87-1.35-4.09-1.89-6.18a.68.68,0,0,1,1.08,0c1.42,1.42,1.6,3.27,1.75,5.13C312.44,248.33,312.4,248.93,311.76,249Z" transform="translate(1.44 -6.25)"/><path class="cls-38" d="M299.86,306.61a7.07,7.07,0,0,0,.92,0,6.58,6.58,0,0,1-2.66,5.3,1,1,0,0,1-.24-1.5A6.3,6.3,0,0,1,299.86,306.61Z" transform="translate(1.44 -6.25)"/><path class="cls-38" d="M309.87,280.55c.29.69.57,1.37.86,2.05-.54,1.38-.42,3.06-1.78,4.09a.69.69,0,0,1-1.09,0C308.4,284.58,308.52,282.36,309.87,280.55Z" transform="translate(1.44 -6.25)"/><path class="cls-24" d="M298,221.61a15,15,0,0,1-4-4.71c2.93-.27,3.64,2.11,4.78,4A1.08,1.08,0,0,1,298,221.61Z" transform="translate(1.44 -6.25)"/><path class="cls-39" d="M298,221.61l.76-.73a8.16,8.16,0,0,1,3.1,4,1.58,1.58,0,0,1-.92.94A9.71,9.71,0,0,1,298,221.61Z" transform="translate(1.44 -6.25)"/><path class="cls-40" d="M311.76,249l.94-1.08,1.05,5.86a1,1,0,0,1-1.57,0Z" transform="translate(1.44 -6.25)"/><path class="cls-41" d="M312.81,274.69l-1.19-.07c.4-1.95.1-4.06,1.37-5.8C315.23,270.85,312.9,272.74,312.81,274.69Z" transform="translate(1.44 -6.25)"/><path class="cls-18" d="M289.1,328.45a5.52,5.52,0,0,1,1.86-4.86c.94-.25,1.4,0,1,1C291.28,326.09,291,327.87,289.1,328.45Z" transform="translate(1.44 -6.25)"/><path class="cls-42" d="M312.18,253.78h1.57c.11,1.59.21,3.19.32,4.78-.33.38-.65.77-1,1.15C312.79,257.73,312.49,255.76,312.18,253.78Z" transform="translate(1.44 -6.25)"/><path class="cls-35" d="M297.88,310.39l.24,1.5a5.69,5.69,0,0,1-1.22,3.7c-.91.17-1.45,0-1-1.07A6.31,6.31,0,0,1,297.88,310.39Z" transform="translate(1.44 -6.25)"/><path class="cls-43" d="M285.87,334c.15-2.09.57-4,3.11-4.38A5.7,5.7,0,0,1,285.87,334Z" transform="translate(1.44 -6.25)"/><path class="cls-17" d="M280.68,341.51l2.2-4a1.3,1.3,0,0,1,1.64.09l-2.77,3.87A.63.63,0,0,1,280.68,341.51Z" transform="translate(1.44 -6.25)"/><path class="cls-44" d="M301,225.79c.31-.31.62-.62.92-.94a5.44,5.44,0,0,1,2,3,1.81,1.81,0,0,1-.94,1Z" transform="translate(1.44 -6.25)"/><path class="cls-45" d="M303,228.84c.31-.34.62-.67.94-1,1,1.19,2,2.37,2.06,4C304,231.85,303.48,230.31,303,228.84Z" transform="translate(1.44 -6.25)"/><path class="cls-13" d="M305.12,293.73c.39-1.47.59-3,1.77-4.14a2,2,0,0,1,.91,1c-.37,1.49-.6,3-1.75,4.19C305.41,294.73,305.33,294.17,305.12,293.73Z" transform="translate(1.44 -6.25)"/><path class="cls-26" d="M305.12,293.73l.93,1.06-1.2,2.85c-.84.17-1.38.06-.9-1Z" transform="translate(1.44 -6.25)"/><path class="cls-8" d="M284.52,337.59l-1.64-.09c.77-1.4,1.4-2.94,3.12-3.49A4,4,0,0,1,284.52,337.59Z" transform="translate(1.44 -6.25)"/><path class="cls-46" d="M311,242.79l-1.08,0c-1.3-.65-.73-1.93-1-2.93l.81-1C310.12,240.18,310.53,241.49,311,242.79Z" transform="translate(1.44 -6.25)"/><path class="cls-25" d="M280.68,341.51l1.07-.05a3.2,3.2,0,0,1-1.87,3.05.68.68,0,0,1-1.15-.06C279.28,343.4,279.44,342.1,280.68,341.51Z" transform="translate(1.44 -6.25)"/><path class="cls-9" d="M304,296.66l.9,1A4.17,4.17,0,0,1,303,301l-.17-1.53C303.24,298.55,302.67,297.24,304,296.66Z" transform="translate(1.44 -6.25)"/><path class="cls-15" d="M295.91,314.52l1,1.07-1.8,3.18c-.66-.07-.74-.61-.89-1.08C294.78,316.63,295.34,315.57,295.91,314.52Z" transform="translate(1.44 -6.25)"/><path class="cls-30" d="M294.21,317.69l.89,1.08-1.29,2.75c-.85.14-1.46.06-.91-1C292.71,319.26,293.54,318.51,294.21,317.69Z" transform="translate(1.44 -6.25)"/><path class="cls-18" d="M307.8,290.6l-.91-1c.27-1-.32-2.28,1-2.93l1.09,0C308.57,288,308.19,289.3,307.8,290.6Z" transform="translate(1.44 -6.25)"/><path class="cls-8" d="M292.9,320.49l.91,1a5.42,5.42,0,0,1-1.81,3.11l-1-1Z" transform="translate(1.44 -6.25)"/><path class="cls-32" d="M278.73,344.45l1.15.06a4,4,0,0,1-1.88,3l-.8-.89A3,3,0,0,1,278.73,344.45Z" transform="translate(1.44 -6.25)"/></svg>