<svg id="Layer_15" data-name="Layer 15" xmlns="http://www.w3.org/2000/svg" viewBox="0 0 512 512"><defs><style>.cls-1{fill:#fefefe;}.cls-2{fill:#979797;}.cls-3{fill:#b2b2b2;}.cls-4{fill:#8e8e8e;}.cls-5{fill:#121212;}.cls-6{fill:#3a3a3a;}</style></defs><title>connection</title><path class="cls-1" d="M518.86,259.39q0,125.67.09,251.34c0,3.32-.53,4.14-4,4.14q-251.85-.18-503.72,0c-3.82,0-4.24-1.06-4.24-4.43Q7.09,258.86,7,7.27c0-3.47.56-4.39,4.28-4.39q251.61.18,503.22,0c3.92,0,4.5,1.08,4.49,4.67Q518.78,133.48,518.86,259.39Z" transform="translate(-6.95 -2.88)"/><path d="M131.85,461.76V448.84q-.25-196-.61-392.06c0-3.88,1.22-5.87,4.48-7.78q32.19-18.89,64.1-38.26c4-2.42,7-2.94,11.36-1,9.23,4.22,9.3,4,8.71,14.05-.42,7.3-.59,14.62-1.08,21.92-.17,2.46.34,4.22,2.69,5.22a3.78,3.78,0,0,1,.43.26c4.68,2.83,9.33,7.79,14.07,7.87,4.45.08,9-5,13.5-7.8a25.76,25.76,0,0,0,4.59-3c6.7-6.56,14.64-5.55,22.8-4.24,3.69.59,2.81,3,2.81,5.19q-.09,50.13-.23,100.26c0,12.64.22,25.28-.21,37.91-.15,4.34,1.76,6.82,4.75,9,4.56,3.27,10.6,4.72,12.53,11.15.36,1.2,2.59,1.9,4,2.74q73.63,43.63,147.29,87.25c1.56.92,3.08,1.91,5,3.13-8.16,5.38-15.92,10.65-23.86,15.64-3.58,2.26-5,4.9-4.93,9.32.49,21.1.63,42.22.76,63.34a7.47,7.47,0,0,0,3,6.34c6.79,5.62,13.37,11.48,20.13,17.13,2.09,1.74,2.87,2.68-.17,4.41q-26.62,15.11-53,30.59c-2.68,1.58-4.31.3-6.26-.8L284.14,387.58c-1.41-.8-2.84-1.57-4.32-2.38-1.17,1.5-.63,3-.58,4.39.52,17.44-.34,34.9,1.74,52.31.53,4.46-.59,8.58-6.16,11.19-26.55,12.46-52.8,25.57-79.16,38.43-1.6.78-3.25,1.45-4.15,1.84,0-13.69-.14-27.45.1-41.19.07-3.57-.69-5.76-4-7.48-5-2.6-9.63-7.95-14.48-8-4.61-.08-9.3,5.11-13.94,8C150.4,450.16,141.61,455.66,131.85,461.76Z" transform="translate(-6.95 -2.88)"/><path class="cls-2" d="M409.17,326.93v86.12c-2.09.49-3.36-1.09-4.83-1.93q-72-41.06-144-82.16c-3.14-1.79-6-4.32-9.76-4.73-2.39-.26-1.86-2-1.84-3.34.27-22.75.55-45.51,1.13-68.49,0-.34,3,1.19,4.47,2q66,38.54,131.92,77.23c3.85,2.27,7,2.74,10.92.58C400.76,330.25,404.68,328.88,409.17,326.93Z" transform="translate(-6.95 -2.88)"/><path class="cls-2" d="M431.75,300.92c-11.66,9.6-24.88,15-37.95,20.65-1.78.78-2.85-.11-4.09-.84Q322.86,281.65,256,242.59c-2.88-1.68-3.25-2.58-.23-4.55,10-6.52,20-13.14,29.78-20,2.83-2,4.68-1.08,7.1.36Q359,257.82,425.44,297.15Z" transform="translate(-6.95 -2.88)"/><path class="cls-2" d="M408.68,426.53c-5.18,3-10,5.63-14.6,8.5-1.83,1.14-3.09.35-4.53-.48-39.11-22.48-78.63-44.25-117.64-66.92-13.45-7.82-27.13-15.29-41.55-23.11,4.85-4,9.39-7.67,13.91-11.38,1.11-.91,1.66,0,2.52.52Q325.36,378.73,404,423.75C405.39,424.56,406.78,425.41,408.68,426.53Z" transform="translate(-6.95 -2.88)"/><path class="cls-3" d="M223.41,221.41c-1.76-1.14-1.19-3-1.25-4.54-.59-15.25-1.06-30.5-1.74-45.75-.13-2.89.68-4.49,3.37-5.76q18.22-8.6,36.26-17.59c3.37-1.68,4.23-.85,4.23,2.75q0,18.15.5,36.32a6.57,6.57,0,0,1-3.13,6.19c-4.19,2.95-8.16,6.2-12.23,9.33-6.49,6.55-14.29,11.43-21.6,16.94C226.46,220.32,224.8,220.54,223.41,221.41Z" transform="translate(-6.95 -2.88)"/><path class="cls-3" d="M265.32,373,221.9,399.49c-1.29-3.28-.9-6.12-.94-8.89-.2-13-.2-25.91-.52-38.85-.11-4.15.95-4.4,4.35-2.56,13.15,7.1,26.42,14,39.64,20.93C265.36,370.9,266.72,371.54,265.32,373Z" transform="translate(-6.95 -2.88)"/><path class="cls-3" d="M249.62,205.57c4.37-3,8.83-5.89,13.07-9.07,2.14-1.6,3.77-2,6.19-.42,5.31,3.41,10.81,6.51,16.3,9.63,2.33,1.33,2.36,2.3.11,3.79q-20.13,13.37-40.17,26.91c-2,1.35-3.5,1.17-5.4-.06-4.46-2.9-8.93-5.8-13.58-8.36-3.2-1.75-3.2-3.25-.46-5.26,4-5,9.79-7.7,14.71-11.53C243.22,209,246,206.6,249.62,205.57Z" transform="translate(-6.95 -2.88)"/><path class="cls-4" d="M420.43,404.39c2.35.49,3.32,1.92,4.53,3,7.51,6.49,7.46,6.45-1.58,10.81-2.08,1-3,1-3-1.58C420.46,412.66,420.43,408.73,420.43,404.39Z" transform="translate(-6.95 -2.88)"/><path class="cls-5" d="M249.62,205.57a226.81,226.81,0,0,1-23.94,17.16,2.53,2.53,0,0,0-2.27-1.32c8.43-6.68,17-13.24,26-19C250.09,203.39,246,204.72,249.62,205.57Z" transform="translate(-6.95 -2.88)"/><path class="cls-6" d="M265.32,373c.38-1.18-.39-2-.89-2.91,1.21-.11,2.28.19,2.44,1.53C267,372.54,266.2,373,265.32,373Z" transform="translate(-6.95 -2.88)"/></svg>