<svg id="Layer_17" data-name="Layer 17" xmlns="http://www.w3.org/2000/svg" viewBox="0 0 512 512"><defs><style>.cls-1{fill:#fefefe;}.cls-2{fill:#90af14;}.cls-3{fill:#919191;}.cls-4{fill:#171717;}.cls-5{fill:#0f0f0f;}.cls-6{fill:#686868;}.cls-7{fill:#232323;}.cls-8{fill:#121212;}.cls-9{fill:#181818;}.cls-10{fill:#202020;}.cls-11{fill:#222;}.cls-12{fill:#2f2f2f;}.cls-13{fill:#303030;}.cls-14{fill:#3c3c3c;}.cls-15{fill:#2e2e2e;}.cls-16{fill:#2b2b2b;}.cls-17{fill:#212121;}.cls-18{fill:#2a2a2a;}.cls-19{fill:#242424;}.cls-20{fill:#252525;}.cls-21{fill:#323232;}.cls-22{fill:#343434;}.cls-23{fill:#2d2d2d;}.cls-24{fill:#383838;}.cls-25{fill:#4b4b4b;}.cls-26{fill:#010101;}.cls-27{fill:#4a4a4a;}.cls-28{fill:#292929;}.cls-29{fill:#101010;}</style></defs><title>flexure</title><path class="cls-1" d="M.1,256Q.1,130.12,0,4.2C0,.54.83-.12,4.37-.11Q256,0,507.53-.09c3.32,0,4.47.32,4.47,4.2q-.21,251.85,0,503.68c0,3.46-.74,4.06-4.12,4.06Q256,511.7,4.2,511.89c-4,0-4.16-1.32-4.16-4.51Q.16,381.69.1,256Z" transform="translate(0 0.11)"/><path d="M461.79,266.14c-.55-3.44-3.23-1.55-4.71-1.56-38.47-.24-76.95-.3-115.43-.42q-135.4-.39-270.83-.76c-1.87,0-4-.86-5.65.8.52.84,0,1.21-.69,1.48-1.29.14-2.54-1.59-3.87-.08-.7-.25-1.1-.64-.64-1.41-1.31-1.61-3.1-.78-4.64-.79-9.66-.09-19.32-.23-29,0-4,.11-5.49-.85-5.37-5.18q.69-24.4.63-48.85c0-4.1,1.08-5.11,5.22-5.13q107.4-.34,214.79-1.05,125.88-.72,251.76-1.63c4.52,0,5.84,1,5.6,5.61-.9,17.92-1.42,35.86-1.94,53.8-.08,2.62-.53,3.79-3.53,3.68-8.15-.28-16.31-.22-24.47-.3-.67.52-1.09,1.4-2.08,1.45-2-.33-3.18,2.28-5.31,1.54A1.36,1.36,0,0,1,461.79,266.14Z" transform="translate(0 0.11)"/><path class="cls-2" d="M224.93,131.35c5.83,0,10.83-.24,15.8.09,3.55.22,4.47-.93,4.44-4.4-.18-27.07-.08-54.15-.3-81.22,0-4,.76-5.39,5.09-5.23,12.12.42,12.13.2,12.13,12.22,0,24.41.1,48.83-.1,73.24,0,4,1.15,5,5,4.83,6.46-.34,13-.1,20.19-.1l-29.35,55.35C246.67,167.53,235.91,149.63,224.93,131.35Z" transform="translate(0 0.11)"/><path class="cls-3" d="M60.85,265.2c1.17-2.29,2.31-1.74,3.44,0a30.87,30.87,0,0,1,2.06,3.68A8.29,8.29,0,0,0,68,271.29a.6.6,0,0,1,.19.82c.16,2.15.25,4.32,1.43,6.24,1.55-.31,1.39.87,1.55,1.77-.15,1.67.12,3.17,1.74,4.08a7,7,0,0,1,1.13,4.14c1,1.11-.06,3.14,1.81,3.81,2.47,6.34,5.4,12.51,7.13,19.12-1.52,1.37-3.42.82-5.17,1-3.5,1.11-7.28-1.27-10.71.83l-7.18,0c-3.57-1.15-7.36.42-10.91-.88H46.22a7.8,7.8,0,0,1-6.26-.15c.59-1.63-.27-3.67,1.41-5,1.07-1.24,1.27-3.06,2.7-4.05l.12-1.88c1.51-1.25.85-3.8,2.87-4.74-.46-1.63.92-2.77,1.1-4.22,1.11-1.42,1.09-3.28,1.85-4.83l1.14-2.14a33.67,33.67,0,0,0,2.49-5.34c.85-2.33,2.26-4.41,3-6.79A10.37,10.37,0,0,1,59.08,269l-.18-.21A4.82,4.82,0,0,1,60.85,265.2Z" transform="translate(0 0.11)"/><path class="cls-3" d="M462,267.71c1.68-.82,1.79-5,5.08-2.4,1.08.63,1.24,1.8,1.65,2.82.56,1.44.86,3,2.07,4.13l1.15,3.15c.19,1.78.44,3.54,1.87,4.85l1.16,3.17a10.14,10.14,0,0,0,.83,3.8c.83,1.28.9,2.95,2.08,4,.33.81.67,1.61,1,2.41.43,1.94.51,4,2,5.58l1,2.4a24.32,24.32,0,0,0,1.87,6.41c1.08,2.66.34,4.1-2.68,4.13-3.45,0-6.91,0-10.36,0-1.39,0-2.73.78-4.15.23-7-.47-14-.27-21-.11-1.29.39-2-.11-2.22-1.41.32-1.69,1.5-3.07,1.77-4.78a45.59,45.59,0,0,0,2.31-5.72c.59-1.45,1.37-2.81,2-4.25.79-2.06,2-3.93,2.66-6,.57-.92.85-2,1.35-2.94a14.22,14.22,0,0,0,1.72-4.1c.52-.93.79-2,1.29-2.91a14.84,14.84,0,0,0,1.73-4.13c.54-1,.82-2,1.33-3C460.58,271.42,460.46,269.17,462,267.71Z" transform="translate(0 0.11)"/><path class="cls-4" d="M444.63,312c7.45-.55,14.9-1.76,22.33.18-.83.94-2.15.14-3,.84h-3C455.51,311.86,450,313.78,444.63,312Z" transform="translate(0 0.11)"/><path class="cls-5" d="M444.63,312c5.38.94,10.93-.9,16.24,1h-20c.77-1.37,1.44-2.59,2.11-3.8.9-.11,1.51,0,1,1.15Z" transform="translate(0 0.11)"/><path class="cls-6" d="M67.13,313.08c.93-3.21,3.56-1.67,5.4-1.69,1.56,0,3.12.93,4.72,0,1.79.93,3.88-.29,5.64.8C77.72,314,72.4,313.06,67.13,313.08Z" transform="translate(0 0.11)"/><path d="M470,311.44c3.29-.09,6.61-.44,9.88-.21s4.08-.94,2.81-3.83c-.36-1,.11-1.29,1-1.11.89,1.93,1.85,3.84,1.38,6.08-4.67.76-9.36.2-14,.3C470.35,312.69,470,312.21,470,311.44Z" transform="translate(0 0.11)"/><path class="cls-7" d="M470,311.44c5,1.8,10.13-.21,15.12.93-7,1.1-14.15.79-21.24.69.81-1,2-.79,3-.84Z" transform="translate(0 0.11)"/><path class="cls-8" d="M452.78,290.25a16.57,16.57,0,0,1-2.78,6.17c-.64-.1-.71-.65-.88-1.11.1-2.4,1.66-4.13,2.77-6.07A1.62,1.62,0,0,1,452.78,290.25Z" transform="translate(0 0.11)"/><path class="cls-9" d="M49,312.23c3.62.47,7.4-1,10.91.88C56.32,312.7,52.52,314.5,49,312.23Z" transform="translate(0 0.11)"/><path d="M448.28,300.37q-1.2,2.92-2.42,5.85c-.94.17-1.51,0-1-1.13a11.33,11.33,0,0,1,2.08-4.83A.92.92,0,0,1,448.28,300.37Z" transform="translate(0 0.11)"/><path class="cls-10" d="M56.38,273.34c.37,2.81-.84,5-2.81,6.83l-.37.16a9.85,9.85,0,0,1,3.21-7Z" transform="translate(0 0.11)"/><path class="cls-11" d="M462,267.71c.13,2.2-.87,4-2,5.75-.65-.08-.73-.64-.94-1.09.7-2.17,1-4.52,2.72-6.23Z" transform="translate(0 0.11)"/><path class="cls-12" d="M69.65,278.35c-1.79-1.78-3-3.69-1.43-6.24C69.32,274,70.55,276,69.65,278.35Z" transform="translate(0 0.11)"/><path class="cls-13" d="M477.9,291.28c-2.72-.08-2.14-2.54-2.92-4,.39-.43.46-1.14,1.13-1.34A9,9,0,0,1,477.9,291.28Z" transform="translate(0 0.11)"/><path class="cls-13" d="M480.9,299.27c-3.62-.81-2.52-3.29-2-5.58A8.81,8.81,0,0,1,480.9,299.27Z" transform="translate(0 0.11)"/><path d="M448.28,300.37l-1.37-.11c0-2,1.58-3.25,2.21-4.95l.88,1.11C449.43,297.74,448.85,299.05,448.28,300.37Z" transform="translate(0 0.11)"/><path class="cls-14" d="M53.2,280.33l.37-.16c.28,2.21-.22,4-2.42,5.07A5.21,5.21,0,0,1,53.2,280.33Z" transform="translate(0 0.11)"/><path class="cls-15" d="M66,269.44c-.93-1.26-2.08-2.43-1.73-4.21.29-.35.59-.69.88-1,1.18,1.14,1.33,2.71,1.78,4.16C66.72,268.78,66.64,269.34,66,269.44Z" transform="translate(0 0.11)"/><path class="cls-16" d="M470.81,272.26c-2.66-.15-2-2.53-2.75-4,.31-.37.36-1,1-1.08A7.93,7.93,0,0,1,470.81,272.26Z" transform="translate(0 0.11)"/><path class="cls-17" d="M444.83,305.09l1,1.13a7.52,7.52,0,0,1-1.83,4.2l-1-1.15C443.57,307.85,443.39,306.13,444.83,305.09Z" transform="translate(0 0.11)"/><path class="cls-18" d="M473.83,280.26c-3.07-.68-2.76-2.66-1.87-4.85A6.52,6.52,0,0,1,473.83,280.26Z" transform="translate(0 0.11)"/><path class="cls-19" d="M455.84,283.27A6.82,6.82,0,0,1,454,287.4c-.64-.07-.72-.64-1-1.07.47-1.45.37-3.14,1.78-4.19C455.45,282.25,455.54,282.85,455.84,283.27Z" transform="translate(0 0.11)"/><path class="cls-20" d="M458.86,276.3a6.89,6.89,0,0,1-1.86,4.14c-.64-.08-.72-.65-.95-1.09a7.61,7.61,0,0,1,1.84-4.05A1.86,1.86,0,0,1,458.86,276.3Z" transform="translate(0 0.11)"/><path class="cls-13" d="M483.77,306.29l-1,1.11c-1.64-1.71-1.52-3.68-.82-5.73A8.54,8.54,0,0,1,483.77,306.29Z" transform="translate(0 0.11)"/><path class="cls-21" d="M60.85,265.2c-.49,1.27-.66,2.73-2,3.57-1.5-2,.2-3.17,1.07-4.58Z" transform="translate(0 0.11)"/><path class="cls-22" d="M50,287.38c.46,2,.31,3.81-1.85,4.83C47.82,290.23,48.74,288.74,50,287.38Z" transform="translate(0 0.11)"/><path class="cls-23" d="M72.94,284.2c-2.81-.41-3-1.92-1.74-4.08Z" transform="translate(0 0.11)"/><path class="cls-24" d="M47.06,296.43c-1.2,1.43-.55,4-2.87,4.74C44.28,299.07,44.26,296.9,47.06,296.43Z" transform="translate(0 0.11)"/><path class="cls-25" d="M44.07,303.05c-.66,1.5-.39,3.63-2.7,4.05C41.8,305.43,41.5,303.28,44.07,303.05Z" transform="translate(0 0.11)"/><path class="cls-22" d="M40,312.09l6.26.15c-2,2.16-4.48,1.12-6.82.82a.55.55,0,0,1-.09-.43A4.9,4.9,0,0,1,40,312.09Z" transform="translate(0 0.11)"/><path class="cls-17" d="M56.38,273.34h0c0-2-.11-4.05,2.67-4.35C58.58,270.68,58.14,272.41,56.38,273.34Z" transform="translate(0 0.11)"/><path class="cls-26" d="M453,286.33l1,1.07-1.21,2.85c-.3-.34-.6-.67-.89-1Z" transform="translate(0 0.11)"/><path d="M456.05,279.35l.95,1.09c-.38.94-.77,1.89-1.16,2.83l-1-1.13A3.79,3.79,0,0,1,456.05,279.35Z" transform="translate(0 0.11)"/><path class="cls-27" d="M82.89,312.2c-1.86-.39-3.93.68-5.64-.8l5.76-.13Z" transform="translate(0 0.11)"/><path d="M458.86,276.3c-.32-.34-.65-.67-1-1,.4-1,.79-1.95,1.18-2.93l.94,1.09C459.62,274.41,459.24,275.35,458.86,276.3Z" transform="translate(0 0.11)"/><path d="M469,267.16l-1,1.08c-.32-1-.65-1.95-1-2.93l2-.92Z" transform="translate(0 0.11)"/><path class="cls-28" d="M66,269.44l.93-1.08L68,271.29C66.37,271.74,66,270.82,66,269.44Z" transform="translate(0 0.11)"/><path class="cls-21" d="M75.88,292.15c-2.88-.19-1.71-2.3-1.81-3.81C75.69,289.13,74.84,291.09,75.88,292.15Z" transform="translate(0 0.11)"/><path class="cls-10" d="M476.11,285.92,475,287.26c-.48-1.28-1.33-2.55,0-3.83C476.11,283.93,475.93,285,476.11,285.92Z" transform="translate(0 0.11)"/><path class="cls-29" d="M492.69,208.76V219.3h-.5V208.63Z" transform="translate(0 0.11)"/></svg>