<svg id="Layer_13" data-name="Layer 13" xmlns="http://www.w3.org/2000/svg" viewBox="0 0 512 512"><defs><style>.cls-1{fill:#fefefe;}.cls-2{fill:#2b2b2b;}.cls-3{fill:#90af14;}.cls-4{fill:#0f0f0f;}</style></defs><title>tension 2</title><path class="cls-1" d="M2.85,261.05q0-126-.1-251.92c0-3.41.68-4.08,4.09-4.08q251.91.17,503.83,0c3.41,0,4.09.67,4.08,4.08q-.15,251.93,0,503.83c0,3.42-.66,4.09-4.08,4.09q-251.91-.16-503.83,0c-3.41,0-4.09-.67-4.09-4.09Q2.95,387,2.85,261.05Z" transform="translate(-2.75 -5.05)"/><path class="cls-2" d="M133.49,176.85c-4.26-2.39-4.58-4.65-1-8.51,12.52-13.43,24.75-27.12,36.82-40.94,3.1-3.55,5-3.35,7.07.48,18.09,25.06,36.64,49.78,56.83,73.2,14.52,16.85,29.31,33.53,45.55,48.78a1052.07,1052.07,0,0,0,110.91,90.89,26.27,26.27,0,0,1,3.46,2.84c2,1.42,3.64,3.38,5.73,4.75,3.22,1.58,3.67,3,.91,6Q380.62,375.2,362,396.52c-3.2,3.67-5,3.1-7-.68-10-13.41-19.77-27-30-40.27q-21.63-28-45.36-54.3a620.51,620.51,0,0,0-51-50.42c-19.26-16.89-39-33.1-59.56-48.4C157.36,193.72,145.45,185.25,133.49,176.85Z" transform="translate(-2.75 -5.05)"/><path d="M133.49,176.85c4.36.29,7.09,3.6,10.29,5.85,18.84,13.23,37.41,26.85,55.24,41.41,13.6,11.1,27,22.46,39.89,34.39,8.18,7.56,16.27,15.18,24,23.21q25.62,26.76,48.95,55.54,21.62,26.65,41.42,54.62c.89,1.25,1.86,2.34,1.73,4q-28.23-27.78-56.47-55.56Q217.65,260.4,136.85,180.47C135.68,179.31,134.61,178.06,133.49,176.85Z" transform="translate(-2.75 -5.05)"/><path d="M392.93,344.37c-24.91-17.29-48.76-36-72-55.46-19.82-16.64-39.21-33.77-57.15-52.42Q239,210.72,216.59,182.76c-13.16-16.42-26-33.08-38-50.32-.94-1.35-2.73-2.44-2.18-4.56,6.18,6,12.4,12,18.53,18.09q97.71,96.6,195.39,193.25c1.29,1.27,2.47,2.64,3.7,4C394.31,344.19,394,344.63,392.93,344.37Z" transform="translate(-2.75 -5.05)"/><path class="cls-3" d="M67.15,114.11c-6.15-20.22-12-39.71-18-59.18-.78-2.55-.24-3.45,2.44-2.76,19.29,4.93,38.57,9.89,57.88,14.71,3.38.85,2.23,1.94.66,3.44-3.24,3.11-6.33,6.39-9.73,9.3-2.44,2.08-2.51,3.34-.09,5.65,14.31,13.66,28.37,27.58,42.71,41.21,2.79,2.64,2.9,4.19-.07,6.5-3.39,2.63-6,8.3-9.53,8-3.34-.24-6.39-5.18-9.46-8.17C112,121.26,100.06,109.71,88.31,98c-2.56-2.56-3.86-2.32-6.12.25C77.51,103.53,72.46,108.54,67.15,114.11Z" transform="translate(-2.75 -5.05)"/><path class="cls-3" d="M471.6,413.79l18.31,61.38L425.32,458.5c4.44-4.24,8.21-8.13,12.29-11.64,2.61-2.25,2.68-3.59.08-6.08-14.14-13.56-28-27.42-42.15-41-2.89-2.77-3-4.46.11-6.85,3.39-2.59,5.91-8.16,9.6-7.91,3.18.22,6.05,5.16,9,8.06,12,11.76,24,23.47,35.8,35.35,2.29,2.3,3.47,2.31,5.78,0C460.81,423.37,466.21,418.74,471.6,413.79Z" transform="translate(-2.75 -5.05)"/><path class="cls-4" d="M392.93,344.37l1.09-1.18c1.88,1.48,3.91,2.8,4.86,5.15C396.25,348,394.87,345.76,392.93,344.37Z" transform="translate(-2.75 -5.05)"/></svg>