<svg id="Layer_16" data-name="Layer 16" xmlns="http://www.w3.org/2000/svg" viewBox="0 0 512 512"><defs><style>.cls-1{fill:#fefefe;}.cls-2{fill:#c8c8c8;}.cls-3{fill:#90af14;}</style></defs><title>tension 1</title><path class="cls-1" d="M2.85,258.88q0-126-.1-251.91c0-3.42.68-4.09,4.09-4.09q251.91.17,503.83,0c3.41,0,4.09.67,4.08,4.09q-.15,251.91,0,503.82c0,3.42-.66,4.09-4.08,4.09q-251.91-.17-503.83,0c-3.41,0-4.09-.67-4.09-4.08Q2.95,384.83,2.85,258.88Z" transform="translate(-2.75 -2.88)"/><path d="M397.83,346.37c4.56,2.41,4.05,4.67.69,8.28-12.09,13-23.8,26.32-35.64,39.54-4,4.5-4,4.53-7.8-.15-4.69-4.34-7.8-9.9-11.54-15-19.08-25.78-38.93-50.93-60.37-74.82-12-13.36-24.09-26.61-37.2-38.86q-30-28.06-62.56-53.25c-16.14-12.56-33.15-23.91-49.27-36.46a5.49,5.49,0,0,1-1.48-1.32c-3.39-1.87-3.35-3.63-.66-6.55q19.13-20.83,37.8-42.09c2.21-2.5,3.63-2.77,5.34.14,7.08,7.31,12.17,16.12,18.29,24.15,19.92,26.14,40.65,51.57,63.06,75.67,27.78,29.87,58.71,56.13,90.34,81.69C363.48,320.84,381.36,332.68,397.83,346.37Z" transform="translate(-2.75 -2.88)"/><path class="cls-2" d="M132.66,174.37c15.32,9.35,29.43,20.39,43.83,31,70,51.62,127.59,115.06,177.26,186.05a21.18,21.18,0,0,1,1.33,2.6c-2.52-.08-3.6-2.22-5.08-3.68-26.86-26.72-53.39-53.8-80.6-80.15-31-30-61.06-61.13-92.15-91.12-13.87-13.38-27.38-27.11-41.18-40.55C134.79,177.29,133.12,176.31,132.66,174.37Z" transform="translate(-2.75 -2.88)"/><path class="cls-2" d="M397.83,346.37c-13.41-8.33-25.69-18.22-38.31-27.65A803.12,803.12,0,0,1,178.27,130.9c-1.12-1.62-2.09-3.35-3.13-5,2,.36,2.94,2.08,4.2,3.34,21.23,21.1,42.14,42.52,63.67,63.3,32.06,30.94,63,63,95,94,19,18.35,37.5,37.23,56.39,55.71C395.71,343.44,397.39,344.41,397.83,346.37Z" transform="translate(-2.75 -2.88)"/><path class="cls-3" d="M67.13,113C61,92.81,55.22,73.43,49.24,54.1c-1.08-3.49.14-3.68,3-3,19.74,5.07,39.5,10.09,59.5,15.19-.28,2.39-2.24,3.3-3.52,4.63-3.34,3.46-9.44,6.76-9.51,10.23-.09,4,6.14,7.13,9.66,10.59q17.28,16.93,34.76,33.64c2.48,2.35,3,3.88.09,6.14-3.51,2.74-6.14,8.49-9.94,8.31-3.26-.15-6.33-5.28-9.41-8.29C111.92,120,100,108.43,88.2,96.69c-2.31-2.31-3.56-2.41-5.76.08C77.73,102.11,72.67,107.14,67.13,113Z" transform="translate(-2.75 -2.88)"/><path class="cls-3" d="M489.92,474l-63.7-16.49c3.85-4.05,7.21-8.15,11.15-11.57,3.17-2.74,2.54-4.22-.14-6.8-14-13.46-27.77-27.18-41.78-40.64-2.61-2.51-3.2-4.06-.08-6.51,3.37-2.65,6.21-7.77,9.61-8.07s6.31,5.14,9.36,8.11c11.77,11.47,23.57,22.92,35.07,34.67,3.07,3.13,4.51,2.57,7.23-.28,4.65-4.88,9.86-9.21,14.94-13.87C477.5,432.43,483.59,452.81,489.92,474Z" transform="translate(-2.75 -2.88)"/></svg>