<svg id="Layer_14" data-name="Layer 14" xmlns="http://www.w3.org/2000/svg" viewBox="0 0 512 512"><defs><style>.cls-1{fill:#fefefe;}.cls-2{fill:#919191;}</style></defs><title>truss</title><path class="cls-1" d="M511.91,258q0,125.67.09,251.33c0,3.34-.56,4.13-4.05,4.13q-251.85-.16-503.7,0C.39,513.46,0,512.36,0,509Q.15,257.43,0,5.84c0-3.5.6-4.38,4.3-4.38q251.59.18,503.2,0c3.95,0,4.5,1.11,4.49,4.68Q511.83,132.07,511.91,258Z" transform="translate(0 -1.46)"/><path d="M46,365.88c-2.47-.34-5-.58-7.41-1.05-1.53-.3-3.85.68-4.41-1.15-.47-1.53,1.55-2.73,2.5-4.05,6.36-8.79,13.89-16.5,21.62-24.09q99.87-97.82,199.51-195.87c2.82-2.77,4.09-3.14,7.06,0q98.39,103.8,197,207.44c4.89,5.16,8.81,11.23,13.22,16.85,1.41,1.8,1,2.48-1.23,2.69-6.62.63-13.24,1.38-19.86,2.08-2-.74-2.52-2.4-2.74-4.19-.51,1.77-.46,4.07-3.27,4.18q-88.4-.45-176.8-.88c-1.3,0-2.88-.11-3.86.54-5,3.31-9.84,3.13-14.84-.09-1-.64-2.56-.51-3.86-.51q-49.69-.15-99.4-.24c-1.78-.65-3.63-.33-5.44-.33q-40.71,0-81.42,0C56.82,367.17,51.32,367.5,46,365.88Z" transform="translate(0 -1.46)"/><path class="cls-2" d="M46,365.88c7-1.43,13.67,1.53,20.68.92,7.24-.63,14.58-.1,21.88-.06q27.61.13,55.22.33c1.81,0,3.6.29,5.4.45-2.48.12-5,.33-7.44.33q-41.44-.09-82.9-.24H53.24l26.68,60.83c-19.81,1.89-39.08.38-59.1,2,4.83-10.77,9.29-20.72,13.76-30.67s8.74-19.73,13.4-29.45C49.35,367.49,48.08,366.72,46,365.88Z" transform="translate(0 -1.46)"/><path class="cls-2" d="M447.92,368.7l3.43-4.8,2.58,4.81Q465.77,395.85,477.6,423c2.41,5.52,2.46,5.62-3.49,5.83-16.45.56-32.9.92-49.35,1.56-4,.16-3.43-1.29-2.22-3.93q12-26.26,23.76-52.61C447,372.18,448.28,370.68,447.92,368.7Z" transform="translate(0 -1.46)"/><path class="cls-1" d="M230.29,344.33H83.77c-.55-1.93.85-2.37,1.57-3.08q35.58-35,71.21-69.94c1.67-1.64,2.72-3.33,5.33-.5,22.13,23.93,44.45,47.69,66.7,71.51C229.1,342.87,229.56,343.47,230.29,344.33Z" transform="translate(0 -1.46)"/><path class="cls-1" d="M248.81,330.27c-7.88-8.41-14.7-15.66-21.49-22.93q-24.52-26.25-49.06-52.5c-1.47-1.57-2.45-2.52-.31-4.59q35-34.12,69.89-68.43a4.1,4.1,0,0,1,1-.41Z" transform="translate(0 -1.46)"/><path class="cls-1" d="M427.87,345H288.11c1.54-1.81,2.32-2.77,3.15-3.69q31-34.5,62-69c1.5-1.67,2.48-3.75,5.24-.83,22.68,24.07,45.54,48,68.34,72A12.28,12.28,0,0,1,427.87,345Z" transform="translate(0 -1.46)"/><path class="cls-1" d="M272,327.37V182.44c1.86-.74,2.32.7,3,1.44q31.32,32.88,62.64,65.78c1.89,2,2.5,3.1.32,5.51q-32.19,35.49-64.08,71.23a7.12,7.12,0,0,0-.84,1.78Z" transform="translate(0 -1.46)"/></svg>